<svg width="58" height="58" viewBox="0 0 58 58" fill="none" xmlns="http://www.w3.org/2000/svg">
<path d="M28.9361 0C44.9171 0 57.8723 12.9552 57.8723 28.9361C57.8723 44.9171 44.9171 57.8723 28.9361 57.8723C12.9552 57.8723 0 44.9171 0 28.9361C0 12.9552 12.9552 0 28.9361 0Z" fill="#7F4DA0"/>
<path d="M35.9659 26.1474C35.838 25.1986 35.5185 24.4535 34.9511 23.7936C34.2143 22.9437 33.2728 22.4349 31.8788 22.1331C30.9703 21.9318 30.6033 21.955 30.2748 22.2289C29.9687 22.4856 29.909 23.0001 30.1428 23.3334C30.3073 23.5752 30.4971 23.6618 31.0248 23.7563C31.7275 23.8744 32.2132 24.0276 32.655 24.2581C33.5926 24.7524 34.0293 25.5258 34.0761 26.7779C34.098 27.3658 34.1536 27.5465 34.3786 27.755C34.7954 28.1361 35.5374 28.0621 35.8522 27.6059C35.9677 27.434 35.9853 27.3592 35.9975 26.96C36.0056 26.7129 35.9939 26.345 35.9659 26.1474Z" fill="white"/>
<path d="M38.9778 27.1173C38.805 24.1475 37.6418 21.7583 35.5601 20.0773C34.3872 19.1327 32.9695 18.4831 31.4155 18.1673C30.8462 18.0544 29.7982 17.9628 29.6183 18.0151C29.4486 18.0637 29.2087 18.2471 29.1018 18.413C28.9886 18.5929 28.9631 18.9946 29.0596 19.2271C29.2154 19.6155 29.505 19.7526 30.3165 19.8236C31.5674 19.9328 32.8576 20.3718 33.8324 21.0214C34.9453 21.7613 35.8301 22.7731 36.4024 23.962C36.897 24.9835 37.201 26.4557 37.1927 27.7741C37.1898 28.2509 37.2636 28.5201 37.4555 28.717C37.7454 29.0198 38.1679 29.0859 38.5408 28.8848C38.954 28.6678 39.0506 28.2869 38.9778 27.1173Z" fill="white"/>
<path d="M42.8614 38.1493C42.8043 37.9815 42.6711 37.7229 42.576 37.5743C41.9764 36.6638 38.7552 34.1289 37.147 33.2999C36.2286 32.8255 35.5483 32.6674 35.0439 32.8158C34.5014 32.9692 34.2159 33.2232 33.3072 34.3589C32.9408 34.8142 32.5649 35.2406 32.465 35.3077C32.2175 35.4802 31.7322 35.6192 31.3896 35.6192C30.595 35.6144 29.1533 35.0969 28.0446 34.4164C27.1835 33.8893 26.0796 32.9453 25.2326 32.0108C24.2334 30.9135 23.553 29.9455 23.0153 28.8529C22.3207 27.449 22.1446 26.5911 22.4348 25.9633C22.5062 25.8053 22.6014 25.6376 22.6441 25.5849C22.687 25.537 23.1343 25.168 23.6291 24.7654C24.5998 23.9891 24.7568 23.8119 24.9375 23.2799C25.166 22.6042 25.1042 21.9142 24.752 21.2194C24.4808 20.6923 23.7719 19.5422 23.258 18.7995C22.5776 17.822 20.8837 15.7327 20.5458 15.4498C19.9368 14.9515 19.1565 14.8653 18.2952 15.2007C17.3865 15.5553 15.6831 16.9355 14.955 17.8986C14.2984 18.7708 14.0463 19.3889 14.0082 20.2034C13.9749 20.8744 14.032 21.1523 14.3841 22.0101C17.139 28.7379 21.25 34.1097 26.898 38.3746C29.848 40.6027 32.9075 42.2992 36.0812 43.4589C37.932 44.1345 38.7361 44.168 39.683 43.6122C40.0827 43.3725 41.0723 42.3519 41.6243 41.6091C42.5378 40.3727 42.8758 39.8026 42.9709 39.3474C43.0375 39.0358 42.9852 38.4944 42.8614 38.1493Z" fill="white"/>
<path d="M41.9953 27.4687C41.9355 25.906 41.6629 24.6242 41.0944 23.1952C40.5333 21.7895 39.9653 20.8722 38.8927 19.6315C37.8786 18.4682 37.0909 17.804 35.8417 17.0646C34.0989 16.0345 31.9778 15.3528 29.6008 15.0661C28.7902 14.9659 28.6067 14.973 28.3581 15.1332C27.8761 15.4366 27.8826 16.1934 28.366 16.4922C28.5261 16.5873 28.668 16.6219 29.3165 16.7038C30.3119 16.8332 30.9519 16.9551 31.7114 17.155C34.6896 17.9408 36.9798 19.5469 38.5109 21.9311C39.7922 23.9184 40.3241 25.9058 40.2487 28.4441C40.2224 29.3022 40.2415 29.4532 40.3773 29.6593C40.6376 30.0437 41.324 30.1196 41.6761 29.8007C41.8952 29.6065 41.9364 29.4605 41.9796 28.7261C42.0003 28.343 42.0047 27.7773 41.9953 27.4687Z" fill="white"/>
</svg>
