<svg width="59" height="59" viewBox="0 0 59 59" fill="none" xmlns="http://www.w3.org/2000/svg">
<path d="M29.8976 58.8283C45.8785 58.8283 58.8337 45.8731 58.8337 29.8922C58.8337 13.9112 45.8785 0.956055 29.8976 0.956055C13.9166 0.956055 0.961426 13.9112 0.961426 29.8922C0.961426 45.8731 13.9166 58.8283 29.8976 58.8283Z" fill="#25D366"/>
<path fill-rule="evenodd" clip-rule="evenodd" d="M30.8514 45.9922H30.8443C27.9646 45.9911 25.135 45.2687 22.6218 43.8978L13.5005 46.2905L15.9415 37.3744C14.4357 34.765 13.6435 31.8049 13.6447 28.7724C13.6485 19.2854 21.3673 11.5672 30.8512 11.5672C35.4541 11.5691 39.7743 13.361 43.0228 16.6134C46.2714 19.8656 48.0594 24.1886 48.0576 28.786C48.0539 38.2707 40.3382 45.9883 30.8514 45.9922ZM23.0446 40.782L23.5668 41.092C25.7625 42.395 28.2795 43.0845 30.8458 43.0854H30.8515C38.7339 43.0854 45.1494 36.6698 45.1525 28.7841C45.1541 24.9629 43.668 21.3697 40.9679 18.6665C38.2678 15.9632 34.677 14.4739 30.8571 14.4725C22.9686 14.4725 16.5531 20.8876 16.55 28.7725C16.5489 31.4748 17.305 34.1066 18.7365 36.3835L19.0766 36.9246L17.6318 42.2019L23.0446 40.782ZM38.9312 32.491C39.231 32.6359 39.4336 32.7338 39.52 32.8781C39.6274 33.0574 39.6274 33.9181 39.2693 34.9226C38.9109 35.9268 37.1933 36.8433 36.3673 36.9668C35.6266 37.0775 34.6892 37.1236 33.6593 36.7964C33.0349 36.5983 32.2342 36.3338 31.2085 35.8907C27.178 34.1504 24.4542 30.2439 23.9393 29.5057C23.9033 29.454 23.8781 29.4178 23.864 29.399L23.8606 29.3944C23.6331 29.0908 22.1085 27.0568 22.1085 24.9515C22.1085 22.9712 23.0813 21.9332 23.529 21.4554C23.5598 21.4226 23.588 21.3925 23.6132 21.365C24.0073 20.9346 24.4731 20.8269 24.7597 20.8269C25.0463 20.8269 25.3332 20.8296 25.5838 20.8421C25.6146 20.8437 25.6468 20.8436 25.68 20.8433C25.9305 20.8419 26.2429 20.8401 26.5511 21.5802C26.6696 21.865 26.8431 22.2874 27.026 22.7327C27.3959 23.6334 27.8047 24.6284 27.8766 24.7725C27.9841 24.9877 28.0557 25.2386 27.9124 25.5257C27.8909 25.5687 27.871 25.6093 27.852 25.6482C27.7443 25.8678 27.6652 26.0295 27.4824 26.2428C27.4107 26.3267 27.3364 26.4171 27.2622 26.5076C27.1142 26.6877 26.9664 26.8678 26.8377 26.9961C26.6223 27.2105 26.3983 27.443 26.6491 27.8735C26.8999 28.3039 27.7628 29.7118 29.0408 30.8517C30.4148 32.0772 31.6089 32.5951 32.2141 32.8577C32.3323 32.909 32.428 32.9506 32.4983 32.9856C32.928 33.201 33.1788 33.1649 33.4297 32.8781C33.6804 32.5911 34.5044 31.6226 34.7909 31.1923C35.0775 30.762 35.3642 30.8338 35.7582 30.9771C36.1524 31.1207 38.2661 32.1607 38.696 32.3758C38.78 32.4179 38.8584 32.4559 38.9312 32.491Z" fill="#FDFDFD"/>
</svg>
