<svg width="97" height="20" viewBox="0 0 97 20" fill="none" xmlns="http://www.w3.org/2000/svg">
<path d="M6.14495 19.4725H2.48989V10.3514H0V7.38177H2.4898V5.26866C2.4898 2.76463 3.59104 0.96875 7.2362 0.96875C8.00716 0.96875 9.21752 1.12431 9.21752 1.12431V3.88177H7.94624C6.6509 3.88177 6.14514 4.2762 6.14514 5.36664V7.38177H9.16902L8.89975 10.3514H6.14505L6.14495 19.4725ZM14.5316 7.14445C14.4783 7.14445 14.4235 7.1464 14.3693 7.14776C10.9801 7.14776 9.42947 9.69976 9.42947 13.3224C9.42947 17.8859 11.4409 19.7124 14.3958 19.7124C16.0864 19.7124 17.1971 19.0001 17.8722 17.6708V19.4737H21.3487V7.38303H17.8722V9.24241C17.321 8.04613 16.1792 7.15863 14.5316 7.14445ZM15.4155 10.0015C16.839 10.0015 17.6934 10.9954 17.6934 12.686L17.6967 14.4127C17.6967 15.5522 16.991 16.8853 15.4155 16.8853C12.9934 16.8853 13.0581 14.2673 13.0581 13.3953C13.0581 10.4622 14.3486 10.0015 15.4155 10.0015ZM22.7527 13.429C22.7527 11.9598 22.6825 7.15232 28.9394 7.15232C31.451 7.15232 32.4998 7.95175 32.4998 7.95175L31.6568 10.5689C31.6568 10.5689 30.6094 9.99155 29.2446 9.99155C27.4966 9.99155 26.3812 11.006 26.3812 12.7908L26.3831 14.0706C26.3831 15.7855 27.4593 16.9304 29.2482 16.9304C30.4916 16.9304 31.6375 16.3476 31.6375 16.3476L32.4783 18.9101C32.4783 18.9101 31.5194 19.7145 28.9569 19.7145C22.9994 19.7145 22.7528 15.4013 22.7528 13.429H22.7527ZM52.8836 7.14776C56.2729 7.14776 57.848 9.69976 57.848 13.3224C57.848 17.8859 55.8365 19.7124 52.8816 19.7124C51.191 19.7124 49.9412 19.0002 49.2661 17.6708V19.4737L45.8334 19.4724V1.33637L49.4781 1.01817V9.0786C50.0041 7.66841 51.7328 7.14776 52.8837 7.14776H52.8836ZM51.8618 10.0015C50.4384 10.0015 49.4781 10.9954 49.4781 12.686L49.4747 14.4127C49.4725 15.5522 50.1397 16.8853 51.8618 16.8853C54.2839 16.8853 54.2192 14.2673 54.2192 13.3953C54.2192 10.4622 52.9288 10.0015 51.8618 10.0015ZM38.8236 7.15776C34.9795 7.15776 32.95 9.25581 32.95 12.9843V13.677C32.95 18.5162 35.8 19.7621 39.1977 19.7621C42.5003 19.7621 43.9951 18.8374 43.9951 18.8374L43.3131 16.375C43.3131 16.375 41.5547 17.1239 39.6347 17.1239C37.6442 17.1239 36.7882 16.6161 36.5688 14.7012H44.2865V12.7257C44.2865 8.68127 42.0089 7.15766 38.8235 7.15766L38.8236 7.15776ZM38.9162 9.62354C40.2469 9.62354 41.1091 10.4403 41.0617 12.3347H36.5755C36.6533 10.3409 37.5831 9.62363 38.9162 9.62363V9.62354ZM65.1153 7.14115C61.1677 7.14115 59.0895 9.36806 59.0895 13.3588C59.0895 18.8343 62.6719 19.7157 65.1219 19.7157C68.7086 19.7157 71.0948 17.7827 71.0948 13.4085C71.0948 8.85576 68.4118 7.14115 65.1153 7.14115ZM65.0657 10.0114C66.8015 10.0114 67.4893 11.3118 67.4893 12.7921V14.0648C67.4893 15.8581 66.5269 16.8953 65.0591 16.8953C63.6863 16.8953 62.7216 15.9251 62.7216 14.0648V12.7921C62.7216 10.8082 63.8696 10.0114 65.0657 10.0114ZM78.3556 7.14115C74.408 7.14115 72.3298 9.36806 72.3298 13.3588C72.3298 18.8343 75.9122 19.7157 78.3622 19.7157C81.9488 19.7157 84.3351 17.7827 84.3351 13.4085C84.3351 8.85576 81.652 7.14115 78.3556 7.14115ZM78.306 10.0114C80.0418 10.0114 80.7295 11.3118 80.7295 12.7921V14.0648C80.7295 15.8581 79.7671 16.8953 78.2994 16.8953C76.9266 16.8953 75.9619 15.9251 75.9619 14.0648V12.7921C75.9619 10.8082 77.1099 10.0114 78.306 10.0114ZM85.7124 19.4725V1.33637L89.3677 1.01817V13.1741L92.9941 7.38177H96.8543L93.0713 13.3809L97 19.4725H93.1288L89.3677 13.5577V19.4725H85.7124Z" fill="#338BFE"/>
</svg>
