<svg width="84" height="84" viewBox="0 0 84 84" fill="none" xmlns="http://www.w3.org/2000/svg">
<circle cx="42" cy="42" r="41.5" fill="white" stroke="#DFDFDF"/>
<path d="M48.3914 54H34.5964V52.047L42.4084 44.173C44.6404 41.941 45.7564 40.0293 45.7564 38.438C45.7564 37.0947 45.3328 36.0303 44.4854 35.245C43.6588 34.439 42.6254 34.036 41.3854 34.036C39.1741 34.036 37.5518 35.059 36.5184 37.105L34.6894 36.02C35.3508 34.6973 36.2704 33.6847 37.4484 32.982C38.6264 32.2793 39.9388 31.928 41.3854 31.928C43.1214 31.928 44.6404 32.517 45.9424 33.695C47.2651 34.8317 47.9264 36.4127 47.9264 38.438C47.9264 39.6367 47.5958 40.8147 46.9344 41.972C46.2731 43.1087 45.2604 44.359 43.8964 45.723L37.6964 51.892H48.3914V54Z" fill="black"/>
</svg>
