<svg width="93" height="93" viewBox="0 0 93 93" fill="none" xmlns="http://www.w3.org/2000/svg">
<path fill-rule="evenodd" clip-rule="evenodd" d="M46.5 92C71.629 92 92 71.629 92 46.5C92 21.371 71.629 1 46.5 1C21.371 1 1 21.371 1 46.5C1 71.629 21.371 92 46.5 92ZM46.5 93C72.1812 93 93 72.1812 93 46.5C93 20.8188 72.1812 0 46.5 0C20.8188 0 0 20.8188 0 46.5C0 72.1812 20.8188 93 46.5 93Z" fill="#EDEDED"/>
<path fill-rule="evenodd" clip-rule="evenodd" d="M44.091 45.5742C42.018 49.2593 40.5929 53.2602 39.8762 57.4065L38.8909 57.2362C39.627 52.9771 41.0907 48.8681 43.2192 45.0842C44.96 41.9763 48.1161 38.4348 50.8096 35.6898C53.5036 32.9443 55.8035 30.9293 55.785 30.947L56.4768 31.6691C56.4742 31.6716 56.4587 31.6853 56.4312 31.7097C56.0987 32.0045 54.005 33.8611 51.5233 36.3902C48.8359 39.1291 45.7617 42.5911 44.091 45.5742ZM49.9925 30.5834C47.2163 31.3528 43.9999 32.8968 41.1084 34.7177C38.2069 36.545 35.7287 38.5905 34.3739 40.3126C31.5256 43.9331 30.4149 48.6293 30.8201 52.819C31.227 57.0257 33.1271 60.5013 36.0405 61.9701C36.7056 62.2704 36.8627 62.9355 36.8976 63.3082C36.9369 63.7271 36.8739 64.1968 36.7814 64.6382C36.5926 65.5399 36.2102 66.6389 35.8053 67.669C35.396 68.7107 34.9447 69.7291 34.5973 70.4841C34.4937 70.7094 34.3991 70.9118 34.3171 71.0852L35.1666 71.9061L38.952 63.6837L39.6718 63.7683L39.6733 63.7684L39.6766 63.7688L39.7048 63.7717C39.7317 63.7743 39.7749 63.7783 39.8332 63.7828C39.9501 63.7918 40.1279 63.803 40.3599 63.8105C40.8242 63.8254 41.5039 63.8253 42.3443 63.7626C44.027 63.6371 46.3412 63.2618 48.8575 62.2641C53.8452 60.2866 59.7276 55.8274 63.0412 45.7362C64.7134 38.389 61.8169 31.6964 58.2192 24.4438C58.0928 24.7155 57.9445 24.998 57.7704 25.2872C56.5991 27.2326 54.3207 29.3792 49.9925 30.5834ZM57.6224 23.2471C57.7025 23.0089 57.7625 22.7893 57.8074 22.594C57.9314 22.0542 57.9397 21.699 57.9355 21.6447C57.9351 21.6398 57.9347 21.6373 57.9342 21.6374C58.0101 21.7888 58.0859 21.94 58.1617 22.0911C58.3403 22.4471 58.5185 22.8023 58.6959 23.1569C62.4757 30.7149 65.853 37.972 64.0058 46.004C57.192 66.8331 39.5567 64.7616 39.5567 64.7616L35.4854 73.6047L33.103 71.3026C33.103 71.3026 36.9899 63.4467 35.6153 62.8755C28.9274 59.5328 27.5376 47.3847 33.588 39.6943C36.4991 35.9939 43.9312 31.2255 49.7254 29.6197C55.1442 28.1121 56.9963 25.1093 57.6224 23.2471Z" fill="url(#paint0_linear_298_460)"/>
<defs>
<linearGradient id="paint0_linear_298_460" x1="43.1619" y1="24.8608" x2="55.1765" y2="89.6152" gradientUnits="userSpaceOnUse">
<stop stop-color="#BCBCBC"/>
<stop offset="1" stop-color="#1E1E1E"/>
</linearGradient>
</defs>
</svg>
