<svg width="103" height="93" viewBox="0 0 103 93" fill="none" xmlns="http://www.w3.org/2000/svg">
<circle cx="46.5" cy="46.5" r="46" stroke="#EDEDED"/>
<path fill-rule="evenodd" clip-rule="evenodd" d="M52.3536 13.6464C52.1583 13.4512 51.8417 13.4512 51.6464 13.6464L18.6464 46.6464C18.5527 46.7402 18.5 46.8674 18.5 47V59C18.5 59.2761 18.7239 59.5 19 59.5H31C31.1326 59.5 31.2598 59.4473 31.3536 59.3536L64.3536 26.3536C64.5488 26.1583 64.5488 25.8417 64.3536 25.6464L52.3536 13.6464ZM19.5 58.5V47.2071L52 14.7071L63.2929 26L30.7929 58.5H19.5Z" fill="url(#paint0_linear_212_2)"/>
<path d="M19 65.5C18.7239 65.5 18.5 65.7239 18.5 66C18.5 66.2761 18.7239 66.5 19 66.5L102 66.5C102.276 66.5 102.5 66.2761 102.5 66C102.5 65.7239 102.276 65.5 102 65.5L19 65.5Z" fill="url(#paint1_linear_212_2)"/>
<defs>
<linearGradient id="paint0_linear_212_2" x1="60.4999" y1="13.5" x2="60.4999" y2="87.5" gradientUnits="userSpaceOnUse">
<stop stop-color="#BCBCBC"/>
<stop offset="1" stop-color="#1E1E1E"/>
</linearGradient>
<linearGradient id="paint1_linear_212_2" x1="60.4999" y1="13.5" x2="60.4999" y2="87.5" gradientUnits="userSpaceOnUse">
<stop stop-color="#BCBCBC"/>
<stop offset="1" stop-color="#1E1E1E"/>
</linearGradient>
</defs>
</svg>
