<svg width="93" height="93" viewBox="0 0 93 93" fill="none" xmlns="http://www.w3.org/2000/svg">
<path fill-rule="evenodd" clip-rule="evenodd" d="M46.5 92C71.629 92 92 71.629 92 46.5C92 21.371 71.629 1 46.5 1C21.371 1 1 21.371 1 46.5C1 71.629 21.371 92 46.5 92ZM46.5 93C72.1812 93 93 72.1812 93 46.5C93 20.8188 72.1812 0 46.5 0C20.8188 0 0 20.8188 0 46.5C0 72.1812 20.8188 93 46.5 93Z" fill="#EDEDED"/>
<path d="M33.1349 31.718C36.3652 28.7407 40.5255 26.9737 44.9053 26.7188C49.2849 26.464 53.6122 27.7371 57.148 30.3201C57.3041 30.4342 57.5231 30.4001 57.6371 30.244C57.7511 30.0879 57.717 29.8689 57.5609 29.7549C53.8938 27.0759 49.4061 25.7558 44.8646 26.02C40.3231 26.2843 36.0096 28.1165 32.6605 31.2033C29.3115 34.29 27.1345 38.4401 26.5017 42.9449C25.8688 47.4497 26.8195 52.0296 29.1914 55.9024C29.2924 56.0672 29.5078 56.119 29.6727 56.018C29.8375 55.9171 29.8893 55.7016 29.7883 55.5368C27.5014 51.8027 26.5846 47.3865 27.1949 43.0423C27.8051 38.698 29.9047 34.6952 33.1349 31.718Z" fill="url(#paint0_linear_396_7)"/>
<path d="M59.0842 24.6226C59.0724 24.4296 58.9064 24.2828 58.7135 24.2946C58.5205 24.3064 58.3737 24.4724 58.3855 24.6653L58.8265 31.8704L51.6973 32.3169C51.5044 32.3289 51.3578 32.4951 51.3699 32.6881C51.382 32.881 51.5482 33.0276 51.7411 33.0155L59.5679 32.5253L59.0842 24.6226Z" fill="url(#paint1_linear_396_7)"/>
<path d="M34.4541 61.1349L42.2735 60.6369C42.4664 60.6246 42.6327 60.771 42.645 60.9639C42.6573 61.1568 42.5109 61.3232 42.318 61.3354L35.1949 61.7891L35.6295 68.9873C35.6411 69.1802 35.4941 69.3461 35.3012 69.3577C35.1082 69.3694 34.9424 69.2224 34.9307 69.0295L34.4541 61.1349Z" fill="url(#paint2_linear_396_7)"/>
<path d="M64.8372 37.7497C64.7358 37.5851 64.5202 37.5338 64.3556 37.6352C64.191 37.7366 64.1398 37.9522 64.2411 38.1168C66.5404 41.8506 67.4664 46.2723 66.8599 50.6234C66.2534 54.9747 64.1521 58.9844 60.9164 61.9651C57.6807 64.9458 53.5121 66.7115 49.1257 66.9597C44.7393 67.2079 40.4084 65.9232 36.8752 63.326C36.7194 63.2115 36.5004 63.2449 36.3859 63.4007C36.2714 63.5564 36.3049 63.7755 36.4606 63.89C40.1252 66.5837 44.6167 67.9159 49.1652 67.6586C53.7137 67.4012 58.0359 65.5704 61.3907 62.48C64.7455 59.3896 66.9243 55.2321 67.5532 50.7201C68.1821 46.208 67.2219 41.6224 64.8372 37.7497Z" fill="url(#paint3_linear_396_7)"/>
<defs>
<linearGradient id="paint0_linear_396_7" x1="47.0259" y1="24.7488" x2="47.0259" y2="87.8962" gradientUnits="userSpaceOnUse">
<stop stop-color="#BCBCBC"/>
<stop offset="1" stop-color="#1E1E1E"/>
</linearGradient>
<linearGradient id="paint1_linear_396_7" x1="47.0259" y1="24.7488" x2="47.0259" y2="87.8962" gradientUnits="userSpaceOnUse">
<stop stop-color="#BCBCBC"/>
<stop offset="1" stop-color="#1E1E1E"/>
</linearGradient>
<linearGradient id="paint2_linear_396_7" x1="47.0259" y1="24.7488" x2="47.0259" y2="87.8962" gradientUnits="userSpaceOnUse">
<stop stop-color="#BCBCBC"/>
<stop offset="1" stop-color="#1E1E1E"/>
</linearGradient>
<linearGradient id="paint3_linear_396_7" x1="47.0259" y1="24.7488" x2="47.0259" y2="87.8962" gradientUnits="userSpaceOnUse">
<stop stop-color="#BCBCBC"/>
<stop offset="1" stop-color="#1E1E1E"/>
</linearGradient>
</defs>
</svg>
