<svg width="93" height="93" viewBox="0 0 93 93" fill="none" xmlns="http://www.w3.org/2000/svg">
<path fill-rule="evenodd" clip-rule="evenodd" d="M46.5 92C71.629 92 92 71.629 92 46.5C92 21.371 71.629 1 46.5 1C21.371 1 1 21.371 1 46.5C1 71.629 21.371 92 46.5 92ZM46.5 93C72.1812 93 93 72.1812 93 46.5C93 20.8188 72.1812 0 46.5 0C20.8188 0 0 20.8188 0 46.5C0 72.1812 20.8188 93 46.5 93Z" fill="#EDEDED"/>
<path fill-rule="evenodd" clip-rule="evenodd" d="M46.0278 70.4992C46.0559 70.4997 46.084 70.5 46.1122 70.5C46.847 70.5 47.5718 70.3268 48.2285 69.9944L65.1254 61.4488C65.9129 61.0529 66.5744 60.4431 67.0369 59.6888C67.4994 58.9343 67.7444 58.0645 67.7449 57.1777V36.8163C67.7444 35.9295 67.4994 35.0599 67.0369 34.3055C66.5744 33.5512 65.9127 32.9412 65.1251 32.5453L48.2283 23.9998L48.2272 23.9992C47.5733 23.6706 46.8527 23.5 46.1225 23.5C45.3922 23.5 44.6721 23.6706 44.0183 23.9992L44.0172 23.9998L27.1199 32.5456C26.3326 32.9414 25.6706 33.5511 25.2081 34.3055C24.7456 35.0599 24.5006 35.9297 24.5001 36.8166V57.1547C24.4943 58.0424 24.7339 58.9147 25.192 59.6729C25.6505 60.4318 26.31 61.0467 27.0967 61.4477L43.996 69.9945C44.6029 70.3016 45.2677 70.4728 45.945 70.497C45.9631 70.499 45.9814 70.5 46 70.5C46.0093 70.5 46.0186 70.4997 46.0278 70.4992ZM44.4674 24.8927L27.5706 33.4383L27.5695 33.4388C27.2205 33.6142 26.9023 33.8432 26.6256 34.1163L46.1225 44.0914L65.6195 34.1162C65.3429 33.8431 65.0249 33.6142 64.6761 33.4388L64.6749 33.4383L47.7781 24.8927C47.2639 24.6343 46.6967 24.5 46.1225 24.5C45.5484 24.5 44.9817 24.6343 44.4674 24.8927ZM25.5001 36.8166C25.5005 36.15 25.6751 35.4966 26.005 34.922L45.5098 44.9012C45.5034 44.9331 45.5 44.9662 45.5 45V69.4487C45.1352 69.3871 44.7803 69.2706 44.4473 69.1021L27.5508 60.5567L27.5498 60.5562C26.9307 60.2404 26.4103 59.7557 26.0479 59.1558C25.6852 58.5555 25.4952 57.8641 25.5001 57.1598L25.5001 57.1563V36.8166ZM46.5 69.4795V45.0216L66.24 34.922C66.5699 35.4966 66.7445 36.1503 66.7449 36.8168V57.1774C66.7445 57.8806 66.5502 58.5693 66.1843 59.1661C65.8184 59.7629 65.2961 60.2438 64.6761 60.5554L64.6749 60.556L47.7769 69.1022C47.376 69.3051 46.9434 69.4325 46.5 69.4795Z" fill="url(#paint0_linear_303_559)"/>
<defs>
<linearGradient id="paint0_linear_303_559" x1="41.3867" y1="23.8316" x2="41.3867" y2="76.2165" gradientUnits="userSpaceOnUse">
<stop stop-color="#BCBCBC"/>
<stop offset="1" stop-color="#1E1E1E"/>
</linearGradient>
</defs>
</svg>
