<svg width="93" height="93" viewBox="0 0 93 93" fill="none" xmlns="http://www.w3.org/2000/svg">
<circle cx="46.5" cy="46.5" r="46" stroke="#EDEDED"/>
<path fill-rule="evenodd" clip-rule="evenodd" d="M47.5 36.3635C41.3681 36.3635 36.4 41.3511 36.4 47.4999C36.4 53.6487 41.3681 58.6363 47.5 58.6363C53.632 58.6363 58.6 53.6487 58.6 47.4999C58.6 41.3511 53.632 36.3635 47.5 36.3635ZM37.4 47.4999C37.4 41.9001 41.9236 37.3635 47.5 37.3635C53.0765 37.3635 57.6 41.9001 57.6 47.4999C57.6 53.0997 53.0765 57.6363 47.5 57.6363C41.9236 57.6363 37.4 53.0997 37.4 47.4999Z" fill="url(#paint0_linear_212_5)"/>
<path fill-rule="evenodd" clip-rule="evenodd" d="M72.6805 47.7235L72.6785 47.7275L72.673 47.7384L72.6524 47.779C72.6343 47.8143 72.6076 47.8658 72.5723 47.9326C72.5018 48.0661 72.397 48.2604 72.2585 48.5068C71.9814 48.9995 71.5688 49.701 71.0243 50.5417C69.9357 52.2222 68.3162 54.4639 66.1922 56.7074C61.9518 61.1862 55.646 65.7272 47.4999 65.7272C39.3538 65.7272 33.048 61.1862 28.8077 56.7074C26.6836 54.4639 25.0642 52.2222 23.9756 50.5417C23.431 49.701 23.0185 48.9995 22.7414 48.5068C22.6028 48.2604 22.4981 48.0661 22.4276 47.9326C22.3923 47.8658 22.3656 47.8143 22.3475 47.779L22.3268 47.7384L22.3213 47.7275L22.3191 47.723L22.7666 47.5L22.3193 47.2765L22.3198 47.2755L22.3213 47.2725L22.3268 47.2616L22.3475 47.221C22.3656 47.1857 22.3923 47.1341 22.4276 47.0674C22.4981 46.9339 22.6028 46.7396 22.7414 46.4932C23.0185 46.0004 23.431 45.299 23.9756 44.4583C25.0642 42.7778 26.6836 40.5361 28.8077 38.2926C33.048 33.8137 39.3538 29.2727 47.4999 29.2727C55.646 29.2727 61.9518 33.8137 66.1922 38.2926C68.3162 40.5361 69.9357 42.7778 71.0243 44.4583C71.5688 45.299 71.9814 46.0004 72.2585 46.4932C72.397 46.7396 72.5018 46.9339 72.5723 47.0674C72.6076 47.1341 72.6343 47.1857 72.6524 47.221L72.673 47.2616L72.6785 47.2725L72.6805 47.2765C72.7505 47.4169 72.7505 47.5831 72.6805 47.7235ZM23.613 48.0166C23.4907 47.7991 23.3963 47.6247 23.33 47.5C23.3963 47.3753 23.4907 47.2009 23.613 46.9833C23.8811 46.5066 24.2829 45.8232 24.8149 45.0019C25.8795 43.3585 27.4621 41.1684 29.5338 38.9801C33.6852 34.5953 39.746 30.2727 47.4999 30.2727C55.2538 30.2727 61.3147 34.5953 65.466 38.9801C67.5378 41.1684 69.1204 43.3585 70.185 45.0019C70.7169 45.8232 71.1187 46.5066 71.3868 46.9833C71.5092 47.2009 71.6036 47.3753 71.6698 47.5C71.6036 47.6247 71.5092 47.7991 71.3868 48.0166C71.1187 48.4933 70.7169 49.1768 70.185 49.998C69.1204 51.6414 67.5378 53.8316 65.466 56.0199C61.3147 60.4047 55.2538 64.7272 47.4999 64.7272C39.746 64.7272 33.6852 60.4047 29.5338 56.0199C27.4621 53.8316 25.8795 51.6414 24.8149 49.998C24.2829 49.1768 23.8811 48.4933 23.613 48.0166ZM72.2333 47.5C72.6808 47.277 72.6807 47.2768 72.6805 47.2765L72.2333 47.5ZM72.2333 47.5L72.6805 47.7235C72.6807 47.7232 72.6808 47.723 72.2333 47.5Z" fill="url(#paint1_linear_212_5)"/>
<path d="M22.3193 47.2765C22.3192 47.2768 22.3191 47.277 22.7666 47.5C22.3233 47.7209 22.319 47.7227 22.3191 47.723C22.2491 47.5825 22.2494 47.4169 22.3193 47.2765Z" fill="url(#paint2_linear_212_5)"/>
<defs>
<linearGradient id="paint0_linear_212_5" x1="47.4999" y1="29.7727" x2="47.4999" y2="80.4777" gradientUnits="userSpaceOnUse">
<stop stop-color="#BCBCBC"/>
<stop offset="1" stop-color="#1E1E1E"/>
</linearGradient>
<linearGradient id="paint1_linear_212_5" x1="47.4999" y1="29.7727" x2="47.4999" y2="80.4777" gradientUnits="userSpaceOnUse">
<stop stop-color="#BCBCBC"/>
<stop offset="1" stop-color="#1E1E1E"/>
</linearGradient>
<linearGradient id="paint2_linear_212_5" x1="47.4999" y1="29.7727" x2="47.4999" y2="80.4777" gradientUnits="userSpaceOnUse">
<stop stop-color="#BCBCBC"/>
<stop offset="1" stop-color="#1E1E1E"/>
</linearGradient>
</defs>
</svg>
