<svg width="93" height="93" viewBox="0 0 93 93" fill="none" xmlns="http://www.w3.org/2000/svg">
<path fill-rule="evenodd" clip-rule="evenodd" d="M46.5 92C71.629 92 92 71.629 92 46.5C92 21.371 71.629 1 46.5 1C21.371 1 1 21.371 1 46.5C1 71.629 21.371 92 46.5 92ZM46.5 93C72.1812 93 93 72.1812 93 46.5C93 20.8188 72.1812 0 46.5 0C20.8188 0 0 20.8188 0 46.5C0 72.1812 20.8188 93 46.5 93Z" fill="#EDEDED"/>
<path d="M38 46H56V45H38V46Z" fill="url(#paint0_linear_396_6)"/>
<path d="M56 51H38V50H56V51Z" fill="url(#paint1_linear_396_6)"/>
<path d="M38 56H56V55H38V56Z" fill="url(#paint2_linear_396_6)"/>
<path fill-rule="evenodd" clip-rule="evenodd" d="M30.6364 24.1001C30.3602 24.1001 30.1364 24.324 30.1364 24.6001V69.4001C30.1364 69.6762 30.3602 69.9001 30.6364 69.9001H63.3636C63.6398 69.9001 63.8636 69.6762 63.8636 69.4001V37.4001C63.8636 37.2655 63.8094 37.1367 63.7132 37.0426L50.6223 24.2426C50.5289 24.1512 50.4034 24.1001 50.2727 24.1001H30.6364ZM31.1364 68.9001V25.1001H49.7727V37.4001C49.7727 37.6762 49.9966 37.9001 50.2727 37.9001H62.8636V68.9001H31.1364ZM62.1371 36.9001L50.7727 25.7883V36.9001H62.1371Z" fill="url(#paint3_linear_396_6)"/>
<defs>
<linearGradient id="paint0_linear_396_6" x1="47" y1="24.5624" x2="47" y2="88.7405" gradientUnits="userSpaceOnUse">
<stop stop-color="#BCBCBC"/>
<stop offset="1" stop-color="#1E1E1E"/>
</linearGradient>
<linearGradient id="paint1_linear_396_6" x1="47" y1="24.5624" x2="47" y2="88.7405" gradientUnits="userSpaceOnUse">
<stop stop-color="#BCBCBC"/>
<stop offset="1" stop-color="#1E1E1E"/>
</linearGradient>
<linearGradient id="paint2_linear_396_6" x1="47" y1="24.5624" x2="47" y2="88.7405" gradientUnits="userSpaceOnUse">
<stop stop-color="#BCBCBC"/>
<stop offset="1" stop-color="#1E1E1E"/>
</linearGradient>
<linearGradient id="paint3_linear_396_6" x1="47" y1="24.5624" x2="47" y2="88.7405" gradientUnits="userSpaceOnUse">
<stop stop-color="#BCBCBC"/>
<stop offset="1" stop-color="#1E1E1E"/>
</linearGradient>
</defs>
</svg>
