<svg width="93" height="93" viewBox="0 0 93 93" fill="none" xmlns="http://www.w3.org/2000/svg">
<circle cx="46.5" cy="46.5" r="46" stroke="#EDEDED"/>
<path fill-rule="evenodd" clip-rule="evenodd" d="M47.4999 36.3635C41.3679 36.3635 36.3999 41.3511 36.3999 47.4999C36.3999 53.6487 41.3679 58.6363 47.4999 58.6363C53.6319 58.6363 58.5999 53.6487 58.5999 47.4999C58.5999 41.3511 53.6319 36.3635 47.4999 36.3635ZM37.3999 47.4999C37.3999 41.9001 41.9234 37.3635 47.4999 37.3635C53.0764 37.3635 57.5999 41.9001 57.5999 47.4999C57.5999 53.0997 53.0764 57.6363 47.4999 57.6363C41.9234 57.6363 37.3999 53.0997 37.3999 47.4999Z" fill="url(#paint0_linear_382_454)"/>
<path fill-rule="evenodd" clip-rule="evenodd" d="M72.6804 47.7235L72.6784 47.7275L72.6729 47.7384L72.6522 47.779C72.6341 47.8143 72.6074 47.8658 72.5722 47.9326C72.5017 48.0661 72.3969 48.2604 72.2583 48.5068C71.9813 48.9995 71.5687 49.701 71.0241 50.5417C69.9356 52.2222 68.3161 54.4639 66.1921 56.7074C61.9517 61.1862 55.6459 65.7272 47.4998 65.7272C39.3537 65.7272 33.0479 61.1862 28.8076 56.7074C26.6835 54.4639 25.064 52.2222 23.9755 50.5417C23.4309 49.701 23.0184 48.9995 22.7413 48.5068C22.6027 48.2604 22.498 48.0661 22.4274 47.9326C22.3922 47.8658 22.3655 47.8143 22.3474 47.779L22.3267 47.7384L22.3212 47.7275L22.319 47.723L22.7665 47.5L22.3192 47.2765L22.3197 47.2755L22.3212 47.2725L22.3267 47.2616L22.3474 47.221C22.3655 47.1857 22.3922 47.1341 22.4274 47.0674C22.498 46.9339 22.6027 46.7396 22.7413 46.4932C23.0184 46.0004 23.4309 45.299 23.9755 44.4583C25.064 42.7778 26.6835 40.5361 28.8076 38.2926C33.0479 33.8137 39.3537 29.2727 47.4998 29.2727C55.6459 29.2727 61.9517 33.8137 66.1921 38.2926C68.3161 40.5361 69.9356 42.7778 71.0241 44.4583C71.5687 45.299 71.9813 46.0004 72.2583 46.4932C72.3969 46.7396 72.5017 46.9339 72.5722 47.0674C72.6074 47.1341 72.6341 47.1857 72.6522 47.221L72.6729 47.2616L72.6784 47.2725L72.6804 47.2765C72.7504 47.4169 72.7504 47.5831 72.6804 47.7235ZM23.6129 48.0166C23.4906 47.7991 23.3961 47.6247 23.3299 47.5C23.3961 47.3753 23.4906 47.2009 23.6129 46.9833C23.881 46.5066 24.2828 45.8232 24.8148 45.0019C25.8793 43.3585 27.4619 41.1684 29.5337 38.9801C33.685 34.5953 39.7459 30.2727 47.4998 30.2727C55.2537 30.2727 61.3146 34.5953 65.4659 38.9801C67.5377 41.1684 69.1203 43.3585 70.1848 45.0019C70.7168 45.8232 71.1186 46.5066 71.3867 46.9833C71.509 47.2009 71.6035 47.3753 71.6697 47.5C71.6035 47.6247 71.509 47.7991 71.3867 48.0166C71.1186 48.4933 70.7168 49.1768 70.1848 49.998C69.1203 51.6414 67.5377 53.8316 65.4659 56.0199C61.3146 60.4047 55.2537 64.7272 47.4998 64.7272C39.7459 64.7272 33.685 60.4047 29.5337 56.0199C27.4619 53.8316 25.8793 51.6414 24.8148 49.998C24.2828 49.1768 23.881 48.4933 23.6129 48.0166ZM72.2331 47.5C72.6807 47.277 72.6805 47.2768 72.6804 47.2765L72.2331 47.5ZM72.2331 47.5L72.6804 47.7235C72.6805 47.7232 72.6807 47.723 72.2331 47.5Z" fill="url(#paint1_linear_382_454)"/>
<path d="M22.3192 47.2765C22.3191 47.2768 22.319 47.277 22.7665 47.5C22.3231 47.7209 22.3189 47.7227 22.319 47.723C22.249 47.5825 22.2492 47.4169 22.3192 47.2765Z" fill="url(#paint2_linear_382_454)"/>
<defs>
<linearGradient id="paint0_linear_382_454" x1="47.4998" y1="29.7727" x2="47.4998" y2="80.4777" gradientUnits="userSpaceOnUse">
<stop stop-color="#BCBCBC"/>
<stop offset="1" stop-color="#1E1E1E"/>
</linearGradient>
<linearGradient id="paint1_linear_382_454" x1="47.4998" y1="29.7727" x2="47.4998" y2="80.4777" gradientUnits="userSpaceOnUse">
<stop stop-color="#BCBCBC"/>
<stop offset="1" stop-color="#1E1E1E"/>
</linearGradient>
<linearGradient id="paint2_linear_382_454" x1="47.4998" y1="29.7727" x2="47.4998" y2="80.4777" gradientUnits="userSpaceOnUse">
<stop stop-color="#BCBCBC"/>
<stop offset="1" stop-color="#1E1E1E"/>
</linearGradient>
</defs>
</svg>
