<svg width="107" height="30" viewBox="0 0 107 30" fill="none" xmlns="http://www.w3.org/2000/svg">
<path d="M5.4673 0.105188C3.29305 1.01122 0.90283 3.57089 0.14792 6.78383C-0.808115 10.8547 3.17039 12.5762 3.49671 12.0118C3.88078 11.3485 2.78381 11.1242 2.55801 9.01206C2.26617 6.28401 3.54014 3.23571 5.14348 1.89821C5.44151 1.64971 5.42733 1.99558 5.42733 2.63532C5.42733 3.77933 5.36383 14.0492 5.36383 16.1925C5.36383 19.0927 5.24351 20.0085 5.0274 20.9135C4.80844 21.8305 4.45642 22.4502 4.72316 22.6889C5.02118 22.9559 6.29361 22.3208 7.03024 21.2973C7.91356 20.0698 8.22276 18.5956 8.27828 16.9946C8.34533 15.0647 8.34247 12.0024 8.34533 10.2556C8.34801 8.65362 8.37244 3.96255 8.31712 1.14246C8.30356 0.450744 6.37658 -0.274965 5.46719 0.104347L5.4673 0.105188ZM82.6747 13.6779C82.6046 15.1856 82.2693 16.3641 81.8533 17.1954C81.0478 18.8046 79.3763 19.3043 78.6666 16.9909C78.2799 15.7299 78.2618 13.6239 78.5399 11.8641C78.8229 10.0715 79.6132 8.71758 80.9219 8.83968C82.2127 8.96038 82.8168 10.6162 82.6747 13.6778V13.6779ZM60.9144 23.0322C60.8969 25.5374 60.5009 27.734 59.6516 28.3719C58.447 29.2766 56.8279 28.598 57.1632 26.7699C57.4598 25.1523 58.8627 23.5002 60.9179 21.4817C60.9179 21.4817 60.9221 21.942 60.9145 23.0322H60.9144ZM60.5854 13.6633C60.5118 15.0365 60.1542 16.4161 59.764 17.1955C58.9587 18.8048 57.2751 19.3079 56.5774 16.9911C56.1004 15.4082 56.2146 13.3595 56.4506 12.0687C56.7569 10.3938 57.4993 8.84004 58.8326 8.84004C60.129 8.84004 60.7682 10.2559 60.5854 13.6634V13.6633ZM47.9797 13.6423C47.9007 15.0967 47.6157 16.3125 47.1583 17.1955C46.3308 18.7937 44.6937 19.3006 43.9717 16.9911C43.4512 15.3258 43.6284 13.0551 43.8449 11.8285C44.1662 10.0083 44.9708 8.71776 46.2269 8.84004C47.5171 8.96553 48.1444 10.6163 47.9797 13.6424V13.6423ZM105.749 15.3411C105.434 15.3411 105.29 15.6647 105.171 16.2095C104.758 18.1038 104.323 18.5316 103.764 18.5316C103.138 18.5316 102.576 17.5936 102.432 15.7159C102.318 14.2395 102.336 11.5213 102.482 8.81745C102.511 8.26191 102.357 7.71224 100.861 7.17094C100.216 6.9381 99.2802 6.59527 98.8141 7.71545C97.4971 10.8801 96.9817 13.3926 96.8605 14.4133C96.8542 14.4661 96.7892 14.4769 96.7777 14.3535C96.7005 13.536 96.5278 12.0505 96.5063 8.92943C96.5022 8.32047 96.3726 7.80213 95.6974 7.37777C95.2593 7.10241 93.929 6.61539 93.45 7.19478C93.035 7.66863 92.5544 8.94383 92.055 10.4554C91.6491 11.684 91.3665 12.5151 91.3665 12.5151C91.3665 12.5151 91.3718 9.20016 91.3766 7.94275C91.3788 7.46838 91.0519 7.31031 90.9534 7.28166C90.5098 7.15348 89.6358 6.93936 89.2648 6.93936C88.8071 6.93936 88.695 7.19408 88.695 7.56521C88.695 7.61381 88.6227 11.9297 88.6227 14.9475C88.6227 15.0786 88.6227 15.2216 88.6241 15.3735C88.3709 16.7606 87.5498 18.6434 86.6569 18.6434C85.7629 18.6434 85.3411 17.8563 85.3411 14.2585C85.3411 12.1597 85.4044 11.2471 85.4355 9.72908C85.4535 8.85473 85.4884 8.1833 85.4865 8.03093C85.4799 7.56368 84.6683 7.32818 84.2906 7.24114C83.9112 7.15338 83.5815 7.11938 83.324 7.13398C82.9596 7.15444 82.7018 7.39244 82.7018 7.71979C82.7018 7.89529 82.7038 8.22905 82.7038 8.22905C82.2344 7.49479 81.4795 6.98374 80.9773 6.83565C79.6245 6.43568 78.2128 6.79008 77.1481 8.27338C76.3018 9.45193 75.7917 10.7868 75.5909 12.7046C75.4441 14.1066 75.492 15.5284 75.7529 16.7308C75.4376 18.0876 74.8524 18.6434 74.2116 18.6434C73.2813 18.6434 72.6068 17.1317 72.6852 14.5173C72.7368 12.7977 73.0825 11.591 73.4603 9.84513C73.6214 9.1009 73.4905 8.71125 73.1622 8.3378C72.8611 7.99533 72.2196 7.82036 71.2973 8.03556C70.6404 8.189 69.7011 8.354 68.8418 8.48075C68.8418 8.48075 68.8937 8.27479 68.9362 7.91168C69.1597 6.00741 67.0811 6.16191 66.418 6.77014C66.0221 7.13327 65.7526 7.56154 65.6504 8.33158C65.4882 9.55357 66.4893 10.1299 66.4893 10.1299C66.1608 11.6268 65.3557 13.5821 64.5244 14.9958C64.0792 15.7532 63.7386 16.3145 63.2989 16.9111C63.2973 16.6889 63.2961 16.4668 63.2953 16.2457C63.2852 13.0988 63.3273 10.6221 63.3459 9.72937C63.364 8.85504 63.3992 8.20141 63.3972 8.04904C63.3922 7.70727 63.1918 7.57822 62.7748 7.41481C62.4061 7.27028 61.9702 7.17024 61.518 7.13535C60.9473 7.09103 60.6034 7.39239 60.6124 7.74875C60.6141 7.81603 60.6141 8.22918 60.6141 8.22918C60.1447 7.49491 59.3898 6.98388 58.8876 6.83577C57.5348 6.43598 56.1231 6.79038 55.0583 8.2735C54.2123 9.45205 53.6581 11.1059 53.5012 12.6901C53.3549 14.1666 53.3819 15.4214 53.5813 16.4783C53.3662 17.5367 52.7477 18.6436 52.0484 18.6436C51.1544 18.6436 50.6457 17.8564 50.6457 14.2587C50.6457 12.1598 50.709 11.2472 50.7401 9.72937C50.7582 8.85504 50.793 8.18343 50.7911 8.03124C50.7845 7.56399 49.9728 7.32849 49.5952 7.24127C49.2001 7.15031 48.8589 7.11684 48.597 7.13606C48.2513 7.1617 48.0084 7.46982 48.0084 7.69962V8.22918C47.539 7.49491 46.7841 6.98388 46.2818 6.83577C44.929 6.43598 43.5252 6.79608 42.4526 8.2735C41.7531 9.23685 41.1869 10.3049 40.8954 12.6691C40.8112 13.3523 40.774 13.9921 40.7788 14.5901C40.4999 16.2883 39.268 18.2455 38.2602 18.2455C37.6705 18.2455 37.1089 17.1069 37.1089 14.6802C37.1089 11.4476 37.3099 6.84521 37.3439 6.40163C37.3439 6.40163 38.6171 6.38009 38.8637 6.37724C39.4988 6.37029 40.074 6.38525 40.9199 6.34217C41.3442 6.32063 41.7529 4.80476 41.3151 4.61716C41.1166 4.53225 39.7139 4.45785 39.1578 4.4461C38.6903 4.43555 37.3886 4.33965 37.3886 4.33965C37.3886 4.33965 37.5053 1.28477 37.5325 0.96206C37.5556 0.693096 37.206 0.554614 37.0056 0.470586C36.5182 0.265354 36.0821 0.167091 35.5651 0.0610035C34.851 -0.085663 34.527 0.0577992 34.4637 0.657845C34.3684 1.56851 34.3191 4.23587 34.3191 4.23587C33.795 4.23587 32.0048 4.13388 31.4806 4.13388C30.9935 4.13388 30.4678 6.21918 31.1412 6.2448C31.916 6.27471 33.2661 6.30052 34.1612 6.3274C34.1612 6.3274 34.1213 11.0057 34.1213 12.45C34.1213 12.6036 34.1227 12.7516 34.1229 12.8952C33.6303 15.4513 31.8952 16.8321 31.8952 16.8321C32.2678 15.141 31.5067 13.8712 30.1356 12.7962C29.6305 12.4001 28.6333 11.6502 27.5176 10.8284C27.5176 10.8284 28.1638 10.1944 28.7369 8.9188C29.1429 8.01526 29.1604 6.98123 28.1638 6.75322C26.517 6.37621 25.1592 7.58021 24.7542 8.86557C24.4404 9.86131 24.6078 10.6002 25.2225 11.3677C25.2674 11.4238 25.316 11.4811 25.3663 11.5388C24.9945 12.2521 24.4839 13.2124 24.0513 13.9571C22.8509 16.0248 21.944 17.6603 21.2586 17.6603C20.7108 17.6603 20.7181 15.9999 20.7181 14.4452C20.7181 13.105 20.8175 11.0901 20.8969 9.00388C20.9232 8.31394 20.5767 7.92091 19.9957 7.56491C19.6428 7.34863 18.8895 6.92339 18.4532 6.92339C17.8002 6.92339 15.9162 7.01185 14.136 12.1381C13.9117 12.7843 13.471 13.9616 13.471 13.9616L13.5089 7.79702C13.5089 7.65249 13.4316 7.51275 13.2545 7.41716C12.9545 7.255 12.1533 6.92339 11.4409 6.92339C11.1015 6.92339 10.9321 7.08056 10.9321 7.39385L10.87 17.0384C10.87 17.7712 10.8892 18.6261 10.9619 19C11.0344 19.3743 11.1519 19.6789 11.2974 19.8601C11.4427 20.0409 11.6107 20.1789 11.8878 20.2358C12.1457 20.2887 13.5577 20.4692 13.6311 19.932C13.719 19.2882 13.7224 18.5918 14.4639 15.9947C15.6182 11.9514 17.1232 9.97862 17.8307 9.278C17.9544 9.15554 18.0957 9.14824 18.0889 9.34866C18.0587 10.2351 17.9525 12.4502 17.881 14.332C17.6893 19.3681 18.6096 20.3015 19.9247 20.3015C20.9308 20.3015 22.3491 19.3063 23.8694 16.787C24.8172 15.2171 25.7375 13.6777 26.3987 12.5682C26.8595 12.9928 27.3766 13.4499 27.8934 13.9381C29.0942 15.0727 29.4885 16.1509 29.2269 17.1737C29.0268 17.9556 28.2733 18.7614 26.9323 17.9781C26.5414 17.7497 26.3746 17.5731 25.9816 17.3155C25.7704 17.1771 25.448 17.1358 25.2548 17.2807C24.7527 17.6576 24.4655 18.137 24.3016 18.7304C24.1421 19.3079 24.723 19.6131 25.3252 19.8801C25.8437 20.1099 26.9582 20.3182 27.669 20.3419C30.4382 20.4341 32.6567 19.0108 34.201 15.3393C34.4774 18.5101 35.6539 20.3043 37.698 20.3043C39.0646 20.3043 40.4347 18.5458 41.0339 16.8158C41.2059 17.521 41.4605 18.1343 41.7893 18.6528C43.3644 21.1372 46.42 20.6025 47.9548 18.4928C48.4293 17.841 48.5016 17.6067 48.5016 17.6067C48.7254 19.5987 50.3368 20.2947 51.2594 20.2947C52.2927 20.2947 53.3596 19.8084 54.1074 18.1325C54.195 18.3144 54.2907 18.4881 54.3951 18.6528C55.9702 21.1372 59.0257 20.6024 60.5605 18.4928C60.633 18.3938 60.6957 18.3041 60.7506 18.2235L60.7957 19.5319C60.7957 19.5319 59.9201 20.3316 59.3826 20.8221C57.017 22.9827 55.2183 24.6219 55.086 26.5308C54.9161 28.9648 56.899 29.8694 58.3992 29.988C59.9923 30.1138 61.3566 29.2377 62.1952 28.0116C62.9327 26.9324 63.4155 24.6096 63.3801 22.3155C63.366 21.3969 63.3427 20.2288 63.3245 18.9768C64.1559 18.0156 65.0926 16.8007 65.9552 15.3786C66.8952 13.8289 67.9025 11.7477 68.4184 10.1281C68.4184 10.1281 69.2936 10.1356 70.2277 10.0747C70.5265 10.0553 70.6123 10.116 70.557 10.334C70.4903 10.5975 69.3769 14.8727 70.3931 17.7208C71.0886 19.6704 72.6565 20.2977 73.5861 20.2977C74.6743 20.2977 75.7153 19.4796 76.2732 18.2648C76.3404 18.4002 76.4107 18.5312 76.4874 18.6522C78.0624 21.1366 81.1073 20.5987 82.6528 18.4923C83.0017 18.017 83.1996 17.6061 83.1996 17.6061C83.5313 19.6678 85.1418 20.3046 86.0642 20.3046C87.0251 20.3046 87.937 19.9125 88.6769 18.1697C88.7078 18.937 88.7564 19.5645 88.8333 19.7623C88.8802 19.8833 89.1532 20.0352 89.3518 20.1085C90.2308 20.433 91.1273 20.2796 91.459 20.2128C91.6888 20.1665 91.8679 19.983 91.8924 19.5092C91.9568 18.2649 91.9173 16.1745 92.2962 14.6209C92.9322 12.0135 93.5254 11.0021 93.8069 10.5014C93.9644 10.2208 94.1421 10.1745 94.1486 10.4715C94.1618 11.0722 94.1918 12.8364 94.4382 15.2067C94.6192 16.9499 94.8609 17.9803 95.0467 18.3064C95.5768 19.239 96.2316 19.2831 96.7648 19.2831C97.104 19.2831 97.8133 19.1898 97.7498 18.5964C97.7189 18.3071 97.7731 16.5194 98.4001 13.9507C98.8096 12.2732 99.4923 10.7575 99.7385 10.2034C99.8293 9.99902 99.8715 10.1601 99.8701 10.1915C99.8182 11.3467 99.7018 15.1254 100.175 17.192C100.815 19.9916 102.669 20.3049 103.315 20.3049C104.694 20.3049 105.822 19.2605 106.202 16.5125C106.294 15.8512 106.158 15.3406 105.752 15.3406" fill="#FF2CAB"/>
</svg>
