<svg width="21" height="21" viewBox="0 0 21 21" fill="none" xmlns="http://www.w3.org/2000/svg">
<g id="Group 296">
<g id="Group 13">
<path id="Oval" fill-rule="evenodd" clip-rule="evenodd" d="M10.5 20C15.7467 20 20 15.7467 20 10.5C20 5.25329 15.7467 1 10.5 1C5.25329 1 1 5.25329 1 10.5C1 15.7467 5.25329 20 10.5 20Z" fill="url(#paint0_linear_756_13)" stroke="#9B6E3D" stroke-opacity="0.542914"/>
<path id="$" d="M11.3971 16.9796V15.2565C11.9951 15.1317 12.4534 14.9488 12.7717 14.7079C13.0901 14.4669 13.3504 14.14 13.5526 13.7269C13.7549 13.3139 13.856 12.8643 13.856 12.3781C13.856 11.8919 13.7613 11.453 13.572 11.0615C13.3827 10.67 13.1116 10.3344 12.7588 10.0547C12.406 9.77503 11.752 9.43728 10.7969 9.04145C10.2591 8.82202 9.90195 8.6155 9.72554 8.42189C9.54484 8.23257 9.45448 8.04111 9.45448 7.8475C9.45448 7.61946 9.55667 7.41832 9.76104 7.24407C9.96541 7.06981 10.2311 6.98269 10.5581 6.98269C11.1131 6.98269 11.6746 7.27526 12.2425 7.8604V7.8604L13.4881 6.64709C13.0923 6.24695 12.7492 5.96299 12.4587 5.79519C12.1683 5.62739 11.8144 5.49401 11.3971 5.39505V5.39505V4.66577H10.1838V5.31115C9.46094 5.34557 8.86289 5.59404 8.38961 6.05657C7.91633 6.51909 7.67969 7.07519 7.67969 7.72487C7.67969 8.11641 7.76897 8.48535 7.94752 8.8317C8.12608 9.17806 8.39606 9.48999 8.75747 9.7675C9.11889 10.045 9.81159 10.4204 10.8356 10.8937C11.339 11.126 11.6789 11.3541 11.8553 11.5778C12.0274 11.8015 12.1135 12.0618 12.1135 12.3587C12.1135 12.7115 11.979 13.0181 11.7101 13.2784C11.4412 13.5387 11.1196 13.6688 10.7452 13.6688C10.0095 13.6688 9.24796 13.2493 8.4606 12.4103V12.4103L7.23438 13.6688C7.69905 14.1679 8.20245 14.5681 8.74457 14.8692C9.1404 15.0887 9.62013 15.2306 10.1838 15.2952V15.2952V16.9796H11.3971Z" fill="#815523"/>
</g>
</g>
<defs>
<linearGradient id="paint0_linear_756_13" x1="1" y1="1" x2="1" y2="20" gradientUnits="userSpaceOnUse">
<stop stop-color="#FFFACF"/>
<stop offset="0.976167" stop-color="#F1CC33"/>
</linearGradient>
</defs>
</svg>
