<svg width="36" height="21" viewBox="0 0 36 21" fill="none" xmlns="http://www.w3.org/2000/svg">
<g id="Group 15">
<g id="Group 13">
<path id="Oval" fill-rule="evenodd" clip-rule="evenodd" d="M10.5 20C15.7467 20 20 15.7467 20 10.5C20 5.25329 15.7467 1 10.5 1C5.25329 1 1 5.25329 1 10.5C1 15.7467 5.25329 20 10.5 20Z" fill="url(#paint0_linear_756_3)" stroke="#9B6E3D" stroke-opacity="0.542914"/>
<path id="$" d="M11.3971 16.9796V15.2565C11.9951 15.1317 12.4534 14.9488 12.7717 14.7079C13.0901 14.4669 13.3504 14.14 13.5526 13.7269C13.7549 13.3139 13.856 12.8643 13.856 12.3781C13.856 11.8919 13.7613 11.453 13.572 11.0615C13.3827 10.67 13.1116 10.3344 12.7588 10.0547C12.406 9.77503 11.752 9.43728 10.7969 9.04145C10.2591 8.82202 9.90195 8.6155 9.72554 8.42189C9.54484 8.23257 9.45448 8.04111 9.45448 7.8475C9.45448 7.61946 9.55667 7.41832 9.76104 7.24407C9.96541 7.06981 10.2311 6.98269 10.5581 6.98269C11.1131 6.98269 11.6746 7.27526 12.2425 7.8604V7.8604L13.4881 6.64709C13.0923 6.24695 12.7492 5.96299 12.4587 5.79519C12.1683 5.62739 11.8144 5.49401 11.3971 5.39505V5.39505V4.66577H10.1838V5.31115C9.46094 5.34557 8.86289 5.59404 8.38961 6.05657C7.91633 6.51909 7.67969 7.07519 7.67969 7.72487C7.67969 8.11641 7.76897 8.48535 7.94752 8.8317C8.12608 9.17806 8.39606 9.48999 8.75747 9.7675C9.11889 10.045 9.81159 10.4204 10.8356 10.8937C11.339 11.126 11.6789 11.3541 11.8553 11.5778C12.0274 11.8015 12.1135 12.0618 12.1135 12.3587C12.1135 12.7115 11.979 13.0181 11.7101 13.2784C11.4412 13.5387 11.1196 13.6688 10.7452 13.6688C10.0095 13.6688 9.24796 13.2493 8.4606 12.4103V12.4103L7.23438 13.6688C7.69905 14.1679 8.20245 14.5681 8.74457 14.8692C9.1404 15.0887 9.62013 15.2306 10.1838 15.2952V15.2952V16.9796H11.3971Z" fill="#815523"/>
</g>
<g id="Group 13_2">
<path id="Oval_2" fill-rule="evenodd" clip-rule="evenodd" d="M25.3691 20C30.6158 20 34.8691 15.7467 34.8691 10.5C34.8691 5.25329 30.6158 1 25.3691 1C20.1224 1 15.8691 5.25329 15.8691 10.5C15.8691 15.7467 20.1224 20 25.3691 20Z" fill="url(#paint1_linear_756_3)" stroke="#9B6E3D" stroke-opacity="0.542914"/>
<path id="$_2" d="M26.2662 16.9796V15.2565C26.8643 15.1317 27.3225 14.9488 27.6409 14.7079C27.9593 14.4669 28.2196 14.14 28.4218 13.7269C28.624 13.3139 28.7251 12.8643 28.7251 12.3781C28.7251 11.8919 28.6305 11.453 28.4412 11.0615C28.2518 10.67 27.9808 10.3344 27.628 10.0547C27.2752 9.77503 26.6212 9.43728 25.666 9.04145C25.1282 8.82202 24.7711 8.6155 24.5947 8.42189C24.414 8.23257 24.3236 8.04111 24.3236 7.8475C24.3236 7.61946 24.4258 7.41832 24.6302 7.24407C24.8346 7.06981 25.1002 6.98269 25.4272 6.98269C25.9823 6.98269 26.5437 7.27526 27.1117 7.8604V7.8604L28.3573 6.64709C27.9614 6.24695 27.6183 5.96299 27.3279 5.79519C27.0374 5.62739 26.6836 5.49401 26.2662 5.39505V5.39505V4.66577H25.0529V5.31115C24.3301 5.34557 23.732 5.59404 23.2587 6.05657C22.7855 6.51909 22.5488 7.07519 22.5488 7.72487C22.5488 8.11641 22.6381 8.48535 22.8167 8.8317C22.9952 9.17806 23.2652 9.48999 23.6266 9.7675C23.988 10.045 24.6807 10.4204 25.7047 10.8937C26.2081 11.126 26.548 11.3541 26.7244 11.5778C26.8965 11.8015 26.9826 12.0618 26.9826 12.3587C26.9826 12.7115 26.8481 13.0181 26.5792 13.2784C26.3103 13.5387 25.9887 13.6688 25.6144 13.6688C24.8787 13.6688 24.1171 13.2493 23.3297 12.4103V12.4103L22.1035 13.6688C22.5682 14.1679 23.0716 14.5681 23.6137 14.8692C24.0095 15.0887 24.4893 15.2306 25.0529 15.2952V15.2952V16.9796H26.2662Z" fill="#815523"/>
</g>
</g>
<defs>
<linearGradient id="paint0_linear_756_3" x1="1" y1="1" x2="1" y2="20" gradientUnits="userSpaceOnUse">
<stop stop-color="#FFFACF"/>
<stop offset="0.976167" stop-color="#F1CC33"/>
</linearGradient>
<linearGradient id="paint1_linear_756_3" x1="15.8691" y1="1" x2="15.8691" y2="20" gradientUnits="userSpaceOnUse">
<stop stop-color="#FFFACF"/>
<stop offset="0.976167" stop-color="#F1CC33"/>
</linearGradient>
</defs>
</svg>
