<svg width="51" height="21" viewBox="0 0 51 21" fill="none" xmlns="http://www.w3.org/2000/svg">
<g id="Group 15">
<g id="Group 13">
<path id="Oval" fill-rule="evenodd" clip-rule="evenodd" d="M10.5 20C15.7467 20 20 15.7467 20 10.5C20 5.25329 15.7467 1 10.5 1C5.25329 1 1 5.25329 1 10.5C1 15.7467 5.25329 20 10.5 20Z" fill="url(#paint0_linear_748_51)" stroke="#9B6E3D" stroke-opacity="0.542914"/>
<path id="$" d="M11.3971 16.9796V15.2565C11.9951 15.1317 12.4534 14.9488 12.7717 14.7079C13.0901 14.4669 13.3504 14.14 13.5526 13.7269C13.7549 13.3139 13.856 12.8643 13.856 12.3781C13.856 11.8919 13.7613 11.453 13.572 11.0615C13.3827 10.67 13.1116 10.3344 12.7588 10.0547C12.406 9.77503 11.752 9.43728 10.7969 9.04145C10.2591 8.82202 9.90195 8.6155 9.72554 8.42189C9.54484 8.23257 9.45448 8.04111 9.45448 7.8475C9.45448 7.61946 9.55667 7.41832 9.76104 7.24407C9.96541 7.06981 10.2311 6.98269 10.5581 6.98269C11.1131 6.98269 11.6746 7.27526 12.2425 7.8604V7.8604L13.4881 6.64709C13.0923 6.24695 12.7492 5.96299 12.4587 5.79519C12.1683 5.62739 11.8144 5.49401 11.3971 5.39505V5.39505V4.66577H10.1838V5.31115C9.46094 5.34557 8.86289 5.59404 8.38961 6.05657C7.91633 6.51909 7.67969 7.07519 7.67969 7.72487C7.67969 8.11641 7.76897 8.48535 7.94752 8.8317C8.12608 9.17806 8.39606 9.48999 8.75747 9.7675C9.11889 10.045 9.81159 10.4204 10.8356 10.8937C11.339 11.126 11.6789 11.3541 11.8553 11.5778C12.0274 11.8015 12.1135 12.0618 12.1135 12.3587C12.1135 12.7115 11.979 13.0181 11.7101 13.2784C11.4412 13.5387 11.1196 13.6688 10.7452 13.6688C10.0095 13.6688 9.24796 13.2493 8.4606 12.4103V12.4103L7.23438 13.6688C7.69905 14.1679 8.20245 14.5681 8.74457 14.8692C9.1404 15.0887 9.62013 15.2306 10.1838 15.2952V15.2952V16.9796H11.3971Z" fill="#815523"/>
</g>
<g id="Group 13_2">
<path id="Oval_2" fill-rule="evenodd" clip-rule="evenodd" d="M25.3691 20C30.6158 20 34.8691 15.7467 34.8691 10.5C34.8691 5.25329 30.6158 1 25.3691 1C20.1224 1 15.8691 5.25329 15.8691 10.5C15.8691 15.7467 20.1224 20 25.3691 20Z" fill="url(#paint1_linear_748_51)" stroke="#9B6E3D" stroke-opacity="0.542914"/>
<path id="$_2" d="M26.2662 16.9796V15.2565C26.8643 15.1317 27.3225 14.9488 27.6409 14.7079C27.9593 14.4669 28.2196 14.14 28.4218 13.7269C28.624 13.3139 28.7251 12.8643 28.7251 12.3781C28.7251 11.8919 28.6305 11.453 28.4412 11.0615C28.2518 10.67 27.9808 10.3344 27.628 10.0547C27.2752 9.77503 26.6212 9.43728 25.666 9.04145C25.1282 8.82202 24.7711 8.6155 24.5947 8.42189C24.414 8.23257 24.3236 8.04111 24.3236 7.8475C24.3236 7.61946 24.4258 7.41832 24.6302 7.24407C24.8346 7.06981 25.1002 6.98269 25.4272 6.98269C25.9823 6.98269 26.5437 7.27526 27.1117 7.8604V7.8604L28.3573 6.64709C27.9614 6.24695 27.6183 5.96299 27.3279 5.79519C27.0374 5.62739 26.6836 5.49401 26.2662 5.39505V5.39505V4.66577H25.0529V5.31115C24.3301 5.34557 23.732 5.59404 23.2587 6.05657C22.7855 6.51909 22.5488 7.07519 22.5488 7.72487C22.5488 8.11641 22.6381 8.48535 22.8167 8.8317C22.9952 9.17806 23.2652 9.48999 23.6266 9.7675C23.988 10.045 24.6807 10.4204 25.7047 10.8937C26.2081 11.126 26.548 11.3541 26.7244 11.5778C26.8965 11.8015 26.9826 12.0618 26.9826 12.3587C26.9826 12.7115 26.8481 13.0181 26.5792 13.2784C26.3103 13.5387 25.9887 13.6688 25.6144 13.6688C24.8787 13.6688 24.1171 13.2493 23.3297 12.4103V12.4103L22.1035 13.6688C22.5682 14.1679 23.0716 14.5681 23.6137 14.8692C24.0095 15.0887 24.4893 15.2306 25.0529 15.2952V15.2952V16.9796H26.2662Z" fill="#815523"/>
</g>
<g id="Group 13_3">
<path id="Oval_3" fill-rule="evenodd" clip-rule="evenodd" d="M40.2383 20C45.485 20 49.7383 15.7467 49.7383 10.5C49.7383 5.25329 45.485 1 40.2383 1C34.9916 1 30.7383 5.25329 30.7383 10.5C30.7383 15.7467 34.9916 20 40.2383 20Z" fill="url(#paint2_linear_748_51)" stroke="#9B6E3D" stroke-opacity="0.542914"/>
<path id="$_3" d="M41.1354 16.9796V15.2565C41.7334 15.1317 42.1916 14.9488 42.51 14.7079C42.8284 14.4669 43.0887 14.14 43.2909 13.7269C43.4932 13.3139 43.5943 12.8643 43.5943 12.3781C43.5943 11.8919 43.4996 11.453 43.3103 11.0615C43.121 10.67 42.8499 10.3344 42.4971 10.0547C42.1443 9.77503 41.4903 9.43728 40.5352 9.04145C39.9973 8.82202 39.6402 8.6155 39.4638 8.42189C39.2831 8.23257 39.1928 8.04111 39.1928 7.8475C39.1928 7.61946 39.295 7.41832 39.4993 7.24407C39.7037 7.06981 39.9694 6.98269 40.2964 6.98269C40.8514 6.98269 41.4129 7.27526 41.9808 7.8604V7.8604L43.2264 6.64709C42.8306 6.24695 42.4874 5.96299 42.197 5.79519C41.9066 5.62739 41.5527 5.49401 41.1354 5.39505V5.39505V4.66577H39.922V5.31115C39.1992 5.34557 38.6012 5.59404 38.1279 6.05657C37.6546 6.51909 37.418 7.07519 37.418 7.72487C37.418 8.11641 37.5072 8.48535 37.6858 8.8317C37.8644 9.17806 38.1343 9.48999 38.4958 9.7675C38.8572 10.045 39.5499 10.4204 40.5739 10.8937C41.0773 11.126 41.4172 11.3541 41.5936 11.5778C41.7657 11.8015 41.8517 12.0618 41.8517 12.3587C41.8517 12.7115 41.7173 13.0181 41.4484 13.2784C41.1795 13.5387 40.8578 13.6688 40.4835 13.6688C39.7478 13.6688 38.9862 13.2493 38.1989 12.4103V12.4103L36.9727 13.6688C37.4373 14.1679 37.9407 14.5681 38.4828 14.8692C38.8787 15.0887 39.3584 15.2306 39.922 15.2952V15.2952V16.9796H41.1354Z" fill="#815523"/>
</g>
</g>
<defs>
<linearGradient id="paint0_linear_748_51" x1="1" y1="1" x2="1" y2="20" gradientUnits="userSpaceOnUse">
<stop stop-color="#FFFACF"/>
<stop offset="0.976167" stop-color="#F1CC33"/>
</linearGradient>
<linearGradient id="paint1_linear_748_51" x1="15.8691" y1="1" x2="15.8691" y2="20" gradientUnits="userSpaceOnUse">
<stop stop-color="#FFFACF"/>
<stop offset="0.976167" stop-color="#F1CC33"/>
</linearGradient>
<linearGradient id="paint2_linear_748_51" x1="30.7383" y1="1" x2="30.7383" y2="20" gradientUnits="userSpaceOnUse">
<stop stop-color="#FFFACF"/>
<stop offset="0.976167" stop-color="#F1CC33"/>
</linearGradient>
</defs>
</svg>
