<svg width="20" height="12" viewBox="0 0 20 12" fill="none" xmlns="http://www.w3.org/2000/svg">
<path fill-rule="evenodd" clip-rule="evenodd" d="M16.5566 9.38515C18.206 8.39549 19 7.16759 19 6C19 4.83241 18.206 3.60451 16.5566 2.61485C14.9271 1.63714 12.6113 1 10 1C7.38866 1 5.07295 1.63714 3.44343 2.61485C1.794 3.60451 1 4.83241 1 6C1 7.16759 1.794 8.39549 3.44343 9.38515C5.07295 10.3629 7.38866 11 10 11C12.6113 11 14.9271 10.3629 16.5566 9.38515ZM10 12C15.5228 12 20 9.31371 20 6C20 2.68629 15.5228 0 10 0C4.47715 0 0 2.68629 0 6C0 9.31371 4.47715 12 10 12Z" fill="white" fill-opacity="0.6"/>
<path fill-rule="evenodd" clip-rule="evenodd" d="M10 9C11.6569 9 13 7.65685 13 6C13 4.34315 11.6569 3 10 3C8.34315 3 7 4.34315 7 6C7 7.65685 8.34315 9 10 9ZM10 10C12.2091 10 14 8.20914 14 6C14 3.79086 12.2091 2 10 2C7.79086 2 6 3.79086 6 6C6 8.20914 7.79086 10 10 10Z" fill="white" fill-opacity="0.6"/>
</svg>
