<svg width="43" height="67" viewBox="0 0 43 67" fill="none" xmlns="http://www.w3.org/2000/svg">
<path d="M21.3589 1C19.0449 1 16.8255 1.93379 15.1893 3.59604C13.553 5.25829 12.6338 7.51283 12.6338 9.8636V33.4999C12.6338 35.8507 13.553 38.1052 15.1893 39.7674C16.8255 41.4297 19.0449 42.3635 21.3589 42.3635C23.6729 42.3635 25.8923 41.4297 27.5285 39.7674C29.1648 38.1052 30.084 35.8507 30.084 33.4999V9.8636C30.084 7.51283 29.1648 5.25829 27.5285 3.59604C25.8923 1.93379 23.6729 1 21.3589 1Z" stroke="#A6A6A6" stroke-linecap="round" stroke-linejoin="round"/>
<path d="M41.7172 27.5907V33.4998C41.7172 38.9849 39.5721 44.2453 35.7542 48.1238C31.9362 52.0024 26.758 54.1815 21.3586 54.1815C15.9592 54.1815 10.781 52.0024 6.96301 48.1238C3.14503 44.2453 1 38.9849 1 33.4998V27.5907" stroke="#A6A6A6" stroke-linecap="round" stroke-linejoin="round"/>
<path d="M21.3586 54.1819V66" stroke="#A6A6A6" stroke-linecap="round" stroke-linejoin="round"/>
<path d="M9.72485 65.9998H32.9918" stroke="#A6A6A6" stroke-linecap="round" stroke-linejoin="round"/>
</svg>
