<svg width="21" height="32" viewBox="0 0 21 32" fill="none" xmlns="http://www.w3.org/2000/svg">
<g clip-path="url(#clip0_230_78)">
<path d="M10.5 1.33325C9.45571 1.33325 8.45417 1.75466 7.71574 2.5048C6.97732 3.25495 6.5625 4.27239 6.5625 5.33325V15.9999C6.5625 17.0608 6.97732 18.0782 7.71574 18.8284C8.45417 19.5785 9.45571 19.9999 10.5 19.9999C11.5443 19.9999 12.5458 19.5785 13.2843 18.8284C14.0227 18.0782 14.4375 17.0608 14.4375 15.9999V5.33325C14.4375 4.27239 14.0227 3.25495 13.2843 2.5048C12.5458 1.75466 11.5443 1.33325 10.5 1.33325Z" stroke="#A6A6A6" stroke-linecap="round" stroke-linejoin="round"/>
<path d="M19.6875 13.3333V15.9999C19.6875 18.4753 18.7195 20.8492 16.9965 22.5995C15.2735 24.3499 12.9367 25.3333 10.5 25.3333C8.06332 25.3333 5.7265 24.3499 4.00351 22.5995C2.28052 20.8492 1.3125 18.4753 1.3125 15.9999V13.3333" stroke="#A6A6A6" stroke-linecap="round" stroke-linejoin="round"/>
<path d="M10.5 25.3333V30.6666" stroke="#A6A6A6" stroke-linecap="round" stroke-linejoin="round"/>
<path d="M5.25 30.6667H15.75" stroke="#A6A6A6" stroke-linecap="round" stroke-linejoin="round"/>
</g>
<defs>
<clipPath id="clip0_230_78">
<rect width="21" height="32" fill="white"/>
</clipPath>
</defs>
</svg>
