<svg width="84" height="84" viewBox="0 0 84 84" fill="none" xmlns="http://www.w3.org/2000/svg">
<circle cx="42" cy="42" r="41.5" fill="white" stroke="#DFDFDF"/>
<path d="M47.5408 34.346L42.4878 41.321C44.2031 41.5277 45.6291 42.1993 46.7658 43.336C47.9024 44.4107 48.4708 45.8677 48.4708 47.707C48.4708 49.753 47.7578 51.3857 46.3318 52.605C44.9471 53.783 43.2318 54.372 41.1858 54.372C39.5531 54.372 38.1064 54 36.8458 53.256C35.5851 52.4913 34.7068 51.427 34.2108 50.063L36.0088 49.009C36.3601 50.063 36.9801 50.869 37.8688 51.427C38.7781 51.985 39.8838 52.264 41.1858 52.264C42.7151 52.264 43.9448 51.861 44.8748 51.055C45.8254 50.2283 46.3008 49.1123 46.3008 47.707C46.3008 46.3017 45.8254 45.196 44.8748 44.39C43.9448 43.5633 42.7151 43.15 41.1858 43.15V43.119L41.1548 43.15H40.5658L39.6358 41.724L45.0298 34.346H34.8308V32.3H47.5408V34.346Z" fill="black"/>
</svg>
