<svg width="93" height="93" viewBox="0 0 93 93" fill="none" xmlns="http://www.w3.org/2000/svg">
<circle cx="46.5" cy="46.5" r="46" stroke="#EDEDED"/>
<path fill-rule="evenodd" clip-rule="evenodd" d="M47.4999 36.3633C41.3679 36.3633 36.3999 41.3508 36.3999 47.4996C36.3999 53.6485 41.3679 58.636 47.4999 58.636C53.6319 58.636 58.5999 53.6485 58.5999 47.4996C58.5999 41.3508 53.6319 36.3633 47.4999 36.3633ZM37.3999 47.4996C37.3999 41.8999 41.9234 37.3633 47.4999 37.3633C53.0764 37.3633 57.5999 41.8999 57.5999 47.4996C57.5999 53.0994 53.0764 57.636 47.4999 57.636C41.9234 57.636 37.3999 53.0994 37.3999 47.4996Z" fill="url(#paint0_linear_1594_225)"/>
<path fill-rule="evenodd" clip-rule="evenodd" d="M72.6804 47.7232L72.6784 47.7272L72.6729 47.7381L72.6522 47.7787C72.6341 47.814 72.6074 47.8656 72.5722 47.9323C72.5017 48.0658 72.3969 48.2601 72.2583 48.5065C71.9813 48.9993 71.5687 49.7008 71.0241 50.5415C69.9356 52.2219 68.3161 54.4636 66.1921 56.7071C61.9517 61.186 55.6459 65.727 47.4998 65.727C39.3537 65.727 33.0479 61.186 28.8076 56.7071C26.6835 54.4636 25.064 52.2219 23.9755 50.5415C23.4309 49.7008 23.0184 48.9993 22.7413 48.5065C22.6027 48.2601 22.498 48.0658 22.4274 47.9323C22.3922 47.8656 22.3655 47.814 22.3474 47.7787L22.3267 47.7381L22.3212 47.7272L22.319 47.7227L22.7665 47.4997L22.3192 47.2762L22.3197 47.2753L22.3212 47.2722L22.3267 47.2613L22.3474 47.2207C22.3655 47.1854 22.3922 47.1339 22.4274 47.0671C22.498 46.9336 22.6027 46.7393 22.7413 46.4929C23.0184 46.0002 23.4309 45.2987 23.9755 44.458C25.064 42.7776 26.6835 40.5359 28.8076 38.2923C33.0479 33.8135 39.3537 29.2725 47.4998 29.2725C55.6459 29.2725 61.9517 33.8135 66.1921 38.2923C68.3161 40.5359 69.9356 42.7776 71.0241 44.458C71.5687 45.2987 71.9813 46.0002 72.2583 46.4929C72.3969 46.7393 72.5017 46.9336 72.5722 47.0671C72.6074 47.1339 72.6341 47.1854 72.6522 47.2207L72.6729 47.2613L72.6784 47.2722L72.6804 47.2762C72.7504 47.4167 72.7504 47.5828 72.6804 47.7232ZM23.6129 48.0164C23.4906 47.7989 23.3961 47.6245 23.3299 47.4997C23.3961 47.375 23.4906 47.2006 23.6129 46.9831C23.881 46.5064 24.2828 45.8229 24.8148 45.0017C25.8793 43.3583 27.4619 41.1682 29.5337 38.9799C33.685 34.5951 39.7459 30.2725 47.4998 30.2725C55.2537 30.2725 61.3146 34.5951 65.4659 38.9799C67.5377 41.1682 69.1203 43.3583 70.1848 45.0017C70.7168 45.8229 71.1186 46.5064 71.3867 46.9831C71.509 47.2006 71.6035 47.375 71.6697 47.4997C71.6035 47.6245 71.509 47.7989 71.3867 48.0164C71.1186 48.4931 70.7168 49.1766 70.1848 49.9978C69.1203 51.6412 67.5377 53.8313 65.4659 56.0196C61.3146 60.4044 55.2537 64.727 47.4998 64.727C39.7459 64.727 33.685 60.4044 29.5337 56.0196C27.4619 53.8313 25.8793 51.6412 24.8148 49.9978C24.2828 49.1766 23.881 48.4931 23.6129 48.0164ZM72.2331 47.4997C72.6807 47.2767 72.6805 47.2765 72.6804 47.2762L72.2331 47.4997ZM72.2331 47.4997L72.6804 47.7232C72.6805 47.723 72.6807 47.7227 72.2331 47.4997Z" fill="url(#paint1_linear_1594_225)"/>
<path d="M22.3192 47.2762C22.3191 47.2765 22.319 47.2767 22.7665 47.4997C22.3231 47.7206 22.3189 47.7224 22.319 47.7227C22.249 47.5823 22.2492 47.4167 22.3192 47.2762Z" fill="url(#paint2_linear_1594_225)"/>
<defs>
<linearGradient id="paint0_linear_1594_225" x1="47.4998" y1="29.7725" x2="47.4998" y2="80.4774" gradientUnits="userSpaceOnUse">
<stop stop-color="#BCBCBC"/>
<stop offset="1" stop-color="#1E1E1E"/>
</linearGradient>
<linearGradient id="paint1_linear_1594_225" x1="47.4998" y1="29.7725" x2="47.4998" y2="80.4774" gradientUnits="userSpaceOnUse">
<stop stop-color="#BCBCBC"/>
<stop offset="1" stop-color="#1E1E1E"/>
</linearGradient>
<linearGradient id="paint2_linear_1594_225" x1="47.4998" y1="29.7725" x2="47.4998" y2="80.4774" gradientUnits="userSpaceOnUse">
<stop stop-color="#BCBCBC"/>
<stop offset="1" stop-color="#1E1E1E"/>
</linearGradient>
</defs>
</svg>
