<svg width="93" height="93" viewBox="0 0 93 93" fill="none" xmlns="http://www.w3.org/2000/svg">
<circle cx="46.5" cy="46.5" r="46" stroke="#EDEDED"/>
<path d="M48.1003 73.2791C48.1003 74.393 48.5431 75.4615 49.3307 76.2491C50.1184 77.0368 51.1864 77.4791 52.3003 77.4791H67.5003L75.9003 85.8791V66.2791C75.9003 65.1652 75.458 64.0967 74.6703 63.3091C73.8827 62.5214 72.8142 62.0791 71.7003 62.0791H52.3003C51.1864 62.0791 50.1184 62.5214 49.3307 63.3091C48.5431 64.0967 48.1003 65.1652 48.1003 66.2791V73.2791Z" fill="white"/>
<path fill-rule="evenodd" clip-rule="evenodd" d="M23 15.5C21.5414 15.5 20.1422 16.0792 19.1107 17.1107C18.0792 18.1422 17.5 19.5414 17.5 21V61C17.5 61.2022 17.6218 61.3845 17.8087 61.4619C17.9955 61.5393 18.2106 61.4966 18.3536 61.3536L28.2071 51.5H58C59.4587 51.5 60.8572 50.9208 61.8887 49.8893C62.9201 48.8579 63.5 47.4588 63.5 46V21C63.5 19.5412 62.9201 18.1421 61.8887 17.1107C60.8572 16.0792 59.4587 15.5 58 15.5H23ZM19.8178 17.8178C20.6616 16.9739 21.8064 16.5 23 16.5H58C59.1935 16.5 60.3377 16.9739 61.1816 17.8178C62.0256 18.6618 62.5 19.8066 62.5 21V46C62.5 47.1934 62.0256 48.3382 61.1816 49.1822C60.3377 50.0261 59.1935 50.5 58 50.5H28C27.8674 50.5 27.7402 50.5527 27.6464 50.6464L18.5 59.7929V21C18.5 19.8064 18.9739 18.6616 19.8178 17.8178Z" fill="url(#paint0_linear_1594_217)"/>
<path fill-rule="evenodd" clip-rule="evenodd" d="M71.7003 61.5791C72.9467 61.5791 74.1424 62.074 75.0239 62.9555C75.9053 63.837 76.4003 65.0327 76.4003 66.2791V85.8791C76.4003 86.0813 76.2784 86.2636 76.0916 86.341C75.9048 86.4184 75.6897 86.3757 75.5467 86.2327L67.2932 77.9791H52.3003C51.0538 77.9791 49.8586 77.4841 48.9772 76.6027C48.0958 75.7213 47.6003 74.5257 47.6003 73.2791V66.2791C47.6003 65.0325 48.0958 63.8369 48.9772 62.9555C49.8586 62.0741 51.0538 61.5791 52.3003 61.5791H71.7003ZM74.3168 63.6626C73.6229 62.9688 72.6817 62.5791 71.7003 62.5791H52.3003C51.3189 62.5791 50.3782 62.9687 49.6843 63.6626C48.9904 64.3565 48.6003 65.2979 48.6003 66.2791V73.2791C48.6003 74.2603 48.9904 75.2017 49.6843 75.8956C50.3782 76.5895 51.3189 76.9791 52.3003 76.9791H67.5003C67.6329 76.9791 67.7601 77.0318 67.8538 77.1255L75.4003 84.672V66.2791C75.4003 65.2977 75.0106 64.3564 74.3168 63.6626Z" fill="url(#paint1_linear_1594_217)"/>
<defs>
<linearGradient id="paint0_linear_1594_217" x1="40.5" y1="16" x2="40.5" y2="95" gradientUnits="userSpaceOnUse">
<stop stop-color="#BCBCBC"/>
<stop offset="1" stop-color="#1E1E1E"/>
</linearGradient>
<linearGradient id="paint1_linear_1594_217" x1="40.5" y1="16" x2="40.5" y2="95" gradientUnits="userSpaceOnUse">
<stop stop-color="#BCBCBC"/>
<stop offset="1" stop-color="#1E1E1E"/>
</linearGradient>
</defs>
</svg>
