<svg width="84" height="84" viewBox="0 0 84 84" fill="none" xmlns="http://www.w3.org/2000/svg">
<path fill-rule="evenodd" clip-rule="evenodd" d="M42 83.0968C64.6971 83.0968 83.0968 64.6971 83.0968 42C83.0968 19.3029 64.6971 0.903226 42 0.903226C19.3029 0.903226 0.903226 19.3029 0.903226 42C0.903226 64.6971 19.3029 83.0968 42 83.0968ZM42 84C65.196 84 84 65.196 84 42C84 18.804 65.196 0 42 0C18.804 0 0 18.804 0 42C0 65.196 18.804 84 42 84Z" fill="#EDEDED"/>
<path fill-rule="evenodd" clip-rule="evenodd" d="M43.448 16.8863C43.5334 16.7748 43.6659 16.7095 43.8064 16.7095H65.4838C65.7332 16.7095 65.9354 16.9117 65.9354 17.1611C65.9354 17.4105 65.7332 17.6127 65.4838 17.6127H44.0292L23.9475 43.8062H73.6128C73.8622 43.8062 74.0644 44.0084 74.0644 44.2579C74.0644 44.5073 73.8622 44.7095 73.6128 44.7095H23.4838V66.8385C23.4838 67.0879 23.2816 67.2901 23.0322 67.2901C22.7828 67.2901 22.5806 67.0879 22.5806 66.8385V44.2579C22.5806 44.1585 22.6133 44.0619 22.6738 43.9831L43.448 16.8863ZM52.6345 24.0091C52.8431 24.1458 52.9015 24.4258 52.7648 24.6344L44.1841 37.7312C44.0474 37.9398 43.7675 37.9981 43.5589 37.8614C43.3502 37.7247 43.2919 37.4448 43.4286 37.2362L52.0093 24.1394C52.1459 23.9308 52.4259 23.8724 52.6345 24.0091ZM63.4732 24.0091C63.6819 24.1458 63.7402 24.4258 63.6035 24.6344L55.0228 37.7312C54.8862 37.9398 54.6062 37.9981 54.3976 37.8614C54.189 37.7247 54.1306 37.4448 54.2673 37.2362L62.848 24.1394C62.9847 23.9308 63.2646 23.8724 63.4732 24.0091Z" fill="url(#paint0_linear_1595_357)"/>
<defs>
<linearGradient id="paint0_linear_1595_357" x1="51.0322" y1="17.1611" x2="51.0322" y2="99.8324" gradientUnits="userSpaceOnUse">
<stop stop-color="#BCBCBC"/>
<stop offset="1" stop-color="#1E1E1E"/>
</linearGradient>
</defs>
</svg>
