<svg width="47" height="58" viewBox="0 0 47 58" fill="none" xmlns="http://www.w3.org/2000/svg">
<mask id="mask0_140_119" style="mask-type:luminance" maskUnits="userSpaceOnUse" x="0" y="45" width="46" height="14">
<path fill-rule="evenodd" clip-rule="evenodd" d="M0.00109863 45.9858H45.9601V58.0001H0.00109863V45.9858Z" fill="white"/>
</mask>
<g mask="url(#mask0_140_119)">
<path fill-rule="evenodd" clip-rule="evenodd" d="M0.00109863 45.9858H1.14734V50.9482C1.61361 50.3761 2.13059 49.946 2.68993 49.6632C3.25158 49.3772 3.8581 49.2355 4.51282 49.2355C5.18383 49.2355 5.77971 49.3923 6.29919 49.7103C6.8193 50.0272 7.20416 50.4551 7.45107 50.9872C7.69819 51.5225 7.82195 52.3591 7.82195 53.5V57.7954H6.67571V53.8146C6.67571 52.8547 6.63417 52.2116 6.55194 51.8898C6.40918 51.3386 6.14746 50.9243 5.77157 50.6439C5.39505 50.3659 4.89999 50.2264 4.28783 50.2264C3.58823 50.2264 2.9621 50.4416 2.40859 50.8717C1.85509 51.2996 1.48984 51.8317 1.31285 52.4666C1.2037 52.8753 1.14734 53.6313 1.14734 54.7346V57.7954H0.00109863V45.9858ZM14.5235 49.2348C15.9029 49.2348 17.0494 49.6992 17.9566 50.6295C18.7825 51.4773 19.1951 52.4812 19.1951 53.641C19.1951 54.8049 18.7598 55.823 17.8865 56.6938C17.0149 57.5645 15.8914 57.9995 14.5235 57.9995C13.1473 57.9995 12.0207 57.5645 11.1499 56.6938C10.2758 55.823 9.84046 54.8049 9.84046 53.641C9.84046 52.4867 10.2539 51.4853 11.0798 50.6375C11.9871 49.7016 13.1358 49.2348 14.5235 49.2348ZM14.5185 50.2892C13.5607 50.2892 12.7405 50.6173 12.0524 51.2752C11.3642 51.9334 11.0217 52.7308 11.0217 53.6644C11.0217 54.2652 11.1783 54.8269 11.4907 55.3486C11.8052 55.868 12.2293 56.2688 12.7632 56.5525C13.294 56.8351 13.8811 56.9771 14.5185 56.9771C15.1569 56.9771 15.7432 56.8351 16.2746 56.5525C16.8087 56.2688 17.2328 55.868 17.5473 55.3486C17.8589 54.8269 18.0161 54.2652 18.0161 53.6644C18.0161 52.7308 17.6705 51.9334 16.9798 51.2752C16.2911 50.6173 15.4708 50.2892 14.5185 50.2892ZM21.3167 49.4393H22.4629V50.8845C22.8641 50.3516 23.275 49.9612 23.6989 49.7142C24.2802 49.3949 24.8925 49.2348 25.5333 49.2348C25.9686 49.2348 26.3788 49.3135 26.7693 49.473C27.1598 49.6306 27.4768 49.8433 27.7248 50.1054C27.9719 50.3699 28.1854 50.7476 28.368 51.2408C28.7495 50.5851 29.2298 50.0871 29.8029 49.7461C30.3794 49.4053 30.9974 49.2348 31.66 49.2348C32.278 49.2348 32.8259 49.3812 33.298 49.6728C33.7724 49.9637 34.1239 50.3699 34.3547 50.8918C34.5845 51.4143 34.6995 52.1958 34.6995 53.2394V57.7947H33.5198V53.2372C33.5198 52.34 33.452 51.7257 33.3151 51.3905C33.1765 51.055 32.9442 50.785 32.6124 50.5802C32.2805 50.3754 31.8875 50.2735 31.4269 50.2735C30.8709 50.2735 30.3597 50.4281 29.8983 50.7348C29.4351 51.0415 29.0985 51.451 28.8841 51.9625C28.6704 52.4738 28.5644 53.3287 28.5644 54.5245V57.7947H27.4182V53.5198C27.4182 52.513 27.3505 51.8285 27.2159 51.4661C27.0815 51.1045 26.8484 50.816 26.5132 50.5985C26.1765 50.3811 25.7804 50.2735 25.3198 50.2735C24.7857 50.2735 24.2883 50.4225 23.8252 50.7213C23.3614 51.0207 23.0189 51.4247 22.7973 51.9305C22.5754 52.4365 22.4629 53.2131 22.4629 54.2569V57.7947H21.3167V49.4393ZM44.6838 55.0256L45.6556 55.5028C45.336 56.0828 44.9674 56.5521 44.5492 56.909C44.1309 57.2626 43.6613 57.5359 43.1387 57.7215C42.6138 57.9079 42.0236 57.9995 41.364 57.9995C39.8972 57.9995 38.7535 57.5534 37.9276 56.662C37.1025 55.7704 36.6891 54.7635 36.6891 53.641C36.6891 52.5837 37.0397 51.6399 37.7391 50.8137C38.6247 49.7614 39.8133 49.2348 41.2987 49.2348C42.8298 49.2348 44.0543 49.7748 44.9674 50.8527C45.6165 51.6136 45.9482 52.5631 45.9597 53.704H37.8687C37.8909 54.6719 38.2258 55.4638 38.8691 56.0795C39.5148 56.6985 40.313 57.0085 41.2597 57.0085C41.7178 57.0085 42.1638 56.9351 42.5967 56.7878C43.0295 56.6412 43.3973 56.4468 43.7006 56.2031C44.0047 55.9592 44.3332 55.5681 44.6838 55.0256ZM44.6946 52.7759C44.5395 52.2016 44.3153 51.745 44.0202 51.4017C43.7226 51.0583 43.3321 50.7828 42.8462 50.5731C42.3603 50.3628 41.8492 50.2584 41.3151 50.2584C40.4306 50.2584 39.6715 50.5205 39.0364 51.0479C38.5701 51.4335 38.222 52.0078 37.983 52.7759H44.6946Z" fill="white"/>
</g>
<mask id="mask1_140_119" style="mask-type:luminance" maskUnits="userSpaceOnUse" x="0" y="0" width="47" height="45">
<path fill-rule="evenodd" clip-rule="evenodd" d="M0 0H46.0951V44.7652H0V0Z" fill="white"/>
</mask>
<g mask="url(#mask1_140_119)">
<path fill-rule="evenodd" clip-rule="evenodd" d="M0 14.6385L23.1727 0L46.0951 14.6385V44.7652H30.4686L27.3275 38.2232C29.0892 37.3868 29.9698 35.9376 29.9698 33.8779C29.9698 31.5522 28.5038 29.4461 26.1176 29.0936C25.5044 28.999 24.6232 28.9533 23.4784 28.9533H17.5635V44.7652H0V14.6385ZM26.0559 44.7649H21.6884V38.9101H23.7943L26.0559 44.7649ZM21.6884 31.6223V36.2419H23.5073C25.1223 36.2419 25.9277 35.451 25.9277 33.8663C25.9277 33.3179 25.8096 32.8692 25.57 32.5191C25.3302 32.169 25.0513 31.9348 24.736 31.8067C24.4212 31.6835 23.9533 31.6223 23.3426 31.6223H21.6884Z" fill="white"/>
</g>
</svg>
