<svg width="142" height="60" viewBox="0 0 142 60" fill="none" xmlns="http://www.w3.org/2000/svg">
<rect width="72" height="60" fill="#231F20"/>
<mask id="mask0_1236_2" style="mask-type:luminance" maskUnits="userSpaceOnUse" x="22" y="41" width="29" height="8">
<path fill-rule="evenodd" clip-rule="evenodd" d="M22.3455 41.1074H50.7391V48.5814H22.3455V41.1074Z" fill="white"/>
</mask>
<g mask="url(#mask0_1236_2)">
<path fill-rule="evenodd" clip-rule="evenodd" d="M22.3455 41.1074H23.0536V44.1945C23.3417 43.8386 23.6611 43.571 24.0066 43.3951C24.3536 43.2172 24.7283 43.129 25.1328 43.129C25.5474 43.129 25.9155 43.2266 26.2364 43.4244C26.5578 43.6215 26.7955 43.8877 26.9481 44.2187C27.1007 44.5518 27.1772 45.0722 27.1772 45.7819V48.4541H26.4691V45.9777C26.4691 45.3805 26.4434 44.9805 26.3926 44.7802C26.3044 44.4373 26.1427 44.1796 25.9105 44.0052C25.6779 43.8323 25.372 43.7455 24.9938 43.7455C24.5616 43.7455 24.1748 43.8793 23.8328 44.1469C23.4909 44.4131 23.2652 44.7441 23.1559 45.139C23.0884 45.3933 23.0536 45.8636 23.0536 46.55V48.4541H22.3455V41.1074ZM31.3175 43.1287C32.1697 43.1287 32.8779 43.4176 33.4385 43.9964C33.9487 44.5238 34.2036 45.1483 34.2036 45.8698C34.2036 46.5939 33.9346 47.2272 33.3951 47.769C32.8567 48.3106 32.1626 48.5812 31.3175 48.5812C30.4672 48.5812 29.7712 48.3106 29.2332 47.769C28.6932 47.2272 28.4243 46.5939 28.4243 45.8698C28.4243 45.1517 28.6797 44.5288 29.1899 44.0014C29.7504 43.4191 30.4601 43.1287 31.3175 43.1287V43.1287ZM31.3144 43.7844C30.7226 43.7844 30.2159 43.9886 29.7908 44.3979C29.3656 44.8073 29.1541 45.3034 29.1541 45.8842C29.1541 46.2579 29.2508 46.6074 29.4438 46.9319C29.6381 47.255 29.9001 47.5043 30.23 47.6808C30.5579 47.8567 30.9206 47.945 31.3144 47.945C31.7088 47.945 32.071 47.8567 32.3993 47.6808C32.7293 47.5043 32.9913 47.255 33.1856 46.9319C33.3781 46.6074 33.4752 46.2579 33.4752 45.8842C33.4752 45.3034 33.2617 44.8073 32.835 44.3979C32.4095 43.9886 31.9027 43.7844 31.3144 43.7844V43.7844ZM35.5143 43.256H36.2224V44.155C36.4703 43.8235 36.7242 43.5807 36.986 43.427C37.3451 43.2283 37.7235 43.1287 38.1193 43.1287C38.3883 43.1287 38.6417 43.1777 38.8829 43.2769C39.1242 43.375 39.32 43.5073 39.4732 43.6704C39.6259 43.8349 39.7578 44.0699 39.8706 44.3767C40.1063 43.9688 40.403 43.6589 40.7571 43.4468C41.1132 43.2348 41.495 43.1287 41.9044 43.1287C42.2862 43.1287 42.6247 43.2198 42.9164 43.4013C43.2095 43.5822 43.4266 43.8349 43.5692 44.1596C43.7112 44.4846 43.7822 44.9708 43.7822 45.62V48.4538H43.0535V45.6186C43.0535 45.0605 43.0115 44.6784 42.927 44.4698C42.8413 44.2611 42.6978 44.0931 42.4928 43.9657C42.2878 43.8383 42.045 43.7749 41.7604 43.7749C41.4169 43.7749 41.1011 43.8711 40.816 44.0619C40.5299 44.2527 40.3219 44.5075 40.1895 44.8257C40.0575 45.1437 39.992 45.6756 39.992 46.4194V48.4538H39.2838V45.7945C39.2838 45.1681 39.242 44.7423 39.1589 44.5168C39.0758 44.2919 38.9318 44.1124 38.7247 43.9771C38.5167 43.8419 38.272 43.7749 37.9874 43.7749C37.6574 43.7749 37.3502 43.8676 37.064 44.0535C36.7775 44.2398 36.5659 44.4911 36.429 44.8057C36.2919 45.1205 36.2224 45.6036 36.2224 46.253V48.4538H35.5143V43.256ZM49.9506 46.7312L50.551 47.028C50.3536 47.3889 50.1259 47.6808 49.8675 47.9028C49.6091 48.1228 49.3189 48.2928 48.9961 48.4083C48.6718 48.5242 48.3071 48.5812 47.8997 48.5812C46.9935 48.5812 46.2869 48.3037 45.7766 47.7492C45.2669 47.1945 45.0115 46.5681 45.0115 45.8698C45.0115 45.2121 45.2281 44.6249 45.6602 44.111C46.2073 43.4563 46.9416 43.1287 47.8593 43.1287C48.8052 43.1287 49.5617 43.4647 50.1259 44.1352C50.5269 44.6086 50.7318 45.1993 50.7389 45.909H45.7403C45.7539 46.5112 45.9609 47.0038 46.3583 47.3868C46.7572 47.7719 47.2503 47.9647 47.8352 47.9647C48.1182 47.9647 48.3938 47.9191 48.6612 47.8275C48.9286 47.7362 49.1558 47.6153 49.3432 47.4637C49.5311 47.312 49.734 47.0686 49.9506 46.7312V46.7312ZM49.9572 45.3313C49.8614 44.974 49.7229 44.6899 49.5406 44.4764C49.3567 44.2627 49.1155 44.0913 48.8153 43.9609C48.5151 43.8301 48.1993 43.7651 47.8694 43.7651C47.3229 43.7651 46.8539 43.9282 46.4616 44.2563C46.1735 44.4962 45.9584 44.8535 45.8108 45.3313H49.9572Z" fill="white"/>
</g>
<mask id="mask1_1236_2" style="mask-type:luminance" maskUnits="userSpaceOnUse" x="22" y="12" width="29" height="29">
<path fill-rule="evenodd" clip-rule="evenodd" d="M22.3447 12.5H50.8224V40.3481H22.3447V12.5Z" fill="white"/>
</mask>
<g mask="url(#mask1_1236_2)">
<path fill-rule="evenodd" clip-rule="evenodd" d="M22.3447 21.6065L36.6609 12.5L50.8224 21.6065V40.3482H41.1683L39.2278 36.2784C40.3162 35.7581 40.8602 34.8566 40.8602 33.5752C40.8602 32.1284 39.9545 30.8182 38.4803 30.599C38.1014 30.5401 37.557 30.5117 36.8498 30.5117H33.1955V40.3482H22.3447V21.6065ZM38.4422 40.3482H35.7439V36.7059H37.0449L38.4422 40.3482ZM35.7439 32.172V35.0459H36.8676C37.8654 35.0459 38.363 34.5538 38.363 33.568C38.363 33.2269 38.29 32.9477 38.142 32.7299C37.9938 32.5121 37.8216 32.3664 37.6267 32.2868C37.4323 32.2101 37.1432 32.172 36.7659 32.172H35.7439Z" fill="white"/>
</g>
<path d="M76.6401 17.3999V22.4719H77.2401V24.0719H76.6801V22.9999H72.6801V24.0719H72.1201V22.4719H72.5761C72.9441 22.0399 73.1281 21.3732 73.1281 20.4719V17.3999H76.6401ZM73.2401 22.4719H76.0801V17.9279H73.6881V20.4879C73.6881 21.3679 73.5387 22.0292 73.2401 22.4719Z" fill="#C5C5C5"/>
<path d="M78.6115 22.0799L80.9955 18.9999H81.4435V22.9999H80.9155V19.9199L78.5315 22.9999H78.0835V18.9999H78.6115V22.0799Z" fill="#C5C5C5"/>
<path d="M84.6241 20.9439C85.0881 21.1199 85.3201 21.4399 85.3201 21.9039C85.3201 22.2399 85.1894 22.5226 84.9281 22.7519C84.6774 22.9812 84.3094 23.0959 83.8241 23.0959C83.0134 23.0959 82.4854 22.7759 82.2401 22.1359L82.6881 21.8719C82.8587 22.3466 83.2374 22.5839 83.8241 22.5839C84.1281 22.5839 84.3654 22.5199 84.5361 22.3919C84.7067 22.2586 84.7921 22.0852 84.7921 21.8719C84.7921 21.6799 84.7227 21.5279 84.5841 21.4159C84.4454 21.2986 84.2587 21.2399 84.0241 21.2399H83.4401V20.7279H83.8641C84.0934 20.7279 84.2721 20.6719 84.4001 20.5599C84.5334 20.4426 84.6001 20.2826 84.6001 20.0799C84.6001 19.8879 84.5201 19.7306 84.3601 19.6079C84.2054 19.4799 84.0001 19.4159 83.7441 19.4159C83.2481 19.4159 82.9147 19.6159 82.7441 20.0159L82.3041 19.7599C82.5707 19.1892 83.0507 18.9039 83.7441 18.9039C84.1707 18.9039 84.5067 19.0159 84.7521 19.2399C85.0027 19.4586 85.1281 19.7279 85.1281 20.0479C85.1281 20.4586 84.9601 20.7572 84.6241 20.9439Z" fill="#C5C5C5"/>
<path d="M89.5626 19.7839V18.9999H90.0906V22.9999H89.5626V22.2159C89.1946 22.8026 88.6559 23.0959 87.9466 23.0959C87.3759 23.0959 86.8879 22.8932 86.4826 22.4879C86.0826 22.0826 85.8826 21.5866 85.8826 20.9999C85.8826 20.4132 86.0826 19.9172 86.4826 19.5119C86.8879 19.1066 87.3759 18.9039 87.9466 18.9039C88.6559 18.9039 89.1946 19.1972 89.5626 19.7839ZM86.8666 22.1279C87.1706 22.4319 87.5439 22.5839 87.9866 22.5839C88.4292 22.5839 88.8026 22.4319 89.1066 22.1279C89.4106 21.8132 89.5626 21.4372 89.5626 20.9999C89.5626 20.5572 89.4106 20.1839 89.1066 19.8799C88.8026 19.5706 88.4292 19.4159 87.9866 19.4159C87.5439 19.4159 87.1706 19.5706 86.8666 19.8799C86.5626 20.1839 86.4106 20.5572 86.4106 20.9999C86.4106 21.4372 86.5626 21.8132 86.8666 22.1279Z" fill="#C5C5C5"/>
<path d="M93.9285 18.3599H91.8485V17.8959H93.9285V18.3599ZM91.7365 22.0799L94.1205 18.9999H94.5685V22.9999H94.0405V19.9199L91.6565 22.9999H91.2085V18.9999H91.7365V22.0799Z" fill="#C5C5C5"/>
<path d="M98.5171 20.7439V18.9999H99.0451V22.9999H98.5171V21.2559H96.2131V22.9999H95.6851V18.9999H96.2131V20.7439H98.5171Z" fill="#C5C5C5"/>
<path d="M102.69 22.0799L105.074 18.9999H105.522V22.9999H104.994V19.9199L102.61 22.9999H102.162V18.9999H102.69V22.0799Z" fill="#C5C5C5"/>
<path d="M109.47 20.7439V18.9999H109.998V22.9999H109.47V21.2559H107.166V22.9999H106.638V18.9999H107.166V20.7439H109.47Z" fill="#C5C5C5"/>
<path d="M110.635 18.9999H113.995V19.5119H112.579V22.9999H112.051V19.5119H110.635V18.9999Z" fill="#C5C5C5"/>
<path d="M116.33 18.9039C116.927 18.9039 117.405 19.1146 117.762 19.5359C118.13 19.9519 118.314 20.4452 118.314 21.0159C118.314 21.0426 118.309 21.1252 118.298 21.2639H114.786C114.839 21.6639 115.01 21.9839 115.298 22.2239C115.586 22.4639 115.946 22.5839 116.378 22.5839C116.986 22.5839 117.415 22.3572 117.666 21.9039L118.13 22.1759C117.954 22.4639 117.711 22.6906 117.402 22.8559C117.098 23.0159 116.754 23.0959 116.37 23.0959C115.741 23.0959 115.229 22.8986 114.834 22.5039C114.439 22.1092 114.242 21.6079 114.242 20.9999C114.242 20.3972 114.437 19.8986 114.826 19.5039C115.215 19.1039 115.717 18.9039 116.33 18.9039ZM116.33 19.4159C115.914 19.4159 115.565 19.5386 115.282 19.7839C115.005 20.0292 114.839 20.3519 114.786 20.7519H117.77C117.711 20.3252 117.549 19.9972 117.282 19.7679C117.005 19.5332 116.687 19.4159 116.33 19.4159Z" fill="#C5C5C5"/>
<path d="M121.298 18.9039C121.868 18.9039 122.354 19.1066 122.754 19.5119C123.159 19.9172 123.362 20.4132 123.362 20.9999C123.362 21.5866 123.159 22.0826 122.754 22.4879C122.354 22.8932 121.868 23.0959 121.298 23.0959C120.588 23.0959 120.05 22.8026 119.682 22.2159V24.5999H119.154V18.9999H119.682V19.7839C120.05 19.1972 120.588 18.9039 121.298 18.9039ZM120.138 22.1279C120.442 22.4319 120.815 22.5839 121.258 22.5839C121.7 22.5839 122.074 22.4319 122.378 22.1279C122.682 21.8132 122.834 21.4372 122.834 20.9999C122.834 20.5572 122.682 20.1839 122.378 19.8799C122.074 19.5706 121.7 19.4159 121.258 19.4159C120.815 19.4159 120.442 19.5706 120.138 19.8799C119.834 20.1839 119.682 20.5572 119.682 20.9999C119.682 21.4372 119.834 21.8132 120.138 22.1279Z" fill="#C5C5C5"/>
<path d="M124.768 20.5199H125.864C126.232 20.5199 126.546 20.6372 126.808 20.8719C127.069 21.1012 127.2 21.3972 127.2 21.7599C127.2 22.1279 127.069 22.4266 126.808 22.6559C126.557 22.8852 126.242 22.9999 125.864 22.9999H124.24V18.9999H124.768V20.5199ZM124.768 22.4879H125.864C126.093 22.4879 126.285 22.4212 126.44 22.2879C126.594 22.1492 126.672 21.9732 126.672 21.7599C126.672 21.5466 126.594 21.3732 126.44 21.2399C126.285 21.1012 126.093 21.0319 125.864 21.0319H124.768V22.4879Z" fill="#C5C5C5"/>
<path d="M129.807 18.9039C130.404 18.9039 130.881 19.1146 131.239 19.5359C131.607 19.9519 131.791 20.4452 131.791 21.0159C131.791 21.0426 131.785 21.1252 131.775 21.2639H128.263C128.316 21.6639 128.487 21.9839 128.775 22.2239C129.063 22.4639 129.423 22.5839 129.855 22.5839C130.463 22.5839 130.892 22.3572 131.143 21.9039L131.607 22.1759C131.431 22.4639 131.188 22.6906 130.879 22.8559C130.575 23.0159 130.231 23.0959 129.847 23.0959C129.217 23.0959 128.705 22.8986 128.311 22.5039C127.916 22.1092 127.719 21.6079 127.719 20.9999C127.719 20.3972 127.913 19.8986 128.303 19.5039C128.692 19.1039 129.193 18.9039 129.807 18.9039ZM129.807 19.4159C129.391 19.4159 129.041 19.5386 128.759 19.7839C128.481 20.0292 128.316 20.3519 128.263 20.7519H131.247C131.188 20.3252 131.025 19.9972 130.759 19.7679C130.481 19.5332 130.164 19.4159 129.807 19.4159Z" fill="#C5C5C5"/>
<path d="M134.774 18.9039C135.345 18.9039 135.83 19.1066 136.23 19.5119C136.636 19.9172 136.838 20.4132 136.838 20.9999C136.838 21.5866 136.636 22.0826 136.23 22.4879C135.83 22.8932 135.345 23.0959 134.774 23.0959C134.065 23.0959 133.526 22.8026 133.158 22.2159V24.5999H132.63V18.9999H133.158V19.7839C133.526 19.1972 134.065 18.9039 134.774 18.9039ZM133.614 22.1279C133.918 22.4319 134.292 22.5839 134.734 22.5839C135.177 22.5839 135.55 22.4319 135.854 22.1279C136.158 21.8132 136.31 21.4372 136.31 20.9999C136.31 20.5572 136.158 20.1839 135.854 19.8799C135.55 19.5706 135.177 19.4159 134.734 19.4159C134.292 19.4159 133.918 19.5706 133.614 19.8799C133.31 20.1839 133.158 20.5572 133.158 20.9999C133.158 21.4372 133.31 21.8132 133.614 22.1279Z" fill="#C5C5C5"/>
<path d="M141.156 19.7839V18.9999H141.684V22.9999H141.156V22.2159C140.788 22.8026 140.25 23.0959 139.54 23.0959C138.97 23.0959 138.482 22.8932 138.076 22.4879C137.676 22.0826 137.476 21.5866 137.476 20.9999C137.476 20.4132 137.676 19.9172 138.076 19.5119C138.482 19.1066 138.97 18.9039 139.54 18.9039C140.25 18.9039 140.788 19.1972 141.156 19.7839ZM138.46 22.1279C138.764 22.4319 139.138 22.5839 139.58 22.5839C140.023 22.5839 140.396 22.4319 140.7 22.1279C141.004 21.8132 141.156 21.4372 141.156 20.9999C141.156 20.5572 141.004 20.1839 140.7 19.8799C140.396 19.5706 140.023 19.4159 139.58 19.4159C139.138 19.4159 138.764 19.5706 138.46 19.8799C138.156 20.1839 138.004 20.5572 138.004 20.9999C138.004 21.4372 138.156 21.8132 138.46 22.1279Z" fill="#C5C5C5"/>
<path d="M76.9601 33.9999H76.3681L75.8481 32.6239H73.1921L72.6721 33.9999H72.0801L74.2321 28.3999H74.8081L76.9601 33.9999ZM74.5201 29.0959L73.3921 32.0959H75.6481L74.5201 29.0959Z" fill="#C5C5C5"/>
<path d="M79.7431 29.9039C80.3138 29.9039 80.7991 30.1066 81.1991 30.5119C81.6045 30.9172 81.8071 31.4132 81.8071 31.9999C81.8071 32.5866 81.6045 33.0826 81.1991 33.4879C80.7991 33.8932 80.3138 34.0959 79.7431 34.0959C79.0338 34.0959 78.4951 33.8026 78.1271 33.2159V35.5999H77.5991V29.9999H78.1271V30.7839C78.4951 30.1972 79.0338 29.9039 79.7431 29.9039ZM78.5831 33.1279C78.8871 33.4319 79.2605 33.5839 79.7031 33.5839C80.1458 33.5839 80.5191 33.4319 80.8231 33.1279C81.1271 32.8132 81.2791 32.4372 81.2791 31.9999C81.2791 31.5572 81.1271 31.1839 80.8231 30.8799C80.5191 30.5706 80.1458 30.4159 79.7031 30.4159C79.2605 30.4159 78.8871 30.5706 78.5831 30.8799C78.2791 31.1839 78.1271 31.5572 78.1271 31.9999C78.1271 32.4372 78.2791 32.8132 78.5831 33.1279Z" fill="#C5C5C5"/>
<path d="M84.2038 31.9279L85.7638 33.9999H85.1318L83.8838 32.3519L82.6358 33.9999H82.0038L83.5718 31.9279L82.1078 29.9999H82.7398L83.8838 31.5119L85.0278 29.9999H85.6598L84.2038 31.9279Z" fill="#C5C5C5"/>
<path d="M87.01 33.0799L89.394 29.9999H89.842V33.9999H89.314V30.9199L86.93 33.9999H86.482V29.9999H87.01V33.0799Z" fill="#C5C5C5"/>
<path d="M90.4785 29.9999H93.8385V30.5119H92.4225V33.9999H91.8945V30.5119H90.4785V29.9999Z" fill="#C5C5C5"/>
<path d="M96.1737 29.9039C96.771 29.9039 97.2484 30.1146 97.6057 30.5359C97.9737 30.9519 98.1577 31.4452 98.1577 32.0159C98.1577 32.0426 98.1524 32.1252 98.1417 32.2639H94.6297C94.683 32.6639 94.8537 32.9839 95.1417 33.2239C95.4297 33.4639 95.7897 33.5839 96.2217 33.5839C96.8297 33.5839 97.259 33.3572 97.5097 32.9039L97.9737 33.1759C97.7977 33.4639 97.555 33.6906 97.2457 33.8559C96.9417 34.0159 96.5977 34.0959 96.2137 34.0959C95.5844 34.0959 95.0724 33.8986 94.6777 33.5039C94.283 33.1092 94.0857 32.6079 94.0857 31.9999C94.0857 31.3972 94.2804 30.8986 94.6697 30.5039C95.059 30.1039 95.5604 29.9039 96.1737 29.9039ZM96.1737 30.4159C95.7577 30.4159 95.4084 30.5386 95.1257 30.7839C94.8484 31.0292 94.683 31.3519 94.6297 31.7519H97.6137C97.555 31.3252 97.3924 30.9972 97.1257 30.7679C96.8484 30.5332 96.531 30.4159 96.1737 30.4159Z" fill="#C5C5C5"/>
<path d="M100.086 31.9199L102.23 33.9999H101.526L99.5256 32.0719V33.9999H98.9976V29.9999H99.5256V31.7679L101.43 29.9999H102.15L100.086 31.9199Z" fill="#C5C5C5"/>
<path d="M102.471 29.9999H105.831V30.5119H104.415V33.9999H103.887V30.5119H102.471V29.9999Z" fill="#C5C5C5"/>
<path d="M108.058 33.3519L109.354 29.9999H109.914L108.202 34.3679C108.042 34.7732 107.818 35.0852 107.53 35.3039C107.247 35.5279 106.933 35.6266 106.586 35.5999V35.1039C107.066 35.1626 107.431 34.8852 107.682 34.2719L107.786 34.0239L105.994 29.9999H106.554L108.058 33.3519Z" fill="#C5C5C5"/>
<path d="M112.696 29.9039C113.267 29.9039 113.752 30.1066 114.152 30.5119C114.558 30.9172 114.76 31.4132 114.76 31.9999C114.76 32.5866 114.558 33.0826 114.152 33.4879C113.752 33.8932 113.267 34.0959 112.696 34.0959C111.987 34.0959 111.448 33.8026 111.08 33.2159V35.5999H110.552V29.9999H111.08V30.7839C111.448 30.1972 111.987 29.9039 112.696 29.9039ZM111.536 33.1279C111.84 33.4319 112.214 33.5839 112.656 33.5839C113.099 33.5839 113.472 33.4319 113.776 33.1279C114.08 32.8132 114.232 32.4372 114.232 31.9999C114.232 31.5572 114.08 31.1839 113.776 30.8799C113.472 30.5706 113.099 30.4159 112.656 30.4159C112.214 30.4159 111.84 30.5706 111.536 30.8799C111.232 31.1839 111.08 31.5572 111.08 31.9999C111.08 32.4372 111.232 32.8132 111.536 33.1279Z" fill="#C5C5C5"/>
<path d="M119.078 30.7839V29.9999H119.606V33.9999H119.078V33.2159C118.71 33.8026 118.172 34.0959 117.462 34.0959C116.892 34.0959 116.404 33.8932 115.998 33.4879C115.598 33.0826 115.398 32.5866 115.398 31.9999C115.398 31.4132 115.598 30.9172 115.998 30.5119C116.404 30.1066 116.892 29.9039 117.462 29.9039C118.172 29.9039 118.71 30.1972 119.078 30.7839ZM116.382 33.1279C116.686 33.4319 117.06 33.5839 117.502 33.5839C117.945 33.5839 118.318 33.4319 118.622 33.1279C118.926 32.8132 119.078 32.4372 119.078 31.9999C119.078 31.5572 118.926 31.1839 118.622 30.8799C118.318 30.5706 117.945 30.4159 117.502 30.4159C117.06 30.4159 116.686 30.5706 116.382 30.8799C116.078 31.1839 115.926 31.5572 115.926 31.9999C115.926 32.4372 116.078 32.8132 116.382 33.1279Z" fill="#C5C5C5"/>
<path d="M75.2561 45.0959C74.4027 45.0959 73.7014 44.8159 73.1521 44.2559C72.5974 43.6906 72.3201 43.0052 72.3201 42.1999C72.3201 41.3946 72.5974 40.7092 73.1521 40.1439C73.7014 39.5839 74.4027 39.3039 75.2561 39.3039C75.7681 39.3039 76.2401 39.4292 76.6721 39.6799C77.1041 39.9252 77.4401 40.2586 77.6801 40.6799L77.1841 40.9679C77.0081 40.6266 76.7467 40.3546 76.4001 40.1519C76.0534 39.9492 75.6721 39.8479 75.2561 39.8479C74.5521 39.8479 73.9814 40.0746 73.5441 40.5279C73.1014 40.9866 72.8801 41.5439 72.8801 42.1999C72.8801 42.8559 73.1014 43.4132 73.5441 43.8719C73.9814 44.3252 74.5521 44.5519 75.2561 44.5519C75.6721 44.5519 76.0534 44.4506 76.4001 44.2479C76.7467 44.0452 77.0081 43.7732 77.1841 43.4319L77.6801 43.7119C77.4507 44.1332 77.1174 44.4692 76.6801 44.7199C76.2427 44.9706 75.7681 45.0959 75.2561 45.0959Z" fill="#C5C5C5"/>
<path d="M78.041 40.9999H81.401V41.5119H79.985V44.9999H79.457V41.5119H78.041V40.9999Z" fill="#C5C5C5"/>
<path d="M84.1885 40.9039C84.7591 40.9039 85.2445 41.1066 85.6445 41.5119C86.0498 41.9172 86.2525 42.4132 86.2525 42.9999C86.2525 43.5866 86.0498 44.0826 85.6445 44.4879C85.2445 44.8932 84.7591 45.0959 84.1885 45.0959C83.4791 45.0959 82.9405 44.8026 82.5725 44.2159V46.5999H82.0445V40.9999H82.5725V41.7839C82.9405 41.1972 83.4791 40.9039 84.1885 40.9039ZM83.0285 44.1279C83.3325 44.4319 83.7058 44.5839 84.1485 44.5839C84.5911 44.5839 84.9645 44.4319 85.2685 44.1279C85.5725 43.8132 85.7245 43.4372 85.7245 42.9999C85.7245 42.5572 85.5725 42.1839 85.2685 41.8799C84.9645 41.5706 84.5911 41.4159 84.1485 41.4159C83.7058 41.4159 83.3325 41.5706 83.0285 41.8799C82.7245 42.1839 82.5725 42.5572 82.5725 42.9999C82.5725 43.4372 82.7245 43.8132 83.0285 44.1279Z" fill="#C5C5C5"/>
<path d="M90.4824 44.4959C90.0717 44.8959 89.5757 45.0959 88.9944 45.0959C88.4024 45.0959 87.9037 44.8959 87.4984 44.4959C87.0931 44.0906 86.8904 43.5919 86.8904 42.9999C86.8904 42.4079 87.0931 41.9119 87.4984 41.5119C87.9037 41.1066 88.4024 40.9039 88.9944 40.9039C89.5811 40.9039 90.0771 41.1066 90.4824 41.5119C90.8931 41.9119 91.0984 42.4079 91.0984 42.9999C91.0984 43.5866 90.8931 44.0852 90.4824 44.4959ZM87.8744 44.1279C88.1784 44.4319 88.5517 44.5839 88.9944 44.5839C89.4371 44.5839 89.8104 44.4319 90.1144 44.1279C90.4184 43.8132 90.5704 43.4372 90.5704 42.9999C90.5704 42.5572 90.4184 42.1839 90.1144 41.8799C89.8104 41.5706 89.4371 41.4159 88.9944 41.4159C88.5517 41.4159 88.1784 41.5706 87.8744 41.8799C87.5704 42.1839 87.4184 42.5572 87.4184 42.9999C87.4184 43.4372 87.5704 43.8132 87.8744 44.1279Z" fill="#C5C5C5"/>
<path d="M92.51 44.0799L94.894 40.9999H95.342V44.9999H94.814V41.9199L92.43 44.9999H91.982V40.9999H92.51V44.0799Z" fill="#C5C5C5"/>
<path d="M95.9785 40.9999H99.3385V41.5119H97.9225V44.9999H97.3945V41.5119H95.9785V40.9999Z" fill="#C5C5C5"/>
<path d="M101.674 40.9039C102.271 40.9039 102.748 41.1146 103.106 41.5359C103.474 41.9519 103.658 42.4452 103.658 43.0159C103.658 43.0426 103.652 43.1252 103.642 43.2639H100.13C100.183 43.6639 100.354 43.9839 100.642 44.2239C100.93 44.4639 101.29 44.5839 101.722 44.5839C102.33 44.5839 102.759 44.3572 103.01 43.9039L103.474 44.1759C103.298 44.4639 103.055 44.6906 102.746 44.8559C102.442 45.0159 102.098 45.0959 101.714 45.0959C101.084 45.0959 100.572 44.8986 100.178 44.5039C99.783 44.1092 99.5857 43.6079 99.5857 42.9999C99.5857 42.3972 99.7804 41.8986 100.17 41.5039C100.559 41.1039 101.06 40.9039 101.674 40.9039ZM101.674 41.4159C101.258 41.4159 100.908 41.5386 100.626 41.7839C100.348 42.0292 100.183 42.3519 100.13 42.7519H103.114C103.055 42.3252 102.892 41.9972 102.626 41.7679C102.348 41.5332 102.031 41.4159 101.674 41.4159Z" fill="#C5C5C5"/>
<path d="M104.757 40.9999H107.621V44.9999H107.093V41.5119H105.285V43.2959C105.285 43.9626 105.157 44.4212 104.901 44.6719C104.651 44.9226 104.304 45.0319 103.861 44.9999V44.5039C104.171 44.5359 104.397 44.4612 104.541 44.2799C104.685 44.0986 104.757 43.7706 104.757 43.2959V40.9999Z" fill="#C5C5C5"/>
<path d="M109.268 42.5199H110.364C110.732 42.5199 111.046 42.6372 111.308 42.8719C111.569 43.1012 111.7 43.3972 111.7 43.7599C111.7 44.1279 111.569 44.4266 111.308 44.6559C111.057 44.8852 110.742 44.9999 110.364 44.9999H108.74V40.9999H109.268V42.5199ZM109.268 44.4879H110.364C110.593 44.4879 110.785 44.4212 110.94 44.2879C111.094 44.1492 111.172 43.9732 111.172 43.7599C111.172 43.5466 111.094 43.3732 110.94 43.2399C110.785 43.1012 110.593 43.0319 110.364 43.0319H109.268V44.4879Z" fill="#C5C5C5"/>
<path d="M114.323 45.0959C113.72 45.0959 113.219 44.8959 112.819 44.4959C112.419 44.0852 112.219 43.5866 112.219 42.9999C112.219 42.4079 112.419 41.9119 112.819 41.5119C113.219 41.1066 113.72 40.9039 114.323 40.9039C114.717 40.9039 115.072 40.9999 115.387 41.1919C115.701 41.3786 115.931 41.6319 116.075 41.9519L115.643 42.1999C115.536 41.9599 115.363 41.7706 115.123 41.6319C114.888 41.4879 114.621 41.4159 114.323 41.4159C113.88 41.4159 113.507 41.5706 113.203 41.8799C112.899 42.1839 112.747 42.5572 112.747 42.9999C112.747 43.4372 112.899 43.8132 113.203 44.1279C113.507 44.4319 113.88 44.5839 114.323 44.5839C114.616 44.5839 114.88 44.5146 115.115 44.3759C115.355 44.2372 115.541 44.0452 115.675 43.7999L116.115 44.0559C115.949 44.3759 115.707 44.6292 115.387 44.8159C115.067 45.0026 114.712 45.0959 114.323 45.0959Z" fill="#C5C5C5"/>
<path d="M116.314 40.9999H119.674V41.5119H118.258V44.9999H117.73V41.5119H116.314V40.9999Z" fill="#C5C5C5"/>
<path d="M122.862 42.9439C123.299 43.1039 123.518 43.4159 123.518 43.8799C123.518 44.2106 123.406 44.4799 123.182 44.6879C122.963 44.8959 122.657 44.9999 122.262 44.9999H120.318V40.9999H122.102C122.486 40.9999 122.785 41.0986 122.998 41.2959C123.217 41.4932 123.326 41.7519 123.326 42.0719C123.326 42.4719 123.171 42.7626 122.862 42.9439ZM122.102 41.5119H120.846V42.7279H122.102C122.566 42.7279 122.798 42.5199 122.798 42.1039C122.798 41.9172 122.737 41.7732 122.614 41.6719C122.497 41.5652 122.326 41.5119 122.102 41.5119ZM120.846 44.4879H122.262C122.497 44.4879 122.675 44.4319 122.798 44.3199C122.926 44.2079 122.99 44.0506 122.99 43.8479C122.99 43.6559 122.926 43.5066 122.798 43.3999C122.675 43.2932 122.497 43.2399 122.262 43.2399H120.846V44.4879Z" fill="#C5C5C5"/>
<path d="M127.67 44.4959C127.259 44.8959 126.763 45.0959 126.182 45.0959C125.59 45.0959 125.091 44.8959 124.686 44.4959C124.281 44.0906 124.078 43.5919 124.078 42.9999C124.078 42.4079 124.281 41.9119 124.686 41.5119C125.091 41.1066 125.59 40.9039 126.182 40.9039C126.769 40.9039 127.265 41.1066 127.67 41.5119C128.081 41.9119 128.286 42.4079 128.286 42.9999C128.286 43.5866 128.081 44.0852 127.67 44.4959ZM125.062 44.1279C125.366 44.4319 125.739 44.5839 126.182 44.5839C126.625 44.5839 126.998 44.4319 127.302 44.1279C127.606 43.8132 127.758 43.4372 127.758 42.9999C127.758 42.5572 127.606 42.1839 127.302 41.8799C126.998 41.5706 126.625 41.4159 126.182 41.4159C125.739 41.4159 125.366 41.5706 125.062 41.8799C124.758 42.1839 124.606 42.5572 124.606 42.9999C124.606 43.4372 124.758 43.8132 125.062 44.1279Z" fill="#C5C5C5"/>
</svg>
