<svg width="160" height="60" viewBox="0 0 160 60" fill="none" xmlns="http://www.w3.org/2000/svg">
<rect width="72" height="60" fill="#231F20"/>
<mask id="mask0_1236_2" style="mask-type:luminance" maskUnits="userSpaceOnUse" x="22" y="41" width="29" height="8">
<path fill-rule="evenodd" clip-rule="evenodd" d="M22.3455 41.1074H50.7391V48.5814H22.3455V41.1074Z" fill="white"/>
</mask>
<g mask="url(#mask0_1236_2)">
<path fill-rule="evenodd" clip-rule="evenodd" d="M22.3455 41.1074H23.0536V44.1945C23.3417 43.8386 23.6611 43.571 24.0066 43.3951C24.3536 43.2172 24.7283 43.129 25.1328 43.129C25.5474 43.129 25.9155 43.2266 26.2364 43.4244C26.5578 43.6215 26.7955 43.8877 26.9481 44.2187C27.1007 44.5518 27.1772 45.0722 27.1772 45.7819V48.4541H26.4691V45.9777C26.4691 45.3805 26.4434 44.9805 26.3926 44.7802C26.3044 44.4373 26.1427 44.1796 25.9105 44.0052C25.6779 43.8323 25.372 43.7455 24.9938 43.7455C24.5616 43.7455 24.1748 43.8793 23.8328 44.1469C23.4909 44.4131 23.2652 44.7441 23.1559 45.139C23.0884 45.3933 23.0536 45.8636 23.0536 46.55V48.4541H22.3455V41.1074ZM31.3175 43.1287C32.1697 43.1287 32.8779 43.4176 33.4385 43.9964C33.9487 44.5238 34.2036 45.1483 34.2036 45.8698C34.2036 46.5939 33.9346 47.2272 33.3951 47.769C32.8567 48.3106 32.1626 48.5812 31.3175 48.5812C30.4672 48.5812 29.7712 48.3106 29.2332 47.769C28.6932 47.2272 28.4243 46.5939 28.4243 45.8698C28.4243 45.1517 28.6797 44.5288 29.1899 44.0014C29.7504 43.4191 30.4601 43.1287 31.3175 43.1287ZM31.3144 43.7844C30.7226 43.7844 30.2159 43.9886 29.7908 44.3979C29.3656 44.8073 29.1541 45.3034 29.1541 45.8842C29.1541 46.2579 29.2508 46.6074 29.4438 46.9319C29.6381 47.255 29.9001 47.5043 30.23 47.6808C30.5579 47.8567 30.9206 47.945 31.3144 47.945C31.7088 47.945 32.071 47.8567 32.3993 47.6808C32.7293 47.5043 32.9913 47.255 33.1856 46.9319C33.3781 46.6074 33.4752 46.2579 33.4752 45.8842C33.4752 45.3034 33.2617 44.8073 32.835 44.3979C32.4095 43.9886 31.9027 43.7844 31.3144 43.7844ZM35.5143 43.256H36.2224V44.155C36.4703 43.8235 36.7242 43.5807 36.986 43.427C37.3451 43.2283 37.7235 43.1287 38.1193 43.1287C38.3883 43.1287 38.6417 43.1777 38.8829 43.2769C39.1242 43.375 39.32 43.5073 39.4732 43.6704C39.6259 43.8349 39.7578 44.0699 39.8706 44.3767C40.1063 43.9688 40.403 43.6589 40.7571 43.4468C41.1132 43.2348 41.495 43.1287 41.9044 43.1287C42.2862 43.1287 42.6247 43.2198 42.9164 43.4013C43.2095 43.5822 43.4266 43.8349 43.5692 44.1596C43.7112 44.4846 43.7822 44.9708 43.7822 45.62V48.4538H43.0535V45.6186C43.0535 45.0605 43.0115 44.6784 42.927 44.4698C42.8413 44.2611 42.6978 44.0931 42.4928 43.9657C42.2878 43.8383 42.045 43.7749 41.7604 43.7749C41.4169 43.7749 41.1011 43.8711 40.816 44.0619C40.5299 44.2527 40.3219 44.5075 40.1895 44.8257C40.0575 45.1437 39.992 45.6756 39.992 46.4194V48.4538H39.2838V45.7945C39.2838 45.1681 39.242 44.7423 39.1589 44.5168C39.0758 44.2919 38.9318 44.1124 38.7247 43.9771C38.5167 43.8419 38.272 43.7749 37.9874 43.7749C37.6574 43.7749 37.3502 43.8676 37.064 44.0535C36.7775 44.2398 36.5659 44.4911 36.429 44.8057C36.2919 45.1205 36.2224 45.6036 36.2224 46.253V48.4538H35.5143V43.256ZM49.9506 46.7312L50.551 47.028C50.3536 47.3889 50.1259 47.6808 49.8675 47.9028C49.6091 48.1228 49.3189 48.2928 48.9961 48.4083C48.6718 48.5242 48.3071 48.5812 47.8997 48.5812C46.9935 48.5812 46.2868 48.3037 45.7766 47.7492C45.2669 47.1945 45.0115 46.5681 45.0115 45.8698C45.0115 45.2121 45.2281 44.6249 45.6602 44.111C46.2073 43.4563 46.9416 43.1287 47.8593 43.1287C48.8052 43.1287 49.5617 43.4647 50.1259 44.1352C50.5269 44.6086 50.7318 45.1993 50.7389 45.909H45.7403C45.7539 46.5112 45.9609 47.0038 46.3583 47.3868C46.7572 47.7719 47.2503 47.9647 47.8352 47.9647C48.1182 47.9647 48.3938 47.9191 48.6612 47.8275C48.9286 47.7362 49.1558 47.6153 49.3432 47.4637C49.5311 47.312 49.734 47.0686 49.9506 46.7312ZM49.9572 45.3313C49.8614 44.974 49.7229 44.6899 49.5406 44.4764C49.3567 44.2627 49.1155 44.0913 48.8153 43.9609C48.5151 43.8301 48.1993 43.7651 47.8694 43.7651C47.3229 43.7651 46.8539 43.9282 46.4616 44.2563C46.1735 44.4962 45.9584 44.8535 45.8108 45.3313H49.9572Z" fill="white"/>
</g>
<mask id="mask1_1236_2" style="mask-type:luminance" maskUnits="userSpaceOnUse" x="22" y="12" width="29" height="29">
<path fill-rule="evenodd" clip-rule="evenodd" d="M22.3447 12.5H50.8224V40.3481H22.3447V12.5Z" fill="white"/>
</mask>
<g mask="url(#mask1_1236_2)">
<path fill-rule="evenodd" clip-rule="evenodd" d="M22.3447 21.6065L36.6609 12.5L50.8224 21.6065V40.3482H41.1683L39.2278 36.2784C40.3162 35.7581 40.8602 34.8566 40.8602 33.5752C40.8602 32.1284 39.9545 30.8182 38.4803 30.599C38.1014 30.5401 37.557 30.5117 36.8498 30.5117H33.1955V40.3482H22.3447V21.6065ZM38.4422 40.3482H35.7439V36.7059H37.0449L38.4422 40.3482ZM35.7439 32.172V35.0459H36.8676C37.8654 35.0459 38.363 34.5538 38.363 33.568C38.363 33.2269 38.29 32.9477 38.142 32.7299C37.9938 32.5121 37.8216 32.3664 37.6267 32.2868C37.4323 32.2101 37.1432 32.172 36.7659 32.172H35.7439Z" fill="white"/>
</g>
<path d="M77.8001 21V27.34H78.5501V29.34H77.8501V28H72.8501V29.34H72.1501V27.34H72.7201C73.1801 26.8 73.4101 25.9667 73.4101 24.84V21H77.8001ZM73.5501 27.34H77.1001V21.66H74.1101V24.86C74.1101 25.96 73.9234 26.7867 73.5501 27.34Z" fill="#C5C5C5"/>
<path d="M80.2644 26.85L83.2444 23H83.8044V28H83.1444V24.15L80.1644 28H79.6044V23H80.2644V26.85Z" fill="#C5C5C5"/>
<path d="M87.7801 25.43C88.3601 25.65 88.6501 26.05 88.6501 26.63C88.6501 27.05 88.4868 27.4033 88.1601 27.69C87.8468 27.9767 87.3868 28.12 86.7801 28.12C85.7668 28.12 85.1068 27.72 84.8001 26.92L85.3601 26.59C85.5734 27.1833 86.0468 27.48 86.7801 27.48C87.1601 27.48 87.4568 27.4 87.6701 27.24C87.8834 27.0733 87.9901 26.8567 87.9901 26.59C87.9901 26.35 87.9034 26.16 87.7301 26.02C87.5568 25.8733 87.3234 25.8 87.0301 25.8H86.3001V25.16H86.8301C87.1168 25.16 87.3401 25.09 87.5001 24.95C87.6668 24.8033 87.7501 24.6033 87.7501 24.35C87.7501 24.11 87.6501 23.9133 87.4501 23.76C87.2568 23.6 87.0001 23.52 86.6801 23.52C86.0601 23.52 85.6434 23.77 85.4301 24.27L84.8801 23.95C85.2134 23.2367 85.8134 22.88 86.6801 22.88C87.2134 22.88 87.6334 23.02 87.9401 23.3C88.2534 23.5733 88.4101 23.91 88.4101 24.31C88.4101 24.8233 88.2001 25.1967 87.7801 25.43Z" fill="#C5C5C5"/>
<path d="M93.9532 23.98V23H94.6132V28H93.9532V27.02C93.4932 27.7533 92.8199 28.12 91.9332 28.12C91.2199 28.12 90.6099 27.8667 90.1032 27.36C89.6032 26.8533 89.3532 26.2333 89.3532 25.5C89.3532 24.7667 89.6032 24.1467 90.1032 23.64C90.6099 23.1333 91.2199 22.88 91.9332 22.88C92.8199 22.88 93.4932 23.2467 93.9532 23.98ZM90.5832 26.91C90.9632 27.29 91.4299 27.48 91.9832 27.48C92.5366 27.48 93.0032 27.29 93.3832 26.91C93.7632 26.5167 93.9532 26.0467 93.9532 25.5C93.9532 24.9467 93.7632 24.48 93.3832 24.1C93.0032 23.7133 92.5366 23.52 91.9832 23.52C91.4299 23.52 90.9632 23.7133 90.5832 24.1C90.2032 24.48 90.0132 24.9467 90.0132 25.5C90.0132 26.0467 90.2032 26.5167 90.5832 26.91Z" fill="#C5C5C5"/>
<path d="M99.4106 22.2H96.8106V21.62H99.4106V22.2ZM96.6706 26.85L99.6506 23H100.211V28H99.5506V24.15L96.5706 28H96.0106V23H96.6706V26.85Z" fill="#C5C5C5"/>
<path d="M105.146 25.18V23H105.806V28H105.146V25.82H102.266V28H101.606V23H102.266V25.18H105.146Z" fill="#C5C5C5"/>
<path d="M110.362 26.85L113.342 23H113.902V28H113.242V24.15L110.262 28H109.702V23H110.362V26.85Z" fill="#C5C5C5"/>
<path d="M118.838 25.18V23H119.498V28H118.838V25.82H115.958V28H115.298V23H115.958V25.18H118.838Z" fill="#C5C5C5"/>
<path d="M120.293 23H124.493V23.64H122.723V28H122.063V23.64H120.293V23Z" fill="#C5C5C5"/>
<path d="M127.412 22.88C128.159 22.88 128.756 23.1433 129.202 23.67C129.662 24.19 129.892 24.8067 129.892 25.52C129.892 25.5533 129.886 25.6567 129.872 25.83H125.482C125.549 26.33 125.762 26.73 126.122 27.03C126.482 27.33 126.932 27.48 127.472 27.48C128.232 27.48 128.769 27.1967 129.082 26.63L129.662 26.97C129.442 27.33 129.139 27.6133 128.752 27.82C128.372 28.02 127.942 28.12 127.462 28.12C126.676 28.12 126.036 27.8733 125.542 27.38C125.049 26.8867 124.802 26.26 124.802 25.5C124.802 24.7467 125.046 24.1233 125.532 23.63C126.019 23.13 126.646 22.88 127.412 22.88ZM127.412 23.52C126.892 23.52 126.456 23.6733 126.102 23.98C125.756 24.2867 125.549 24.69 125.482 25.19H129.212C129.139 24.6567 128.936 24.2467 128.602 23.96C128.256 23.6667 127.859 23.52 127.412 23.52Z" fill="#C5C5C5"/>
<path d="M133.622 22.88C134.336 22.88 134.942 23.1333 135.442 23.64C135.949 24.1467 136.202 24.7667 136.202 25.5C136.202 26.2333 135.949 26.8533 135.442 27.36C134.942 27.8667 134.336 28.12 133.622 28.12C132.736 28.12 132.062 27.7533 131.602 27.02V30H130.942V23H131.602V23.98C132.062 23.2467 132.736 22.88 133.622 22.88ZM132.172 26.91C132.552 27.29 133.019 27.48 133.572 27.48C134.126 27.48 134.592 27.29 134.972 26.91C135.352 26.5167 135.542 26.0467 135.542 25.5C135.542 24.9467 135.352 24.48 134.972 24.1C134.592 23.7133 134.126 23.52 133.572 23.52C133.019 23.52 132.552 23.7133 132.172 24.1C131.792 24.48 131.602 24.9467 131.602 25.5C131.602 26.0467 131.792 26.5167 132.172 26.91Z" fill="#C5C5C5"/>
<path d="M137.96 24.9H139.33C139.79 24.9 140.183 25.0467 140.51 25.34C140.836 25.6267 141 25.9967 141 26.45C141 26.91 140.836 27.2833 140.51 27.57C140.196 27.8567 139.803 28 139.33 28H137.3V23H137.96V24.9ZM137.96 27.36H139.33C139.616 27.36 139.856 27.2767 140.05 27.11C140.243 26.9367 140.34 26.7167 140.34 26.45C140.34 26.1833 140.243 25.9667 140.05 25.8C139.856 25.6267 139.616 25.54 139.33 25.54H137.96V27.36Z" fill="#C5C5C5"/>
<path d="M144.258 22.88C145.005 22.88 145.601 23.1433 146.048 23.67C146.508 24.19 146.738 24.8067 146.738 25.52C146.738 25.5533 146.731 25.6567 146.718 25.83H142.328C142.395 26.33 142.608 26.73 142.968 27.03C143.328 27.33 143.778 27.48 144.318 27.48C145.078 27.48 145.615 27.1967 145.928 26.63L146.508 26.97C146.288 27.33 145.985 27.6133 145.598 27.82C145.218 28.02 144.788 28.12 144.308 28.12C143.521 28.12 142.881 27.8733 142.388 27.38C141.895 26.8867 141.648 26.26 141.648 25.5C141.648 24.7467 141.891 24.1233 142.378 23.63C142.865 23.13 143.491 22.88 144.258 22.88ZM144.258 23.52C143.738 23.52 143.301 23.6733 142.948 23.98C142.601 24.2867 142.395 24.69 142.328 25.19H146.058C145.985 24.6567 145.781 24.2467 145.448 23.96C145.101 23.6667 144.705 23.52 144.258 23.52Z" fill="#C5C5C5"/>
<path d="M150.468 22.88C151.181 22.88 151.788 23.1333 152.288 23.64C152.795 24.1467 153.048 24.7667 153.048 25.5C153.048 26.2333 152.795 26.8533 152.288 27.36C151.788 27.8667 151.181 28.12 150.468 28.12C149.581 28.12 148.908 27.7533 148.448 27.02V30H147.788V23H148.448V23.98C148.908 23.2467 149.581 22.88 150.468 22.88ZM149.018 26.91C149.398 27.29 149.865 27.48 150.418 27.48C150.971 27.48 151.438 27.29 151.818 26.91C152.198 26.5167 152.388 26.0467 152.388 25.5C152.388 24.9467 152.198 24.48 151.818 24.1C151.438 23.7133 150.971 23.52 150.418 23.52C149.865 23.52 149.398 23.7133 149.018 24.1C148.638 24.48 148.448 24.9467 148.448 25.5C148.448 26.0467 148.638 26.5167 149.018 26.91Z" fill="#C5C5C5"/>
<path d="M158.445 23.98V23H159.105V28H158.445V27.02C157.985 27.7533 157.312 28.12 156.425 28.12C155.712 28.12 155.102 27.8667 154.595 27.36C154.095 26.8533 153.845 26.2333 153.845 25.5C153.845 24.7667 154.095 24.1467 154.595 23.64C155.102 23.1333 155.712 22.88 156.425 22.88C157.312 22.88 157.985 23.2467 158.445 23.98ZM155.075 26.91C155.455 27.29 155.922 27.48 156.475 27.48C157.029 27.48 157.495 27.29 157.875 26.91C158.255 26.5167 158.445 26.0467 158.445 25.5C158.445 24.9467 158.255 24.48 157.875 24.1C157.495 23.7133 157.029 23.52 156.475 23.52C155.922 23.52 155.455 23.7133 155.075 24.1C154.695 24.48 154.505 24.9467 154.505 25.5C154.505 26.0467 154.695 26.5167 155.075 26.91Z" fill="#C5C5C5"/>
<path d="M78.2001 41H77.4601L76.8101 39.28H73.4901L72.8401 41H72.1001L74.7901 34H75.5101L78.2001 41ZM75.1501 34.87L73.7401 38.62H76.5601L75.1501 34.87Z" fill="#C5C5C5"/>
<path d="M81.6789 35.88C82.3923 35.88 82.9989 36.1333 83.4989 36.64C84.0056 37.1467 84.2589 37.7667 84.2589 38.5C84.2589 39.2333 84.0056 39.8533 83.4989 40.36C82.9989 40.8667 82.3923 41.12 81.6789 41.12C80.7923 41.12 80.1189 40.7533 79.6589 40.02V43H78.9989V36H79.6589V36.98C80.1189 36.2467 80.7923 35.88 81.6789 35.88ZM80.2289 39.91C80.6089 40.29 81.0756 40.48 81.6289 40.48C82.1823 40.48 82.6489 40.29 83.0289 39.91C83.4089 39.5167 83.5989 39.0467 83.5989 38.5C83.5989 37.9467 83.4089 37.48 83.0289 37.1C82.6489 36.7133 82.1823 36.52 81.6289 36.52C81.0756 36.52 80.6089 36.7133 80.2289 37.1C79.8489 37.48 79.6589 37.9467 79.6589 38.5C79.6589 39.0467 79.8489 39.5167 80.2289 39.91Z" fill="#C5C5C5"/>
<path d="M87.2548 38.41L89.2048 41H88.4148L86.8548 38.94L85.2948 41H84.5048L86.4648 38.41L84.6348 36H85.4248L86.8548 37.89L88.2848 36H89.0748L87.2548 38.41Z" fill="#C5C5C5"/>
<path d="M90.7624 39.85L93.7424 36H94.3024V41H93.6424V37.15L90.6624 41H90.1024V36H90.7624V39.85Z" fill="#C5C5C5"/>
<path d="M95.0981 36H99.2981V36.64H97.5281V41H96.8681V36.64H95.0981V36Z" fill="#C5C5C5"/>
<path d="M102.217 35.88C102.964 35.88 103.56 36.1433 104.007 36.67C104.467 37.19 104.697 37.8067 104.697 38.52C104.697 38.5533 104.69 38.6567 104.677 38.83H100.287C100.354 39.33 100.567 39.73 100.927 40.03C101.287 40.33 101.737 40.48 102.277 40.48C103.037 40.48 103.574 40.1967 103.887 39.63L104.467 39.97C104.247 40.33 103.944 40.6133 103.557 40.82C103.177 41.02 102.747 41.12 102.267 41.12C101.48 41.12 100.84 40.8733 100.347 40.38C99.8538 39.8867 99.6071 39.26 99.6071 38.5C99.6071 37.7467 99.8505 37.1233 100.337 36.63C100.824 36.13 101.45 35.88 102.217 35.88ZM102.217 36.52C101.697 36.52 101.26 36.6733 100.907 36.98C100.56 37.2867 100.354 37.69 100.287 38.19H104.017C103.944 37.6567 103.74 37.2467 103.407 36.96C103.06 36.6667 102.664 36.52 102.217 36.52Z" fill="#C5C5C5"/>
<path d="M107.107 38.4L109.787 41H108.907L106.407 38.59V41H105.747V36H106.407V38.21L108.787 36H109.687L107.107 38.4Z" fill="#C5C5C5"/>
<path d="M110.088 36H114.288V36.64H112.518V41H111.858V36.64H110.088V36Z" fill="#C5C5C5"/>
<path d="M117.073 40.19L118.693 36H119.393L117.253 41.46C117.053 41.9667 116.773 42.3567 116.413 42.63C116.059 42.91 115.666 43.0333 115.233 43V42.38C115.833 42.4533 116.289 42.1067 116.603 41.34L116.733 41.03L114.493 36H115.193L117.073 40.19Z" fill="#C5C5C5"/>
<path d="M122.87 35.88C123.584 35.88 124.19 36.1333 124.69 36.64C125.197 37.1467 125.45 37.7667 125.45 38.5C125.45 39.2333 125.197 39.8533 124.69 40.36C124.19 40.8667 123.584 41.12 122.87 41.12C121.984 41.12 121.31 40.7533 120.85 40.02V43H120.19V36H120.85V36.98C121.31 36.2467 121.984 35.88 122.87 35.88ZM121.42 39.91C121.8 40.29 122.267 40.48 122.82 40.48C123.374 40.48 123.84 40.29 124.22 39.91C124.6 39.5167 124.79 39.0467 124.79 38.5C124.79 37.9467 124.6 37.48 124.22 37.1C123.84 36.7133 123.374 36.52 122.82 36.52C122.267 36.52 121.8 36.7133 121.42 37.1C121.04 37.48 120.85 37.9467 120.85 38.5C120.85 39.0467 121.04 39.5167 121.42 39.91Z" fill="#C5C5C5"/>
<path d="M130.848 36.98V36H131.508V41H130.848V40.02C130.388 40.7533 129.714 41.12 128.828 41.12C128.114 41.12 127.504 40.8667 126.998 40.36C126.498 39.8533 126.248 39.2333 126.248 38.5C126.248 37.7667 126.498 37.1467 126.998 36.64C127.504 36.1333 128.114 35.88 128.828 35.88C129.714 35.88 130.388 36.2467 130.848 36.98ZM127.478 39.91C127.858 40.29 128.324 40.48 128.878 40.48C129.431 40.48 129.898 40.29 130.278 39.91C130.658 39.5167 130.848 39.0467 130.848 38.5C130.848 37.9467 130.658 37.48 130.278 37.1C129.898 36.7133 129.431 36.52 128.878 36.52C128.324 36.52 127.858 36.7133 127.478 37.1C127.098 37.48 126.908 37.9467 126.908 38.5C126.908 39.0467 127.098 39.5167 127.478 39.91Z" fill="#C5C5C5"/>
</svg>
