<svg width="191" height="72" viewBox="0 0 191 72" fill="none" xmlns="http://www.w3.org/2000/svg">
<rect width="87" height="72" fill="#231F20"/>
<mask id="mask0_155_2" style="mask-type:luminance" maskUnits="userSpaceOnUse" x="27" y="49" width="35" height="10">
<path fill-rule="evenodd" clip-rule="evenodd" d="M27.0009 49.3291H61.3098V58.2979H27.0009V49.3291Z" fill="white"/>
</mask>
<g mask="url(#mask0_155_2)">
<path fill-rule="evenodd" clip-rule="evenodd" d="M27.0009 49.3291H27.8565V53.0336C28.2046 52.6065 28.5905 52.2854 29.0081 52.0743C29.4274 51.8608 29.8802 51.755 30.3689 51.755C30.8698 51.755 31.3147 51.8721 31.7025 52.1094C32.0907 52.346 32.378 52.6654 32.5624 53.0627C32.7468 53.4623 32.8392 54.0868 32.8392 54.9385V58.1451H31.9835V55.1734C31.9835 54.4568 31.9525 53.9767 31.8911 53.7365C31.7846 53.325 31.5892 53.0158 31.3086 52.8064C31.0275 52.5989 30.6579 52.4948 30.201 52.4948C29.6787 52.4948 29.2113 52.6554 28.7981 52.9765C28.3849 53.2959 28.1122 53.6931 27.9801 54.167C27.8986 54.4722 27.8565 55.0365 27.8565 55.8602V58.1451H27.0009V49.3291ZM37.842 51.7546C38.8718 51.7546 39.7276 52.1013 40.4049 52.7958C41.0214 53.4287 41.3294 54.1781 41.3294 55.0439C41.3294 55.9128 41.0044 56.6728 40.3525 57.3229C39.7019 57.9728 38.8632 58.2976 37.842 58.2976C36.8147 58.2976 35.9736 57.9728 35.3236 57.3229C34.6711 56.6728 34.3461 55.9128 34.3461 55.0439C34.3461 54.1822 34.6547 53.4347 35.2712 52.8018C35.9485 52.1031 36.8061 51.7546 37.842 51.7546ZM37.8383 52.5415C37.1233 52.5415 36.511 52.7864 35.9973 53.2776C35.4836 53.7689 35.2279 54.3642 35.2279 55.0612C35.2279 55.5097 35.3448 55.929 35.578 56.3184C35.8128 56.7062 36.1294 57.0054 36.5279 57.2171C36.9242 57.4281 37.3624 57.5341 37.8383 57.5341C38.3149 57.5341 38.7525 57.4281 39.1492 57.2171C39.5479 57.0054 39.8645 56.7062 40.0993 56.3184C40.332 55.929 40.4493 55.5097 40.4493 55.0612C40.4493 54.3642 40.1913 53.7689 39.6757 53.2776C39.1615 52.7864 38.5492 52.5415 37.8383 52.5415ZM42.9132 51.9073H43.7688V52.9861C44.0683 52.5883 44.3751 52.2969 44.6915 52.1126C45.1254 51.8741 45.5826 51.7546 46.0609 51.7546C46.3859 51.7546 46.6921 51.8134 46.9836 51.9324C47.2751 52.0501 47.5118 52.2089 47.6969 52.4046C47.8813 52.602 48.0407 52.884 48.1771 53.2521C48.4619 52.7626 48.8204 52.3909 49.2482 52.1363C49.6786 51.8819 50.1399 51.7546 50.6346 51.7546C51.0959 51.7546 51.5049 51.8639 51.8574 52.0816C52.2115 52.2988 52.4739 52.602 52.6462 52.9916C52.8178 53.3817 52.9036 53.9651 52.9036 54.7441V58.1447H52.023V54.7425C52.023 54.0727 51.9723 53.6142 51.8701 53.3639C51.7667 53.1134 51.5933 52.9119 51.3455 52.759C51.0978 52.6061 50.8044 52.53 50.4606 52.53C50.0455 52.53 49.6639 52.6454 49.3194 52.8744C48.9737 53.1034 48.7224 53.4091 48.5624 53.7909C48.4028 54.1726 48.3237 54.8108 48.3237 55.7034V58.1447H47.468V54.9535C47.468 54.2018 47.4175 53.6909 47.317 53.4204C47.2167 53.1504 47.0426 52.935 46.7924 52.7727C46.5411 52.6104 46.2454 52.53 45.9015 52.53C45.5028 52.53 45.1315 52.6413 44.7858 52.8643C44.4396 53.0878 44.1839 53.3894 44.0184 53.767C43.8528 54.1447 43.7688 54.7245 43.7688 55.5037V58.1447H42.9132V51.9073ZM60.3571 56.0775L61.0825 56.4338C60.844 56.8668 60.5688 57.2171 60.2566 57.4835C59.9443 57.7475 59.5938 57.9515 59.2036 58.0901C58.8118 58.2292 58.3712 58.2976 57.8788 58.2976C56.7838 58.2976 55.93 57.9646 55.3135 57.2991C54.6976 56.6335 54.3889 55.8819 54.3889 55.0439C54.3889 54.2547 54.6507 53.5501 55.1728 52.9333C55.8339 52.1477 56.7212 51.7546 57.83 51.7546C58.973 51.7546 59.8872 52.1578 60.5688 52.9624C61.0534 53.5304 61.3009 54.2393 61.3095 55.091H55.2695C55.286 55.8135 55.5361 56.4047 56.0163 56.8643C56.4984 57.3264 57.0942 57.5578 57.8009 57.5578C58.1429 57.5578 58.4759 57.503 58.799 57.3931C59.1221 57.2836 59.3967 57.1385 59.6231 56.9566C59.8501 56.7745 60.0953 56.4825 60.3571 56.0775ZM60.3651 54.3977C60.2493 53.969 60.082 53.6281 59.8617 53.3719C59.6395 53.1155 59.348 52.9098 58.9853 52.7533C58.6225 52.5963 58.241 52.5184 57.8423 52.5184C57.182 52.5184 56.6153 52.714 56.1412 53.1077C55.7931 53.3956 55.5332 53.8243 55.3548 54.3977H60.3651Z" fill="white"/>
</g>
<mask id="mask1_155_2" style="mask-type:luminance" maskUnits="userSpaceOnUse" x="27" y="15" width="35" height="34">
<path fill-rule="evenodd" clip-rule="evenodd" d="M27 15H61.4106V48.4178H27V15Z" fill="white"/>
</mask>
<g mask="url(#mask1_155_2)">
<path fill-rule="evenodd" clip-rule="evenodd" d="M27 25.9278L44.2987 15L61.4106 25.9278V48.4178H49.7452L47.4003 43.5341C48.7155 42.9097 49.3728 41.8279 49.3728 40.2903C49.3728 38.5541 48.2784 36.9819 46.4971 36.7188C46.0394 36.6481 45.3815 36.614 44.5269 36.614H40.1114V48.4178H27V25.9278ZM46.4511 48.4178H43.1907V44.0471H44.7628L46.4511 48.4178ZM43.1907 38.6064V42.055H44.5485C45.7542 42.055 46.3554 41.4646 46.3554 40.2816C46.3554 39.8722 46.2672 39.5372 46.0884 39.2759C45.9094 39.0145 45.7012 38.8397 45.4658 38.7441C45.2308 38.6521 44.8815 38.6064 44.4256 38.6064H43.1907Z" fill="white"/>
</g>
<path d="M108.8 21V27.34H109.55V29.34H108.85V28H103.85V29.34H103.15V27.34H103.72C104.18 26.8 104.41 25.9667 104.41 24.84V21H108.8ZM104.55 27.34H108.1V21.66H105.11V24.86C105.11 25.96 104.923 26.7867 104.55 27.34Z" fill="black"/>
<path d="M111.264 26.85L114.244 23H114.804V28H114.144V24.15L111.164 28H110.604V23H111.264V26.85Z" fill="black"/>
<path d="M118.78 25.43C119.36 25.65 119.65 26.05 119.65 26.63C119.65 27.05 119.487 27.4033 119.16 27.69C118.847 27.9767 118.387 28.12 117.78 28.12C116.767 28.12 116.107 27.72 115.8 26.92L116.36 26.59C116.573 27.1833 117.047 27.48 117.78 27.48C118.16 27.48 118.457 27.4 118.67 27.24C118.883 27.0733 118.99 26.8567 118.99 26.59C118.99 26.35 118.903 26.16 118.73 26.02C118.557 25.8733 118.323 25.8 118.03 25.8H117.3V25.16H117.83C118.117 25.16 118.34 25.09 118.5 24.95C118.667 24.8033 118.75 24.6033 118.75 24.35C118.75 24.11 118.65 23.9133 118.45 23.76C118.257 23.6 118 23.52 117.68 23.52C117.06 23.52 116.643 23.77 116.43 24.27L115.88 23.95C116.213 23.2367 116.813 22.88 117.68 22.88C118.213 22.88 118.633 23.02 118.94 23.3C119.253 23.5733 119.41 23.91 119.41 24.31C119.41 24.8233 119.2 25.1967 118.78 25.43Z" fill="black"/>
<path d="M124.953 23.98V23H125.613V28H124.953V27.02C124.493 27.7533 123.82 28.12 122.933 28.12C122.22 28.12 121.61 27.8667 121.103 27.36C120.603 26.8533 120.353 26.2333 120.353 25.5C120.353 24.7667 120.603 24.1467 121.103 23.64C121.61 23.1333 122.22 22.88 122.933 22.88C123.82 22.88 124.493 23.2467 124.953 23.98ZM121.583 26.91C121.963 27.29 122.43 27.48 122.983 27.48C123.536 27.48 124.003 27.29 124.383 26.91C124.763 26.5167 124.953 26.0467 124.953 25.5C124.953 24.9467 124.763 24.48 124.383 24.1C124.003 23.7133 123.536 23.52 122.983 23.52C122.43 23.52 121.963 23.7133 121.583 24.1C121.203 24.48 121.013 24.9467 121.013 25.5C121.013 26.0467 121.203 26.5167 121.583 26.91Z" fill="black"/>
<path d="M130.411 22.2H127.811V21.62H130.411V22.2ZM127.671 26.85L130.651 23H131.211V28H130.551V24.15L127.571 28H127.011V23H127.671V26.85Z" fill="black"/>
<path d="M136.146 25.18V23H136.806V28H136.146V25.82H133.266V28H132.606V23H133.266V25.18H136.146Z" fill="black"/>
<path d="M141.362 26.85L144.342 23H144.902V28H144.242V24.15L141.262 28H140.702V23H141.362V26.85Z" fill="black"/>
<path d="M149.838 25.18V23H150.498V28H149.838V25.82H146.958V28H146.298V23H146.958V25.18H149.838Z" fill="black"/>
<path d="M151.293 23H155.493V23.64H153.723V28H153.063V23.64H151.293V23Z" fill="black"/>
<path d="M158.412 22.88C159.159 22.88 159.756 23.1433 160.202 23.67C160.662 24.19 160.892 24.8067 160.892 25.52C160.892 25.5533 160.886 25.6567 160.872 25.83H156.482C156.549 26.33 156.762 26.73 157.122 27.03C157.482 27.33 157.932 27.48 158.472 27.48C159.232 27.48 159.769 27.1967 160.082 26.63L160.662 26.97C160.442 27.33 160.139 27.6133 159.752 27.82C159.372 28.02 158.942 28.12 158.462 28.12C157.676 28.12 157.036 27.8733 156.542 27.38C156.049 26.8867 155.802 26.26 155.802 25.5C155.802 24.7467 156.046 24.1233 156.532 23.63C157.019 23.13 157.646 22.88 158.412 22.88ZM158.412 23.52C157.892 23.52 157.456 23.6733 157.102 23.98C156.756 24.2867 156.549 24.69 156.482 25.19H160.212C160.139 24.6567 159.936 24.2467 159.602 23.96C159.256 23.6667 158.859 23.52 158.412 23.52Z" fill="black"/>
<path d="M164.622 22.88C165.336 22.88 165.942 23.1333 166.442 23.64C166.949 24.1467 167.202 24.7667 167.202 25.5C167.202 26.2333 166.949 26.8533 166.442 27.36C165.942 27.8667 165.336 28.12 164.622 28.12C163.736 28.12 163.062 27.7533 162.602 27.02V30H161.942V23H162.602V23.98C163.062 23.2467 163.736 22.88 164.622 22.88ZM163.172 26.91C163.552 27.29 164.019 27.48 164.572 27.48C165.126 27.48 165.592 27.29 165.972 26.91C166.352 26.5167 166.542 26.0467 166.542 25.5C166.542 24.9467 166.352 24.48 165.972 24.1C165.592 23.7133 165.126 23.52 164.572 23.52C164.019 23.52 163.552 23.7133 163.172 24.1C162.792 24.48 162.602 24.9467 162.602 25.5C162.602 26.0467 162.792 26.5167 163.172 26.91Z" fill="black"/>
<path d="M168.96 24.9H170.33C170.79 24.9 171.183 25.0467 171.51 25.34C171.836 25.6267 172 25.9967 172 26.45C172 26.91 171.836 27.2833 171.51 27.57C171.196 27.8567 170.803 28 170.33 28H168.3V23H168.96V24.9ZM168.96 27.36H170.33C170.616 27.36 170.856 27.2767 171.05 27.11C171.243 26.9367 171.34 26.7167 171.34 26.45C171.34 26.1833 171.243 25.9667 171.05 25.8C170.856 25.6267 170.616 25.54 170.33 25.54H168.96V27.36Z" fill="black"/>
<path d="M175.258 22.88C176.005 22.88 176.601 23.1433 177.048 23.67C177.508 24.19 177.738 24.8067 177.738 25.52C177.738 25.5533 177.731 25.6567 177.718 25.83H173.328C173.395 26.33 173.608 26.73 173.968 27.03C174.328 27.33 174.778 27.48 175.318 27.48C176.078 27.48 176.615 27.1967 176.928 26.63L177.508 26.97C177.288 27.33 176.985 27.6133 176.598 27.82C176.218 28.02 175.788 28.12 175.308 28.12C174.521 28.12 173.881 27.8733 173.388 27.38C172.895 26.8867 172.648 26.26 172.648 25.5C172.648 24.7467 172.891 24.1233 173.378 23.63C173.865 23.13 174.491 22.88 175.258 22.88ZM175.258 23.52C174.738 23.52 174.301 23.6733 173.948 23.98C173.601 24.2867 173.395 24.69 173.328 25.19H177.058C176.985 24.6567 176.781 24.2467 176.448 23.96C176.101 23.6667 175.705 23.52 175.258 23.52Z" fill="black"/>
<path d="M181.468 22.88C182.181 22.88 182.788 23.1333 183.288 23.64C183.795 24.1467 184.048 24.7667 184.048 25.5C184.048 26.2333 183.795 26.8533 183.288 27.36C182.788 27.8667 182.181 28.12 181.468 28.12C180.581 28.12 179.908 27.7533 179.448 27.02V30H178.788V23H179.448V23.98C179.908 23.2467 180.581 22.88 181.468 22.88ZM180.018 26.91C180.398 27.29 180.865 27.48 181.418 27.48C181.971 27.48 182.438 27.29 182.818 26.91C183.198 26.5167 183.388 26.0467 183.388 25.5C183.388 24.9467 183.198 24.48 182.818 24.1C182.438 23.7133 181.971 23.52 181.418 23.52C180.865 23.52 180.398 23.7133 180.018 24.1C179.638 24.48 179.448 24.9467 179.448 25.5C179.448 26.0467 179.638 26.5167 180.018 26.91Z" fill="black"/>
<path d="M189.445 23.98V23H190.105V28H189.445V27.02C188.985 27.7533 188.312 28.12 187.425 28.12C186.712 28.12 186.102 27.8667 185.595 27.36C185.095 26.8533 184.845 26.2333 184.845 25.5C184.845 24.7667 185.095 24.1467 185.595 23.64C186.102 23.1333 186.712 22.88 187.425 22.88C188.312 22.88 188.985 23.2467 189.445 23.98ZM186.075 26.91C186.455 27.29 186.922 27.48 187.475 27.48C188.029 27.48 188.495 27.29 188.875 26.91C189.255 26.5167 189.445 26.0467 189.445 25.5C189.445 24.9467 189.255 24.48 188.875 24.1C188.495 23.7133 188.029 23.52 187.475 23.52C186.922 23.52 186.455 23.7133 186.075 24.1C185.695 24.48 185.505 24.9467 185.505 25.5C185.505 26.0467 185.695 26.5167 186.075 26.91Z" fill="black"/>
<path d="M109.2 42H108.46L107.81 40.28H104.49L103.84 42H103.1L105.79 35H106.51L109.2 42ZM106.15 35.87L104.74 39.62H107.56L106.15 35.87Z" fill="black"/>
<path d="M112.679 36.88C113.392 36.88 113.999 37.1333 114.499 37.64C115.006 38.1467 115.259 38.7667 115.259 39.5C115.259 40.2333 115.006 40.8533 114.499 41.36C113.999 41.8667 113.392 42.12 112.679 42.12C111.792 42.12 111.119 41.7533 110.659 41.02V44H109.999V37H110.659V37.98C111.119 37.2467 111.792 36.88 112.679 36.88ZM111.229 40.91C111.609 41.29 112.076 41.48 112.629 41.48C113.182 41.48 113.649 41.29 114.029 40.91C114.409 40.5167 114.599 40.0467 114.599 39.5C114.599 38.9467 114.409 38.48 114.029 38.1C113.649 37.7133 113.182 37.52 112.629 37.52C112.076 37.52 111.609 37.7133 111.229 38.1C110.849 38.48 110.659 38.9467 110.659 39.5C110.659 40.0467 110.849 40.5167 111.229 40.91Z" fill="black"/>
<path d="M118.255 39.41L120.205 42H119.415L117.855 39.94L116.295 42H115.505L117.465 39.41L115.635 37H116.425L117.855 38.89L119.285 37H120.075L118.255 39.41Z" fill="black"/>
<path d="M121.762 40.85L124.742 37H125.302V42H124.642V38.15L121.662 42H121.102V37H121.762V40.85Z" fill="black"/>
<path d="M126.098 37H130.298V37.64H128.528V42H127.868V37.64H126.098V37Z" fill="black"/>
<path d="M133.217 36.88C133.964 36.88 134.56 37.1433 135.007 37.67C135.467 38.19 135.697 38.8067 135.697 39.52C135.697 39.5533 135.69 39.6567 135.677 39.83H131.287C131.354 40.33 131.567 40.73 131.927 41.03C132.287 41.33 132.737 41.48 133.277 41.48C134.037 41.48 134.574 41.1967 134.887 40.63L135.467 40.97C135.247 41.33 134.944 41.6133 134.557 41.82C134.177 42.02 133.747 42.12 133.267 42.12C132.48 42.12 131.84 41.8733 131.347 41.38C130.854 40.8867 130.607 40.26 130.607 39.5C130.607 38.7467 130.85 38.1233 131.337 37.63C131.824 37.13 132.45 36.88 133.217 36.88ZM133.217 37.52C132.697 37.52 132.26 37.6733 131.907 37.98C131.56 38.2867 131.354 38.69 131.287 39.19H135.017C134.944 38.6567 134.74 38.2467 134.407 37.96C134.06 37.6667 133.664 37.52 133.217 37.52Z" fill="black"/>
<path d="M138.107 39.4L140.787 42H139.907L137.407 39.59V42H136.747V37H137.407V39.21L139.787 37H140.687L138.107 39.4Z" fill="black"/>
<path d="M141.088 37H145.288V37.64H143.518V42H142.858V37.64H141.088V37Z" fill="black"/>
<path d="M148.073 41.19L149.693 37H150.393L148.253 42.46C148.053 42.9667 147.773 43.3567 147.413 43.63C147.059 43.91 146.666 44.0333 146.233 44V43.38C146.833 43.4533 147.289 43.1067 147.603 42.34L147.733 42.03L145.493 37H146.193L148.073 41.19Z" fill="black"/>
<path d="M153.87 36.88C154.584 36.88 155.19 37.1333 155.69 37.64C156.197 38.1467 156.45 38.7667 156.45 39.5C156.45 40.2333 156.197 40.8533 155.69 41.36C155.19 41.8667 154.584 42.12 153.87 42.12C152.984 42.12 152.31 41.7533 151.85 41.02V44H151.19V37H151.85V37.98C152.31 37.2467 152.984 36.88 153.87 36.88ZM152.42 40.91C152.8 41.29 153.267 41.48 153.82 41.48C154.374 41.48 154.84 41.29 155.22 40.91C155.6 40.5167 155.79 40.0467 155.79 39.5C155.79 38.9467 155.6 38.48 155.22 38.1C154.84 37.7133 154.374 37.52 153.82 37.52C153.267 37.52 152.8 37.7133 152.42 38.1C152.04 38.48 151.85 38.9467 151.85 39.5C151.85 40.0467 152.04 40.5167 152.42 40.91Z" fill="black"/>
<path d="M161.848 37.98V37H162.508V42H161.848V41.02C161.388 41.7533 160.714 42.12 159.828 42.12C159.114 42.12 158.504 41.8667 157.998 41.36C157.498 40.8533 157.248 40.2333 157.248 39.5C157.248 38.7667 157.498 38.1467 157.998 37.64C158.504 37.1333 159.114 36.88 159.828 36.88C160.714 36.88 161.388 37.2467 161.848 37.98ZM158.478 40.91C158.858 41.29 159.324 41.48 159.878 41.48C160.431 41.48 160.898 41.29 161.278 40.91C161.658 40.5167 161.848 40.0467 161.848 39.5C161.848 38.9467 161.658 38.48 161.278 38.1C160.898 37.7133 160.431 37.52 159.878 37.52C159.324 37.52 158.858 37.7133 158.478 38.1C158.098 38.48 157.908 38.9467 157.908 39.5C157.908 40.0467 158.098 40.5167 158.478 40.91Z" fill="black"/>
<path d="M107.07 56.12C106.003 56.12 105.127 55.77 104.44 55.07C103.747 54.3633 103.4 53.5067 103.4 52.5C103.4 51.4933 103.747 50.6367 104.44 49.93C105.127 49.23 106.003 48.88 107.07 48.88C107.71 48.88 108.3 49.0367 108.84 49.35C109.38 49.6567 109.8 50.0733 110.1 50.6L109.48 50.96C109.26 50.5333 108.933 50.1933 108.5 49.94C108.067 49.6867 107.59 49.56 107.07 49.56C106.19 49.56 105.477 49.8433 104.93 50.41C104.377 50.9833 104.1 51.68 104.1 52.5C104.1 53.32 104.377 54.0167 104.93 54.59C105.477 55.1567 106.19 55.44 107.07 55.44C107.59 55.44 108.067 55.3133 108.5 55.06C108.933 54.8067 109.26 54.4667 109.48 54.04L110.1 54.39C109.813 54.9167 109.397 55.3367 108.85 55.65C108.303 55.9633 107.71 56.12 107.07 56.12Z" fill="black"/>
<path d="M110.551 51H114.751V51.64H112.981V56H112.321V51.64H110.551V51Z" fill="black"/>
<path d="M118.235 50.88C118.949 50.88 119.555 51.1333 120.055 51.64C120.562 52.1467 120.815 52.7667 120.815 53.5C120.815 54.2333 120.562 54.8533 120.055 55.36C119.555 55.8667 118.949 56.12 118.235 56.12C117.349 56.12 116.675 55.7533 116.215 55.02V58H115.555V51H116.215V51.98C116.675 51.2467 117.349 50.88 118.235 50.88ZM116.785 54.91C117.165 55.29 117.632 55.48 118.185 55.48C118.739 55.48 119.205 55.29 119.585 54.91C119.965 54.5167 120.155 54.0467 120.155 53.5C120.155 52.9467 119.965 52.48 119.585 52.1C119.205 51.7133 118.739 51.52 118.185 51.52C117.632 51.52 117.165 51.7133 116.785 52.1C116.405 52.48 116.215 52.9467 116.215 53.5C116.215 54.0467 116.405 54.5167 116.785 54.91Z" fill="black"/>
<path d="M126.103 55.37C125.59 55.87 124.97 56.12 124.243 56.12C123.503 56.12 122.88 55.87 122.373 55.37C121.866 54.8633 121.613 54.24 121.613 53.5C121.613 52.76 121.866 52.14 122.373 51.64C122.88 51.1333 123.503 50.88 124.243 50.88C124.976 50.88 125.596 51.1333 126.103 51.64C126.616 52.14 126.873 52.76 126.873 53.5C126.873 54.2333 126.616 54.8567 126.103 55.37ZM122.843 54.91C123.223 55.29 123.69 55.48 124.243 55.48C124.796 55.48 125.263 55.29 125.643 54.91C126.023 54.5167 126.213 54.0467 126.213 53.5C126.213 52.9467 126.023 52.48 125.643 52.1C125.263 51.7133 124.796 51.52 124.243 51.52C123.69 51.52 123.223 51.7133 122.843 52.1C122.463 52.48 122.273 52.9467 122.273 53.5C122.273 54.0467 122.463 54.5167 122.843 54.91Z" fill="black"/>
<path d="M128.637 54.85L131.617 51H132.177V56H131.517V52.15L128.537 56H127.977V51H128.637V54.85Z" fill="black"/>
<path d="M132.973 51H137.173V51.64H135.403V56H134.743V51.64H132.973V51Z" fill="black"/>
<path d="M140.092 50.88C140.839 50.88 141.435 51.1433 141.882 51.67C142.342 52.19 142.572 52.8067 142.572 53.52C142.572 53.5533 142.565 53.6567 142.552 53.83H138.162C138.229 54.33 138.442 54.73 138.802 55.03C139.162 55.33 139.612 55.48 140.152 55.48C140.912 55.48 141.449 55.1967 141.762 54.63L142.342 54.97C142.122 55.33 141.819 55.6133 141.432 55.82C141.052 56.02 140.622 56.12 140.142 56.12C139.355 56.12 138.715 55.8733 138.222 55.38C137.729 54.8867 137.482 54.26 137.482 53.5C137.482 52.7467 137.725 52.1233 138.212 51.63C138.699 51.13 139.325 50.88 140.092 50.88ZM140.092 51.52C139.572 51.52 139.135 51.6733 138.782 51.98C138.435 52.2867 138.229 52.69 138.162 53.19H141.892C141.819 52.6567 141.615 52.2467 141.282 51.96C140.935 51.6667 140.539 51.52 140.092 51.52Z" fill="black"/>
<path d="M143.947 51H147.527V56H146.867V51.64H144.607V53.87C144.607 54.7033 144.447 55.2767 144.127 55.59C143.813 55.9033 143.38 56.04 142.827 56V55.38C143.213 55.42 143.497 55.3267 143.677 55.1C143.857 54.8733 143.947 54.4633 143.947 53.87V51Z" fill="black"/>
<path d="M149.585 52.9H150.955C151.415 52.9 151.808 53.0467 152.135 53.34C152.461 53.6267 152.625 53.9967 152.625 54.45C152.625 54.91 152.461 55.2833 152.135 55.57C151.821 55.8567 151.428 56 150.955 56H148.925V51H149.585V52.9ZM149.585 55.36H150.955C151.241 55.36 151.481 55.2767 151.675 55.11C151.868 54.9367 151.965 54.7167 151.965 54.45C151.965 54.1833 151.868 53.9667 151.675 53.8C151.481 53.6267 151.241 53.54 150.955 53.54H149.585V55.36Z" fill="black"/>
<path d="M155.903 56.12C155.15 56.12 154.523 55.87 154.023 55.37C153.523 54.8567 153.273 54.2333 153.273 53.5C153.273 52.76 153.523 52.14 154.023 51.64C154.523 51.1333 155.15 50.88 155.903 50.88C156.396 50.88 156.84 51 157.233 51.24C157.626 51.4733 157.913 51.79 158.093 52.19L157.553 52.5C157.42 52.2 157.203 51.9633 156.903 51.79C156.61 51.61 156.276 51.52 155.903 51.52C155.35 51.52 154.883 51.7133 154.503 52.1C154.123 52.48 153.933 52.9467 153.933 53.5C153.933 54.0467 154.123 54.5167 154.503 54.91C154.883 55.29 155.35 55.48 155.903 55.48C156.27 55.48 156.6 55.3933 156.893 55.22C157.193 55.0467 157.426 54.8067 157.593 54.5L158.143 54.82C157.936 55.22 157.633 55.5367 157.233 55.77C156.833 56.0033 156.39 56.12 155.903 56.12Z" fill="black"/>
<path d="M158.393 51H162.593V51.64H160.823V56H160.163V51.64H158.393V51Z" fill="black"/>
<path d="M166.577 53.43C167.124 53.63 167.397 54.02 167.397 54.6C167.397 55.0133 167.257 55.35 166.977 55.61C166.704 55.87 166.321 56 165.827 56H163.397V51H165.627C166.107 51 166.481 51.1233 166.747 51.37C167.021 51.6167 167.157 51.94 167.157 52.34C167.157 52.84 166.964 53.2033 166.577 53.43ZM165.627 51.64H164.057V53.16H165.627C166.207 53.16 166.497 52.9 166.497 52.38C166.497 52.1467 166.421 51.9667 166.267 51.84C166.121 51.7067 165.907 51.64 165.627 51.64ZM164.057 55.36H165.827C166.121 55.36 166.344 55.29 166.497 55.15C166.657 55.01 166.737 54.8133 166.737 54.56C166.737 54.32 166.657 54.1333 166.497 54C166.344 53.8667 166.121 53.8 165.827 53.8H164.057V55.36Z" fill="black"/>
<path d="M172.587 55.37C172.074 55.87 171.454 56.12 170.727 56.12C169.987 56.12 169.364 55.87 168.857 55.37C168.351 54.8633 168.097 54.24 168.097 53.5C168.097 52.76 168.351 52.14 168.857 51.64C169.364 51.1333 169.987 50.88 170.727 50.88C171.461 50.88 172.081 51.1333 172.587 51.64C173.101 52.14 173.357 52.76 173.357 53.5C173.357 54.2333 173.101 54.8567 172.587 55.37ZM169.327 54.91C169.707 55.29 170.174 55.48 170.727 55.48C171.281 55.48 171.747 55.29 172.127 54.91C172.507 54.5167 172.697 54.0467 172.697 53.5C172.697 52.9467 172.507 52.48 172.127 52.1C171.747 51.7133 171.281 51.52 170.727 51.52C170.174 51.52 169.707 51.7133 169.327 52.1C168.947 52.48 168.757 52.9467 168.757 53.5C168.757 54.0467 168.947 54.5167 169.327 54.91Z" fill="black"/>
</svg>
