<svg width="60" height="60" viewBox="0 0 60 60" fill="none" xmlns="http://www.w3.org/2000/svg">
<rect width="60" height="60" rx="8" fill="#231F20"/>
<path fill-rule="evenodd" clip-rule="evenodd" d="M14 23.9618L29.7694 14L45.3686 23.9618V44.4636H34.7345L32.5969 40.0117C33.7958 39.4424 34.395 38.4563 34.395 37.0546C34.395 35.4719 33.3974 34.0386 31.7735 33.7988C31.3562 33.7344 30.7566 33.7033 29.9775 33.7033H25.9523V44.4636H14V23.9618ZM31.7316 44.4638H28.7594V40.4795H30.1925L31.7316 44.4638ZM28.7594 35.5194V38.6632H29.9972C31.0963 38.6632 31.6444 38.125 31.6444 37.0465C31.6444 36.6734 31.564 36.368 31.4009 36.1297C31.2377 35.8915 31.048 35.7321 30.8334 35.645C30.6192 35.5611 30.3008 35.5194 29.8852 35.5194H28.7594Z" fill="white"/>
</svg>
