<svg width="29" height="37" viewBox="0 0 29 37" fill="none" xmlns="http://www.w3.org/2000/svg">
<mask id="mask0_140_71" style="mask-type:luminance" maskUnits="userSpaceOnUse" x="0" y="29" width="29" height="8">
<path fill-rule="evenodd" clip-rule="evenodd" d="M0.345459 29.1074H28.7391V36.5814H0.345459V29.1074Z" fill="white"/>
</mask>
<g mask="url(#mask0_140_71)">
<path fill-rule="evenodd" clip-rule="evenodd" d="M0.345459 29.1074H1.05361V32.1945C1.34167 31.8386 1.66106 31.571 2.00663 31.3951C2.35362 31.2172 2.72833 31.129 3.13282 31.129C3.54737 31.129 3.9155 31.2266 4.23644 31.4244C4.55777 31.6215 4.79554 31.8877 4.94808 32.2187C5.10075 32.5518 5.17721 33.0722 5.17721 33.7819V36.4541H4.46906V33.9777C4.46906 33.3805 4.4434 32.9805 4.39259 32.7802C4.3044 32.4373 4.1427 32.1796 3.91048 32.0052C3.67786 31.8323 3.37201 31.7455 2.99382 31.7455C2.5616 31.7455 2.17477 31.8793 1.83282 32.1469C1.49086 32.4131 1.26521 32.7441 1.15587 33.139C1.08843 33.3933 1.05361 33.8636 1.05361 34.55V36.4541H0.345459V29.1074ZM9.31748 31.1287C10.1697 31.1287 10.8779 31.4176 11.4385 31.9964C11.9487 32.5238 12.2036 33.1483 12.2036 33.8698C12.2036 34.5939 11.9346 35.2272 11.3951 35.769C10.8567 36.3106 10.1626 36.5812 9.31748 36.5812C8.46723 36.5812 7.77119 36.3106 7.23324 35.769C6.69323 35.2272 6.42426 34.5939 6.42426 33.8698C6.42426 33.1517 6.67969 32.5288 7.18992 32.0014C7.75043 31.4191 8.46014 31.1287 9.31748 31.1287V31.1287ZM9.31436 31.7844C8.72264 31.7844 8.2159 31.9886 7.79077 32.3979C7.36565 32.8073 7.15405 33.3034 7.15405 33.8842C7.15405 34.2579 7.25076 34.6074 7.44379 34.9319C7.6381 35.255 7.90012 35.5043 8.22995 35.6808C8.55786 35.8567 8.92057 35.945 9.31436 35.945C9.7088 35.945 10.071 35.8567 10.3993 35.6808C10.7293 35.5043 10.9913 35.255 11.1856 34.9319C11.3781 34.6074 11.4752 34.2579 11.4752 33.8842C11.4752 33.3034 11.2617 32.8073 10.835 32.3979C10.4095 31.9886 9.90273 31.7844 9.31436 31.7844V31.7844ZM13.5143 31.256H14.2224V32.155C14.4703 31.8235 14.7242 31.5807 14.986 31.427C15.3451 31.2283 15.7235 31.1287 16.1193 31.1287C16.3883 31.1287 16.6417 31.1777 16.8829 31.2769C17.1242 31.375 17.32 31.5073 17.4732 31.6704C17.6259 31.8349 17.7578 32.0699 17.8706 32.3767C18.1063 31.9688 18.403 31.6589 18.7571 31.4468C19.1132 31.2348 19.495 31.1287 19.9044 31.1287C20.2862 31.1287 20.6247 31.2198 20.9164 31.4013C21.2095 31.5822 21.4266 31.8349 21.5692 32.1596C21.7112 32.4846 21.7822 32.9708 21.7822 33.62V36.4538H21.0535V33.6186C21.0535 33.0605 21.0115 32.6784 20.927 32.4698C20.8413 32.2611 20.6978 32.0931 20.4928 31.9657C20.2878 31.8383 20.045 31.7749 19.7604 31.7749C19.4169 31.7749 19.1011 31.8711 18.816 32.0619C18.5299 32.2527 18.3219 32.5075 18.1895 32.8257C18.0575 33.1437 17.992 33.6756 17.992 34.4194V36.4538H17.2838V33.7945C17.2838 33.1681 17.242 32.7423 17.1589 32.5168C17.0758 32.2919 16.9318 32.1124 16.7247 31.9771C16.5167 31.8419 16.272 31.7749 15.9874 31.7749C15.6574 31.7749 15.3502 31.8676 15.064 32.0535C14.7775 32.2398 14.5659 32.4911 14.429 32.8057C14.2919 33.1205 14.2224 33.6036 14.2224 34.253V36.4538H13.5143V31.256ZM27.9506 34.7312L28.551 35.028C28.3536 35.3889 28.1259 35.6808 27.8675 35.9028C27.6091 36.1228 27.3189 36.2928 26.9961 36.4083C26.6718 36.5242 26.3071 36.5812 25.8997 36.5812C24.9935 36.5812 24.2869 36.3037 23.7766 35.7492C23.2669 35.1945 23.0115 34.5681 23.0115 33.8698C23.0115 33.2121 23.2281 32.6249 23.6602 32.111C24.2073 31.4563 24.9416 31.1287 25.8593 31.1287C26.8052 31.1287 27.5617 31.4647 28.1259 32.1352C28.5269 32.6086 28.7318 33.1993 28.7389 33.909H23.7403C23.7539 34.5112 23.9609 35.0038 24.3583 35.3868C24.7572 35.7719 25.2503 35.9647 25.8352 35.9647C26.1182 35.9647 26.3938 35.9191 26.6612 35.8275C26.9286 35.7362 27.1558 35.6153 27.3432 35.4637C27.5311 35.312 27.734 35.0686 27.9506 34.7312V34.7312ZM27.9572 33.3313C27.8614 32.974 27.7229 32.6899 27.5406 32.4764C27.3567 32.2627 27.1155 32.0913 26.8153 31.9609C26.5151 31.8301 26.1993 31.7651 25.8694 31.7651C25.3229 31.7651 24.8539 31.9282 24.4616 32.2563C24.1735 32.4962 23.9584 32.8535 23.8108 33.3313H27.9572Z" fill="white"/>
</g>
<mask id="mask1_140_71" style="mask-type:luminance" maskUnits="userSpaceOnUse" x="0" y="0" width="29" height="29">
<path fill-rule="evenodd" clip-rule="evenodd" d="M0.344727 0.5H28.8224V28.3481H0.344727V0.5Z" fill="white"/>
</mask>
<g mask="url(#mask1_140_71)">
<path fill-rule="evenodd" clip-rule="evenodd" d="M0.344727 9.60654L14.6609 0.5L28.8224 9.60654V28.3482H19.1683L17.2278 24.2784C18.3162 23.7581 18.8602 22.8566 18.8602 21.5752C18.8602 20.1284 17.9545 18.8182 16.4803 18.599C16.1014 18.5401 15.557 18.5117 14.8498 18.5117H11.1955V28.3482H0.344727V9.60654ZM16.4422 28.3482H13.7439V24.7059H15.0449L16.4422 28.3482ZM13.7439 20.172V23.0459H14.8676C15.8654 23.0459 16.363 22.5538 16.363 21.568C16.363 21.2269 16.29 20.9477 16.142 20.7299C15.9938 20.5121 15.8216 20.3664 15.6267 20.2868C15.4323 20.2101 15.1432 20.172 14.7659 20.172H13.7439Z" fill="white"/>
</g>
</svg>
