<svg width="228" height="72" viewBox="0 0 228 72" fill="none" xmlns="http://www.w3.org/2000/svg">
<rect width="87" height="72" fill="#231F20"/>
<mask id="mask0_1615_2" style="mask-type:luminance" maskUnits="userSpaceOnUse" x="27" y="49" width="35" height="10">
<path fill-rule="evenodd" clip-rule="evenodd" d="M27.0007 49.3291H61.3097V58.2979H27.0007V49.3291Z" fill="white"/>
</mask>
<g mask="url(#mask0_1615_2)">
<path fill-rule="evenodd" clip-rule="evenodd" d="M27.0007 49.3291H27.8564V53.0336C28.2045 52.6065 28.5904 52.2854 29.008 52.0743C29.4273 51.8608 29.88 51.755 30.3688 51.755C30.8697 51.755 31.3145 51.8721 31.7023 52.1094C32.0906 52.346 32.3779 52.6654 32.5622 53.0627C32.7467 53.4623 32.8391 54.0868 32.8391 54.9385V58.1451H31.9834V55.1734C31.9834 54.4568 31.9524 53.9767 31.891 53.7365C31.7844 53.325 31.5891 53.0158 31.3085 52.8064C31.0274 52.5989 30.6578 52.4948 30.2008 52.4948C29.6786 52.4948 29.2112 52.6554 28.798 52.9765C28.3848 53.2959 28.1121 53.6931 27.98 54.167C27.8985 54.4722 27.8564 55.0365 27.8564 55.8602V58.1451H27.0007V49.3291ZM37.8419 51.7546C38.8716 51.7546 39.7275 52.1013 40.4048 52.7958C41.0213 53.4287 41.3293 54.1781 41.3293 55.0439C41.3293 55.9128 41.0043 56.6728 40.3524 57.3229C39.7018 57.9728 38.8631 58.2976 37.8419 58.2976C36.8145 58.2976 35.9735 57.9728 35.3235 57.3229C34.6709 56.6728 34.3459 55.9128 34.3459 55.0439C34.3459 54.1822 34.6546 53.4347 35.2711 52.8018C35.9484 52.1031 36.806 51.7546 37.8419 51.7546ZM37.8382 52.5415C37.1232 52.5415 36.5108 52.7864 35.9972 53.2776C35.4835 53.7689 35.2278 54.3642 35.2278 55.0612C35.2278 55.5097 35.3446 55.929 35.5779 56.3184C35.8127 56.7062 36.1293 57.0054 36.5278 57.2171C36.924 57.4281 37.3623 57.5341 37.8382 57.5341C38.3148 57.5341 38.7524 57.4281 39.1491 57.2171C39.5478 57.0054 39.8644 56.7062 40.0992 56.3184C40.3318 55.929 40.4492 55.5097 40.4492 55.0612C40.4492 54.3642 40.1911 53.7689 39.6756 53.2776C39.1614 52.7864 38.5491 52.5415 37.8382 52.5415ZM42.913 51.9073H43.7687V52.9861C44.0682 52.5883 44.375 52.2969 44.6914 52.1126C45.1253 51.8741 45.5825 51.7546 46.0608 51.7546C46.3858 51.7546 46.692 51.8134 46.9835 51.9324C47.275 52.0501 47.5117 52.2089 47.6967 52.4046C47.8812 52.602 48.0406 52.884 48.1769 53.2521C48.4618 52.7626 48.8203 52.3909 49.2481 52.1363C49.6784 51.8819 50.1398 51.7546 50.6345 51.7546C51.0958 51.7546 51.5048 51.8639 51.8572 52.0816C52.2114 52.2988 52.4738 52.602 52.6461 52.9916C52.8176 53.3817 52.9035 53.9651 52.9035 54.7441V58.1447H52.0229V54.7425C52.0229 54.0727 51.9722 53.6142 51.87 53.3639C51.7666 53.1134 51.5931 52.9119 51.3454 52.759C51.0977 52.6061 50.8043 52.53 50.4604 52.53C50.0454 52.53 49.6638 52.6454 49.3193 52.8744C48.9736 53.1034 48.7223 53.4091 48.5623 53.7909C48.4027 54.1726 48.3236 54.8108 48.3236 55.7034V58.1447H47.4679V54.9535C47.4679 54.2018 47.4174 53.6909 47.3169 53.4204C47.2166 53.1504 47.0425 52.935 46.7923 52.7727C46.541 52.6104 46.2453 52.53 45.9014 52.53C45.5027 52.53 45.1314 52.6413 44.7857 52.8643C44.4395 53.0878 44.1838 53.3894 44.0183 53.767C43.8527 54.1447 43.7687 54.7245 43.7687 55.5037V58.1447H42.913V51.9073ZM60.3569 56.0775L61.0824 56.4338C60.8438 56.8668 60.5687 57.2171 60.2565 57.4835C59.9442 57.7475 59.5937 57.9515 59.2035 58.0901C58.8117 58.2292 58.371 58.2976 57.8787 58.2976C56.7837 58.2976 55.9299 57.9646 55.3133 57.2991C54.6974 56.6335 54.3888 55.8819 54.3888 55.0439C54.3888 54.2547 54.6505 53.5501 55.1727 52.9333C55.8337 52.1477 56.7211 51.7546 57.8299 51.7546C58.9729 51.7546 59.887 52.1578 60.5687 52.9624C61.0532 53.5304 61.3008 54.2393 61.3094 55.091H55.2694C55.2859 55.8135 55.536 56.4047 56.0162 56.8643C56.4982 57.3264 57.0941 57.5578 57.8008 57.5578C58.1428 57.5578 58.4757 57.503 58.7989 57.3931C59.122 57.2836 59.3966 57.1385 59.6229 56.9566C59.85 56.7745 60.0952 56.4825 60.3569 56.0775ZM60.365 54.3977C60.2492 53.969 60.0819 53.6281 59.8615 53.3719C59.6394 53.1155 59.3479 52.9098 58.9851 52.7533C58.6224 52.5963 58.2409 52.5184 57.8421 52.5184C57.1818 52.5184 56.6152 52.714 56.1411 53.1077C55.793 53.3956 55.5331 53.8243 55.3547 54.3977H60.365Z" fill="white"/>
</g>
<mask id="mask1_1615_2" style="mask-type:luminance" maskUnits="userSpaceOnUse" x="27" y="15" width="35" height="34">
<path fill-rule="evenodd" clip-rule="evenodd" d="M27 15H61.4106V48.4178H27V15Z" fill="white"/>
</mask>
<g mask="url(#mask1_1615_2)">
<path fill-rule="evenodd" clip-rule="evenodd" d="M27 25.9278L44.2987 15L61.4106 25.9278V48.4178H49.7452L47.4003 43.5341C48.7155 42.9097 49.3728 41.8279 49.3728 40.2903C49.3728 38.5541 48.2784 36.9819 46.4971 36.7188C46.0394 36.6481 45.3815 36.614 44.5269 36.614H40.1114V48.4178H27V25.9278ZM46.4511 48.4178H43.1907V44.0471H44.7628L46.4511 48.4178ZM43.1907 38.6064V42.055H44.5485C45.7542 42.055 46.3554 41.4646 46.3554 40.2816C46.3554 39.8722 46.2672 39.5372 46.0884 39.2759C45.9094 39.0145 45.7012 38.8397 45.4658 38.7441C45.2308 38.6521 44.8815 38.6064 44.4256 38.6064H43.1907Z" fill="white"/>
</g>
<path d="M114.12 24.2002V33.0762H115.17V35.8762H114.19V34.0002H107.19V35.8762H106.21V33.0762H107.008C107.652 32.3202 107.974 31.1535 107.974 29.5762V24.2002H114.12ZM108.17 33.0762H113.14V25.1242H108.954V29.6042C108.954 31.1442 108.693 32.3015 108.17 33.0762Z" fill="#231F20"/>
<path d="M117.57 32.3902L121.742 27.0002H122.526V34.0002H121.602V28.6102L117.43 34.0002H116.646V27.0002H117.57V32.3902Z" fill="#231F20"/>
<path d="M128.092 30.4022C128.904 30.7102 129.31 31.2702 129.31 32.0822C129.31 32.6702 129.081 33.1649 128.624 33.5662C128.185 33.9675 127.541 34.1682 126.692 34.1682C125.273 34.1682 124.349 33.6082 123.92 32.4882L124.704 32.0262C125.003 32.8569 125.665 33.2722 126.692 33.2722C127.224 33.2722 127.639 33.1602 127.938 32.9362C128.237 32.7029 128.386 32.3995 128.386 32.0262C128.386 31.6902 128.265 31.4242 128.022 31.2282C127.779 31.0229 127.453 30.9202 127.042 30.9202H126.02V30.0242H126.762C127.163 30.0242 127.476 29.9262 127.7 29.7302C127.933 29.5249 128.05 29.2449 128.05 28.8902C128.05 28.5542 127.91 28.2789 127.63 28.0642C127.359 27.8402 127 27.7282 126.552 27.7282C125.684 27.7282 125.101 28.0782 124.802 28.7782L124.032 28.3302C124.499 27.3315 125.339 26.8322 126.552 26.8322C127.299 26.8322 127.887 27.0282 128.316 27.4202C128.755 27.8029 128.974 28.2742 128.974 28.8342C128.974 29.5529 128.68 30.0755 128.092 30.4022Z" fill="#231F20"/>
<path d="M136.734 28.3722V27.0002H137.658V34.0002H136.734V32.6282C136.09 33.6549 135.148 34.1682 133.906 34.1682C132.908 34.1682 132.054 33.8135 131.344 33.1042C130.644 32.3949 130.294 31.5269 130.294 30.5002C130.294 29.4735 130.644 28.6055 131.344 27.8962C132.054 27.1869 132.908 26.8322 133.906 26.8322C135.148 26.8322 136.09 27.3455 136.734 28.3722ZM132.016 32.4742C132.548 33.0062 133.202 33.2722 133.976 33.2722C134.751 33.2722 135.404 33.0062 135.936 32.4742C136.468 31.9235 136.734 31.2655 136.734 30.5002C136.734 29.7255 136.468 29.0722 135.936 28.5402C135.404 27.9989 134.751 27.7282 133.976 27.7282C133.202 27.7282 132.548 27.9989 132.016 28.5402C131.484 29.0722 131.218 29.7255 131.218 30.5002C131.218 31.2655 131.484 31.9235 132.016 32.4742Z" fill="#231F20"/>
<path d="M144.375 25.8802H140.735V25.0682H144.375V25.8802ZM140.539 32.3902L144.711 27.0002H145.495V34.0002H144.571V28.6102L140.399 34.0002H139.615V27.0002H140.539V32.3902Z" fill="#231F20"/>
<path d="M152.405 30.0522V27.0002H153.329V34.0002H152.405V30.9482H148.373V34.0002H147.449V27.0002H148.373V30.0522H152.405Z" fill="#231F20"/>
<path d="M159.707 32.3902L163.879 27.0002H164.663V34.0002H163.739V28.6102L159.567 34.0002H158.783V27.0002H159.707V32.3902Z" fill="#231F20"/>
<path d="M171.573 30.0522V27.0002H172.497V34.0002H171.573V30.9482H167.541V34.0002H166.617V27.0002H167.541V30.0522H171.573Z" fill="#231F20"/>
<path d="M173.611 27.0002H179.491V27.8962H177.013V34.0002H176.089V27.8962H173.611V27.0002Z" fill="#231F20"/>
<path d="M183.577 26.8322C184.623 26.8322 185.458 27.2009 186.083 27.9382C186.727 28.6662 187.049 29.5295 187.049 30.5282C187.049 30.5749 187.04 30.7195 187.021 30.9622H180.875C180.969 31.6622 181.267 32.2222 181.771 32.6422C182.275 33.0622 182.905 33.2722 183.661 33.2722C184.725 33.2722 185.477 32.8755 185.915 32.0822L186.727 32.5582C186.419 33.0622 185.995 33.4589 185.453 33.7482C184.921 34.0282 184.319 34.1682 183.647 34.1682C182.546 34.1682 181.65 33.8229 180.959 33.1322C180.269 32.4415 179.923 31.5642 179.923 30.5002C179.923 29.4455 180.264 28.5729 180.945 27.8822C181.627 27.1822 182.504 26.8322 183.577 26.8322ZM183.577 27.7282C182.849 27.7282 182.238 27.9429 181.743 28.3722C181.258 28.8015 180.969 29.3662 180.875 30.0662H186.097C185.995 29.3195 185.71 28.7455 185.243 28.3442C184.758 27.9335 184.203 27.7282 183.577 27.7282Z" fill="#231F20"/>
<path d="M192.271 26.8322C193.27 26.8322 194.119 27.1869 194.819 27.8962C195.528 28.6055 195.883 29.4735 195.883 30.5002C195.883 31.5269 195.528 32.3949 194.819 33.1042C194.119 33.8135 193.27 34.1682 192.271 34.1682C191.03 34.1682 190.087 33.6549 189.443 32.6282V36.8002H188.519V27.0002H189.443V28.3722C190.087 27.3455 191.03 26.8322 192.271 26.8322ZM190.241 32.4742C190.773 33.0062 191.426 33.2722 192.201 33.2722C192.976 33.2722 193.629 33.0062 194.161 32.4742C194.693 31.9235 194.959 31.2655 194.959 30.5002C194.959 29.7255 194.693 29.0722 194.161 28.5402C193.629 27.9989 192.976 27.7282 192.201 27.7282C191.426 27.7282 190.773 27.9989 190.241 28.5402C189.709 29.0722 189.443 29.7255 189.443 30.5002C189.443 31.2655 189.709 31.9235 190.241 32.4742Z" fill="#231F20"/>
<path d="M198.343 29.6602H200.261C200.905 29.6602 201.456 29.8655 201.913 30.2762C202.371 30.6775 202.599 31.1955 202.599 31.8302C202.599 32.4742 202.371 32.9969 201.913 33.3982C201.475 33.7995 200.924 34.0002 200.261 34.0002H197.419V27.0002H198.343V29.6602ZM198.343 33.1042H200.261C200.663 33.1042 200.999 32.9875 201.269 32.7542C201.54 32.5115 201.675 32.2035 201.675 31.8302C201.675 31.4569 201.54 31.1535 201.269 30.9202C200.999 30.6775 200.663 30.5562 200.261 30.5562H198.343V33.1042Z" fill="#231F20"/>
<path d="M207.161 26.8322C208.207 26.8322 209.042 27.2009 209.667 27.9382C210.311 28.6662 210.633 29.5295 210.633 30.5282C210.633 30.5749 210.624 30.7195 210.605 30.9622H204.459C204.553 31.6622 204.851 32.2222 205.355 32.6422C205.859 33.0622 206.489 33.2722 207.245 33.2722C208.309 33.2722 209.061 32.8755 209.499 32.0822L210.311 32.5582C210.003 33.0622 209.579 33.4589 209.037 33.7482C208.505 34.0282 207.903 34.1682 207.231 34.1682C206.13 34.1682 205.234 33.8229 204.543 33.1322C203.853 32.4415 203.507 31.5642 203.507 30.5002C203.507 29.4455 203.848 28.5729 204.529 27.8822C205.211 27.1822 206.088 26.8322 207.161 26.8322ZM207.161 27.7282C206.433 27.7282 205.822 27.9429 205.327 28.3722C204.842 28.8015 204.553 29.3662 204.459 30.0662H209.681C209.579 29.3195 209.294 28.7455 208.827 28.3442C208.342 27.9335 207.787 27.7282 207.161 27.7282Z" fill="#231F20"/>
<path d="M215.855 26.8322C216.854 26.8322 217.703 27.1869 218.403 27.8962C219.112 28.6055 219.467 29.4735 219.467 30.5002C219.467 31.5269 219.112 32.3949 218.403 33.1042C217.703 33.8135 216.854 34.1682 215.855 34.1682C214.614 34.1682 213.671 33.6549 213.027 32.6282V36.8002H212.103V27.0002H213.027V28.3722C213.671 27.3455 214.614 26.8322 215.855 26.8322ZM213.825 32.4742C214.357 33.0062 215.01 33.2722 215.785 33.2722C216.56 33.2722 217.213 33.0062 217.745 32.4742C218.277 31.9235 218.543 31.2655 218.543 30.5002C218.543 29.7255 218.277 29.0722 217.745 28.5402C217.213 27.9989 216.56 27.7282 215.785 27.7282C215.01 27.7282 214.357 27.9989 213.825 28.5402C213.293 29.0722 213.027 29.7255 213.027 30.5002C213.027 31.2655 213.293 31.9235 213.825 32.4742Z" fill="#231F20"/>
<path d="M227.023 28.3722V27.0002H227.947V34.0002H227.023V32.6282C226.379 33.6549 225.437 34.1682 224.195 34.1682C223.197 34.1682 222.343 33.8135 221.633 33.1042C220.933 32.3949 220.583 31.5269 220.583 30.5002C220.583 29.4735 220.933 28.6055 221.633 27.8962C222.343 27.1869 223.197 26.8322 224.195 26.8322C225.437 26.8322 226.379 27.3455 227.023 28.3722ZM222.305 32.4742C222.837 33.0062 223.491 33.2722 224.265 33.2722C225.04 33.2722 225.693 33.0062 226.225 32.4742C226.757 31.9235 227.023 31.2655 227.023 30.5002C227.023 29.7255 226.757 29.0722 226.225 28.5402C225.693 27.9989 225.04 27.7282 224.265 27.7282C223.491 27.7282 222.837 27.9989 222.305 28.5402C221.773 29.0722 221.507 29.7255 221.507 30.5002C221.507 31.2655 221.773 31.9235 222.305 32.4742Z" fill="#231F20"/>
<path d="M114.68 50.0002H113.644L112.734 47.5922H108.086L107.176 50.0002H106.14L109.906 40.2002H110.914L114.68 50.0002ZM110.41 41.4182L108.436 46.6682H112.384L110.41 41.4182Z" fill="#231F20"/>
<path d="M119.55 42.8322C120.549 42.8322 121.398 43.1869 122.098 43.8962C122.808 44.6055 123.162 45.4735 123.162 46.5002C123.162 47.5269 122.808 48.3949 122.098 49.1042C121.398 49.8135 120.549 50.1682 119.55 50.1682C118.309 50.1682 117.366 49.6549 116.722 48.6282V52.8002H115.798V43.0002H116.722V44.3722C117.366 43.3455 118.309 42.8322 119.55 42.8322ZM117.52 48.4742C118.052 49.0062 118.706 49.2722 119.48 49.2722C120.255 49.2722 120.908 49.0062 121.44 48.4742C121.972 47.9235 122.238 47.2655 122.238 46.5002C122.238 45.7255 121.972 45.0722 121.44 44.5402C120.908 43.9989 120.255 43.7282 119.48 43.7282C118.706 43.7282 118.052 43.9989 117.52 44.5402C116.988 45.0722 116.722 45.7255 116.722 46.5002C116.722 47.2655 116.988 47.9235 117.52 48.4742Z" fill="#231F20"/>
<path d="M127.357 46.3742L130.087 50.0002H128.981L126.797 47.1162L124.613 50.0002H123.507L126.251 46.3742L123.689 43.0002H124.795L126.797 45.6462L128.799 43.0002H129.905L127.357 46.3742Z" fill="#231F20"/>
<path d="M132.267 48.3902L136.439 43.0002H137.223V50.0002H136.299V44.6102L132.127 50.0002H131.343V43.0002H132.267V48.3902Z" fill="#231F20"/>
<path d="M138.337 43.0002H144.217V43.8962H141.739V50.0002H140.815V43.8962H138.337V43.0002Z" fill="#231F20"/>
<path d="M148.304 42.8322C149.349 42.8322 150.185 43.2009 150.81 43.9382C151.454 44.6662 151.776 45.5295 151.776 46.5282C151.776 46.5749 151.767 46.7195 151.748 46.9622H145.602C145.695 47.6622 145.994 48.2222 146.498 48.6422C147.002 49.0622 147.632 49.2722 148.388 49.2722C149.452 49.2722 150.203 48.8755 150.642 48.0822L151.454 48.5582C151.146 49.0622 150.721 49.4589 150.18 49.7482C149.648 50.0282 149.046 50.1682 148.374 50.1682C147.273 50.1682 146.377 49.8229 145.686 49.1322C144.995 48.4415 144.65 47.5642 144.65 46.5002C144.65 45.4455 144.991 44.5729 145.672 43.8822C146.353 43.1822 147.231 42.8322 148.304 42.8322ZM148.304 43.7282C147.576 43.7282 146.965 43.9429 146.47 44.3722C145.985 44.8015 145.695 45.3662 145.602 46.0662H150.824C150.721 45.3195 150.437 44.7455 149.97 44.3442C149.485 43.9335 148.929 43.7282 148.304 43.7282Z" fill="#231F20"/>
<path d="M155.15 46.3602L158.902 50.0002H157.67L154.17 46.6262V50.0002H153.246V43.0002H154.17V46.0942L157.502 43.0002H158.762L155.15 46.3602Z" fill="#231F20"/>
<path d="M159.324 43.0002H165.204V43.8962H162.726V50.0002H161.802V43.8962H159.324V43.0002Z" fill="#231F20"/>
<path d="M169.102 48.8662L171.37 43.0002H172.35L169.354 50.6442C169.074 51.3535 168.682 51.8995 168.178 52.2822C167.683 52.6742 167.132 52.8469 166.526 52.8002V51.9322C167.366 52.0349 168.005 51.5495 168.444 50.4762L168.626 50.0422L165.49 43.0002H166.47L169.102 48.8662Z" fill="#231F20"/>
<path d="M177.218 42.8322C178.217 42.8322 179.066 43.1869 179.766 43.8962C180.476 44.6055 180.83 45.4735 180.83 46.5002C180.83 47.5269 180.476 48.3949 179.766 49.1042C179.066 49.8135 178.217 50.1682 177.218 50.1682C175.977 50.1682 175.034 49.6549 174.39 48.6282V52.8002H173.466V43.0002H174.39V44.3722C175.034 43.3455 175.977 42.8322 177.218 42.8322ZM175.188 48.4742C175.72 49.0062 176.374 49.2722 177.148 49.2722C177.923 49.2722 178.576 49.0062 179.108 48.4742C179.64 47.9235 179.906 47.2655 179.906 46.5002C179.906 45.7255 179.64 45.0722 179.108 44.5402C178.576 43.9989 177.923 43.7282 177.148 43.7282C176.374 43.7282 175.72 43.9989 175.188 44.5402C174.656 45.0722 174.39 45.7255 174.39 46.5002C174.39 47.2655 174.656 47.9235 175.188 48.4742Z" fill="#231F20"/>
<path d="M188.387 44.3722V43.0002H189.311V50.0002H188.387V48.6282C187.743 49.6549 186.8 50.1682 185.559 50.1682C184.56 50.1682 183.706 49.8135 182.997 49.1042C182.297 48.3949 181.947 47.5269 181.947 46.5002C181.947 45.4735 182.297 44.6055 182.997 43.8962C183.706 43.1869 184.56 42.8322 185.559 42.8322C186.8 42.8322 187.743 43.3455 188.387 44.3722ZM183.669 48.4742C184.201 49.0062 184.854 49.2722 185.629 49.2722C186.403 49.2722 187.057 49.0062 187.589 48.4742C188.121 47.9235 188.387 47.2655 188.387 46.5002C188.387 45.7255 188.121 45.0722 187.589 44.5402C187.057 43.9989 186.403 43.7282 185.629 43.7282C184.854 43.7282 184.201 43.9989 183.669 44.5402C183.137 45.0722 182.871 45.7255 182.871 46.5002C182.871 47.2655 183.137 47.9235 183.669 48.4742Z" fill="#231F20"/>
</svg>
