<svg width="62" height="14" viewBox="0 0 62 14" fill="none" xmlns="http://www.w3.org/2000/svg">
<path d="M9.324 12.834H7.47L4.644 8.01H1.674V12.834H0V0.234H5.04C6.12 0.234 7.044 0.618 7.812 1.386C8.58 2.142 8.964 3.06 8.964 4.14C8.964 4.956 8.718 5.7 8.226 6.372C7.722 7.056 7.098 7.53 6.354 7.794L9.324 12.834ZM5.04 1.8H1.674V6.498H5.04C5.664 6.498 6.192 6.27 6.624 5.814C7.068 5.358 7.29 4.8 7.29 4.14C7.29 3.48 7.068 2.928 6.624 2.484C6.192 2.028 5.664 1.8 5.04 1.8Z" fill="#989898"/>
<path d="M19.3379 5.58V0.234H20.9939V12.834H19.3379V7.164H13.2179V12.834H11.5439V0.234H13.2179V5.58H19.3379Z" fill="#989898"/>
<path d="M23.5644 6.534C23.5644 4.71 24.1944 3.168 25.4544 1.908C26.7144 0.636 28.2564 0 30.0804 0C31.9044 0 33.4464 0.636 34.7064 1.908C35.9784 3.168 36.6144 4.71 36.6144 6.534C36.6144 8.346 35.9784 9.888 34.7064 11.16C33.4464 12.432 31.9044 13.068 30.0804 13.068C28.2564 13.068 26.7144 12.432 25.4544 11.16C24.1944 9.876 23.5644 8.334 23.5644 6.534ZM34.9404 6.534C34.9404 5.142 34.4724 3.978 33.5364 3.042C32.6244 2.094 31.4724 1.62 30.0804 1.62C28.7004 1.62 27.5424 2.094 26.6064 3.042C25.6824 3.99 25.2204 5.154 25.2204 6.534C25.2204 7.902 25.6824 9.066 26.6064 10.026C27.5424 10.962 28.7004 11.43 30.0804 11.43C31.4724 11.43 32.6244 10.962 33.5364 10.026C34.4724 9.066 34.9404 7.902 34.9404 6.534Z" fill="#989898"/>
<path d="M49.0669 0.234H50.9569V12.834H49.3009V2.988L45.1789 9.846H44.9629L40.8409 3.006V12.834H39.1669V0.234H41.0569L45.0709 6.894L49.0669 0.234Z" fill="#989898"/>
<path d="M55.8653 7.254V11.25H61.7153V12.834H54.1912V0.234H61.6253V1.818H55.8653V5.688H61.1753V7.254H55.8653Z" fill="#989898"/>
</svg>
