<svg width="58" height="59" viewBox="0 0 58 59" fill="none" xmlns="http://www.w3.org/2000/svg">
<path d="M28.9361 58.8283C44.9171 58.8283 57.8723 45.8731 57.8723 29.8922C57.8723 13.9112 44.9171 0.956055 28.9361 0.956055C12.9552 0.956055 0 13.9112 0 29.8922C0 45.8731 12.9552 58.8283 28.9361 58.8283Z" fill="url(#paint0_linear_226_386)"/>
<path d="M10.777 31.3082C14.1596 29.4449 17.9355 27.8899 21.4636 26.3268C27.5332 23.7667 33.6269 21.251 39.7821 18.9088C40.9797 18.5097 43.1314 18.1195 43.3424 19.8942C43.2269 22.4064 42.7516 24.9038 42.4256 27.4012C41.5982 32.8933 40.6418 38.3666 39.7092 43.8406C39.3879 45.6639 37.1038 46.6078 35.6423 45.441C32.1299 43.0684 28.5905 40.7191 25.123 38.2916C23.9872 37.1374 25.0404 35.4799 26.0549 34.6557C28.9478 31.8048 32.0157 29.3826 34.7574 26.3843C35.497 24.5984 33.3118 26.1035 32.5911 26.5647C28.6307 29.2939 24.7672 32.1897 20.5917 34.5882C18.4589 35.7623 15.973 34.759 13.8412 34.1038C11.9297 33.3124 9.12863 32.5151 10.7768 31.3083L10.777 31.3082Z" fill="white"/>
<defs>
<linearGradient id="paint0_linear_226_386" x1="21.7055" y1="3.36933" x2="7.23741" y2="37.1262" gradientUnits="userSpaceOnUse">
<stop stop-color="#37AEE2"/>
<stop offset="1" stop-color="#1E96C8"/>
</linearGradient>
</defs>
</svg>
